<svg xmlns="http://www.w3.org/2000/svg" width="34" height="34" viewBox="0 0 34 34">
  <g id="Group_523" data-name="Group 523" transform="translate(-33 -977)">
    <rect id="Rectangle_8142" data-name="Rectangle 8142" width="34" height="34" transform="translate(33 977)" fill="none"/>
    <g id="Group_419" data-name="Group 419" transform="translate(4629.201 4754.341)">
      <path id="Path_760" data-name="Path 760" d="M27.28,14.659c-.076.137-.162.288-.259.451A17.769,17.769,0,0,1,24.8,18.08a12.1,12.1,0,0,1-9,4.168,12.1,12.1,0,0,1-9-4.168A17.777,17.777,0,0,1,4.576,15.11c-.1-.163-.183-.314-.259-.451.076-.137.162-.288.259-.451a17.779,17.779,0,0,1,2.218-2.971,12.1,12.1,0,0,1,9-4.168,12.1,12.1,0,0,1,9,4.168,17.771,17.771,0,0,1,2.218,2.971C27.118,14.371,27.2,14.522,27.28,14.659Zm2.318,0s-4.14,9.659-13.8,9.659S2,14.659,2,14.659,6.14,5,15.8,5,29.6,14.659,29.6,14.659Z" transform="translate(-4595 -3775)" fill="#f1d013" fill-rule="evenodd"/>
      <path id="Path_761" data-name="Path 761" d="M13.14,15.209a2.07,2.07,0,1,0-2.07-2.07A2.07,2.07,0,0,0,13.14,15.209Zm0,2.07A4.14,4.14,0,1,0,9,13.14,4.14,4.14,0,0,0,13.14,17.279Z" transform="translate(-4592.341 -3773.48)" fill="#f1d013" fill-rule="evenodd"/>
    </g>
  </g>
</svg>
