<?xml version="1.0" encoding="utf-8"?>
<!-- Generator: Adobe Illustrator 27.9.0, SVG Export Plug-In . SVG Version: 6.00 Build 0)  -->
<svg version="1.1" id="Layer_1" xmlns="http://www.w3.org/2000/svg" xmlns:xlink="http://www.w3.org/1999/xlink" x="0px" y="0px"
	 viewBox="0 0 650.56 630.34" style="enable-background:new 0 0 650.56 630.34;" xml:space="preserve">
<style type="text/css">
	.st0{fill:#231F20;}
	.st1{fill:#4D4D4F;}
	.st2{fill:#F0CF0E;}
	.st3{fill-rule:evenodd;clip-rule:evenodd;fill:#4D4D4F;}
	.st4{fill:#2B4BA0;}
	.st5{fill:#B42F40;}
	.st6{fill:#FFFFFF;}
	.st7{clip-path:url(#SVGID_00000098942817667654340480000004182316185749206973_);}
	.st8{fill-rule:evenodd;clip-rule:evenodd;fill:#FFFFFF;}
	.st9{opacity:0.7;}
	.st10{clip-path:url(#SVGID_00000112615023108433601260000007320139837857580954_);}
	.st11{clip-path:url(#SVGID_00000178190396440564259820000017575224985283593131_);}
	.st12{clip-path:url(#SVGID_00000163048809834391041270000006192788173153310103_);}
	.st13{clip-path:url(#SVGID_00000083782378137181227090000018262487082477117885_);}
	.st14{clip-path:url(#SVGID_00000075878622304015343510000002091552308721027721_);fill:#3D9635;}
	.st15{fill:#EDEDED;}
	.st16{fill:none;stroke:#F0CF0E;stroke-width:11.6992;stroke-miterlimit:10;}
</style>
<g>
	<g>
		<g>
			<g>
				<defs>
					
						<rect id="SVGID_1_" x="90.44" y="831.27" transform="matrix(-1 -1.224647e-16 1.224647e-16 -1 632.0965 2113.7488)" width="451.22" height="451.22"/>
				</defs>
				<clipPath id="SVGID_00000023264038535040564210000000001399375601093272_">
					<use xlink:href="#SVGID_1_"  style="overflow:visible;"/>
				</clipPath>
				<g style="clip-path:url(#SVGID_00000023264038535040564210000000001399375601093272_);">
					<path class="st6" d="M203.58,701.38l0.81,0.81h4.57l-5.38-5.38V701.38z M203.58,692.24l9.95,9.95h4.57l-14.51-14.51V692.24z
						 M203.58,683.11l19.08,19.08h4.57l-23.65-23.65V683.11z M203.58,673.97l28.22,28.22h4.57l-32.78-32.78V673.97z M203.58,664.84
						l37.35,37.35h4.57l-41.92-41.92V664.84z M203.58,655.7l46.49,46.49h4.57l-51.05-51.05V655.7z M203.58,646.56l55.62,55.62h4.57
						L203.58,642V646.56z M203.58,637.43l64.76,64.76h4.57l-69.32-69.32V637.43z M203.58,628.29l73.89,73.89h4.57l-78.46-78.46
						V628.29z M205.86,621.44l78.46,78.46v-4.57l-73.89-73.89H205.86z M214.99,621.44l69.33,69.33v-4.57l-64.76-64.76H214.99z
						 M224.13,621.44l60.19,60.19v-4.57l-55.62-55.62H224.13z M233.27,621.44l51.05,51.05v-4.57l-46.49-46.49H233.27z M242.4,621.44
						l41.92,41.92v-4.57l-37.35-37.35H242.4z M251.54,621.44l32.78,32.78v-4.57l-28.22-28.22H251.54z M260.67,621.44l23.65,23.65
						v-4.57l-19.08-19.08H260.67z M269.81,621.44l14.51,14.51v-4.57l-9.95-9.95H269.81z M278.94,621.44l5.38,5.38v-4.57l-0.81-0.81
						H278.94z M278.94,621.44"/>
					<path class="st6" d="M445.81,622.26l0.81-0.81h4.57l-5.38,5.38V622.26z M445.81,631.39l9.95-9.95h4.57l-14.51,14.51V631.39z
						 M445.81,640.53l19.08-19.08h4.57l-23.65,23.65V640.53z M445.81,649.66l28.22-28.22h4.57l-32.78,32.78V649.66z M445.81,658.8
						l37.35-37.35h4.57l-41.92,41.92V658.8z M445.81,667.93l46.49-46.49h4.57l-51.05,51.05V667.93z M445.81,677.07l55.62-55.62H506
						l-60.19,60.19V677.07z M445.81,686.2l64.76-64.76h4.57l-69.32,69.32V686.2z M445.81,695.34l73.89-73.89h4.57l-78.46,78.46
						V695.34z M448.09,702.19l78.46-78.46v4.57l-73.89,73.89H448.09z M457.23,702.19l69.33-69.33v4.57l-64.76,64.76H457.23z
						 M466.36,702.19L526.55,642v4.57l-55.62,55.62H466.36z M475.5,702.19l51.05-51.05v4.57l-46.49,46.49H475.5z M484.63,702.19
						l41.92-41.92v4.57l-37.35,37.35H484.63z M493.77,702.19l32.78-32.78v4.57l-28.22,28.22H493.77z M502.9,702.19l23.65-23.65v4.57
						l-19.08,19.08H502.9z M512.04,702.19l14.51-14.51v4.57l-9.95,9.95H512.04z M521.17,702.19l5.38-5.38v4.57l-0.81,0.81H521.17z
						 M521.17,702.19"/>
					<rect x="82.46" y="621.44" class="st6" width="40.37" height="80.74"/>
					<path class="st6" d="M284.32,702.19h80.74v-3.23h-80.74V702.19z M284.32,695.73h80.74v-3.23h-80.74V695.73z M284.32,689.27
						h80.74v-3.23h-80.74V689.27z M284.32,682.81h80.74v-3.23h-80.74V682.81z M284.32,676.35h80.74v-3.23h-80.74V676.35z
						 M284.32,669.89h80.74v-3.23h-80.74V669.89z M284.32,663.43h80.74v-3.23h-80.74V663.43z M284.32,656.97h80.74v-3.23h-80.74
						V656.97z M284.32,650.51h80.74v-3.23h-80.74V650.51z M284.32,644.05h80.74v-3.23h-80.74V644.05z M284.32,637.59h80.74v-3.23
						h-80.74V637.59z M284.32,631.13h80.74v-3.23h-80.74V631.13z M284.32,624.67h80.74v-3.23h-80.74V624.67z M284.32,624.67"/>
					<path class="st6" d="M526.55,624.05h-80.74l80.74,80.74V624.05z M526.55,624.05"/>
					<path class="st6" d="M122.83,621.44c0,21.41,8.51,41.95,23.65,57.09c15.14,15.14,35.68,23.65,57.09,23.65v-80.74H122.83z
						 M122.83,621.44"/>
					<rect x="365.06" y="621.44" class="st6" width="80.74" height="40.37"/>
				</g>
			</g>
		</g>
	</g>
</g>
<g>
	<g>
		<g id="Mask__x26__Flag">
			<g>
				<defs>
					<path id="SVGID_00000158031257519402506880000007991426030332403596_" d="M630.22,315.17c0,168.42-136.52,304.94-304.95,304.94
						c-168.41,0-304.93-136.52-304.93-304.94c0-168.41,136.53-304.94,304.93-304.94C493.7,10.23,630.22,146.75,630.22,315.17z"/>
				</defs>
				<clipPath id="SVGID_00000011747054260084689080000015998759472493110459_">
					<use xlink:href="#SVGID_00000158031257519402506880000007991426030332403596_"  style="overflow:visible;"/>
				</clipPath>
				<g style="clip-path:url(#SVGID_00000011747054260084689080000015998759472493110459_);">
					<g>
						<defs>
							
								<rect id="SVGID_00000011745566698780420870000013358491379163364283_" x="-112.2" y="-16.92" width="1015.8" height="664.18"/>
						</defs>
						<clipPath id="SVGID_00000150812548765620342500000007794290522036223139_">
							<use xlink:href="#SVGID_00000011745566698780420870000013358491379163364283_"  style="overflow:visible;"/>
						</clipPath>
						
							<rect x="-112.2" y="-16.92" style="clip-path:url(#SVGID_00000150812548765620342500000007794290522036223139_);fill:#3D9635;" width="1015.8" height="664.18"/>
					</g>
					<g>
						<path class="st15" d="M135.39,233.57c12.95,1.3,6.85-21.82,10.5-27.08c1.33-1.92,2.51-2.16,2.65,0.54v20.4
							c-0.12,6.61,3.85,9.37,7.36,9.92c3.36,0.52,5.67-0.13,6.99,3.27c0.52,11.76,1.07,23.48,1.59,35.24c0,0,7.88,2.35,8.25-19.8
							c0.4-13.03-2.5-23.93-0.8-26.44c0.03-2.51,3.09-2.68,5.23-1.43c3.39,2.48,4.91,5.53,10.16,4.32c8-2.32,12.81-6.32,12.94-12.71
							c-0.47-6.04-1.13-12.11-3.64-18.18c0.35-1.08-1.57-3.94-1.2-5.05c1.44,2.34,3.63,2.13,4.14,0c-1.38-4.68-3.48-9.13-6.91-11.06
							c-2.84-2.57-6.99-2.04-8.51,3.37c-0.7,6.2,2.18,13.6,6.53,19.61c0.94,2.36,2.24,6.27,1.65,9.79c-2.33,1.37-4.66,0.8-6.59-1.33
							c0,0-6.37-4.96-6.37-6.04c1.69-11.24,0.4-12.52-0.57-15.63c-0.66-4.29-2.62-5.69-4.22-8.62c-1.58-1.75-3.75-1.75-4.78,0
							c-2.82,5.09-1.49,15.93,0.52,20.79c1.49,4.48,3.72,7.31,2.68,7.31c-0.89,2.54-2.7,1.94-4-0.98
							c-1.88-6.04-2.25-15.03-2.25-19.07c-0.57-5.05-1.2-15.76-4.4-18.5c-1.93-2.73-5.26-1.56-5.82,1.11
							c-1.03,4.85-0.55,10.03,0.32,14.56c1.59,8.21,2.86,15.16,3.92,23.42c0.31,11.06-6.16,4.8-5.87-0.7
							c1.49-7.09,1.1-18.31-0.23-21.17c-1.04-2.83-2.28-3.53-4.84-3.05c-2.01-0.16-7.25,5.76-8.71,15.58c0,0-1.26,5.02-1.78,9.5
							c-0.72,5.09-3.94,8.65-6.19-0.69c-1.95-6.8-3.14-23.52-6.41-19.61C125.8,208.21,124.66,231.22,135.39,233.57z"/>
						<path class="st15" d="M154.89,243.1c-10.66,0.23-26.27,14.52-26.67,22.47c11.25-5.63,22.29-11.03,33.72-16.81
							C160.1,245.9,161.82,243.33,154.89,243.1z"/>
						<path class="st15" d="M213.69,286.01c4.63-15.95-0.06-27.99,1.48-29.49c0,0,0.05,0,0.06,0c0-0.03,0.06-0.03,0.06-0.06h0.08
							c0.06-0.03,0.15-0.06,0.15-0.06c5.75,6.39,13.72,0.83,15.48-1.37c0.75-1.11,2.62-1.81,3.95-0.38
							c4.43,3.3,12.22,1.75,13.84-4.1c0.95-5.69,1.72-11.57,1.93-17.67c-2.91,0.92-5.21,1.59-6.17,2.64
							c-0.22,0.25-0.39,0.54-0.45,0.85c-0.23,1.69-0.49,3.37-0.74,5.05c-0.01,0.13-0.08,0.29-0.15,0.39
							c-0.09,0.22-0.31,0.41-0.54,0.54c-1.03,0.57-2.77,0.23-2.88-1.3c-1.36-6.48-7.07-7.38-10.5,2.7
							c-2.31,1.97-6.53,2.32-6.96-0.58c0.55-6.77-2.07-7.65-7.33-4.48c-1.67-13.38-3.37-26.16-5.06-39.51
							c2.19-0.06,4.2,1.62,6.19-0.98c-2.18-6.99-6.75-21.23-9.32-22.56c0,0-0.03,0-0.06,0c-0.11-0.16-0.26-0.32-0.37-0.41
							c-0.04-0.06-0.12-0.1-0.18-0.13c-0.03-0.03-0.12-0.09-0.17-0.12c-0.11-0.03-0.23-0.1-0.32-0.13
							c-0.24-0.06-0.49-0.12-0.72-0.06c-0.66,0.06-1.33,0.47-2.16,0.67c-2.76,0.89-5.35,3.34-4.53,8.17
							c3.25,20.5,5.36,36.13,8.63,56.63c0.5,2.41-1.43,5.6-3.94,5.27c-4.26-2.98-5.3-9.06-12.58-8.77
							c-5.26,0.06-11.27,5.98-12.03,11.7c-0.86,4.55-1.19,9.47,0,13.41c3.7,4.61,8.17,4.16,12.03,3.11c3.2-1.37,5.82-4.68,6.95-3.88
							h0.03v0.03c0.69,1.27-0.09,11.95-15.05,20.18c-9.2,4.29-16.53,5.31-20.45-2.48c-2.45-4.9,0.19-23.39-5.82-19.13
							c-17.78,47.51,41.64,54.12,48.25,1.93c0.43-1.46,1.75-2.92,2.7-2.57c0.4,0.19,0.75,0.76,0.89,1.82
							c-1.39,47.26-45.95,50.46-53.53,35.62c-1.9-3.49-2.45-11.28-2.64-15.95c-0.35-2.83-1.04-4.48-1.82-5.12
							c-1.79-1.4-4.25,2.26-4.77,8.64c-0.75,5.12-0.53,6.55-0.53,11.47C146.98,332.89,204.37,316.8,213.69,286.01z M191.54,253.72
							v0.03c0,0.03-0.02,0.06-0.05,0.06c-0.43,0.63-1.99,0.38-3.13,0.38c-1.35-0.06-1.99-0.32-2.81-1.46
							c-0.38-1.27,0.75-2.52,1.29-3.47c0,0,0.01,0,0.04,0c0.03-0.1,0.12-0.23,0.22-0.32c0.4-0.38,1.13-0.73,1.88-0.83
							c1.15-0.16,2.47,0.29,3.14,2.04C192.66,251.56,192.17,252.99,191.54,253.72z"/>
						<path class="st15" d="M218.86,211.39c0,0,0.01,0,0.05,0c0,0,0.03,0.03,0.03,0.06c0,0,0-0.03,0.03,0h0.03
							c0.84,0.6,11.22,0.6,12.37,0.06c0.01-0.03,0.01-0.06,0.01-0.06h0.06c3.57-1.4,20.48-21.45,20.48-21.45
							c-0.86-0.8-1.66-1.33-2.54-2.13c-0.95-0.83-0.86-1.65,0-2.51c4.18-2.54,2.85-8.11,0.67-10.65c-1.81-0.83-3.53-1.11-5.06-1.02
							c-1.53,0.06-2.9,0.51-4.05,1.14c-2.94,2.92-3.63,7.6-1.3,10.52c2.24,1.08,4.49,3.47,2.99,4.74
							c-6.37,7.06-22.96,18.88-23.82,21.04c0,0-0.01,0.03-0.01,0.06c0,0,0,0.03,0,0.06v0.03l0.01,0.06
							C218.84,211.35,218.86,211.39,218.86,211.39z M243.98,179.95c0.06-0.03,0.12-0.06,0.2-0.06c1.05-0.1,2.29,0.89,2.91,2.29
							c0.66,1.46,0.32,2.89-0.75,3.18c-1.07,0.25-2.45-0.73-3.1-2.22C242.6,181.64,242.92,180.21,243.98,179.95z"/>
						<path class="st15" d="M134.23,301.77c-2.8,5.88-3.98,1.84-4.22-1.46c-0.43-6.26,0.14-11.98,0.78-16.56
							c0.7-4.67,0-3.24-1.44-1.37c-6.33,10.49-6.87,26.13-3.37,30.79c1.87,2.19,4.91,3.18,7.16,2.48c4-1.81,5.73-10.17,4.78-13.22
							C136.59,300.28,135.55,299.93,134.23,301.77z"/>
						<path class="st15" d="M343.03,191.08c7.43,10.36,14.55,20.76,21.46,31.53c1.09,7.99,1.9,15.84,2.42,23.64
							c1.1,17.1,1.47,38.36,0.43,56.38c3.09,0.12,8.06-5.18,9.81-12.94c1.13-10.74-0.43-32.64-0.52-38.99
							c-0.08-2.63-0.21-5.69-0.39-8.97c8.03,13.61,15.83,27.99,23.49,43.83c2.77-1.36,2.16-17.64,0.54-19.92
							c-6.12-13.66-14.61-27.2-17.29-32.38c-0.99-1.89-4.3-7.12-8.25-13.18c-0.72-8.62-1.49-15.86-1.99-18.06
							c-1.29-9.09,3.6,0.98,2.94-4.33c-1.59-9.06-6.47-15.22-12.17-23.55c-1.84-2.7-1.78-3.27-4.63,0.67
							c-1.7,3.99-1.67,7.3-1.18,10.4c-0.75-1.13-1.69-2.43-3.02-4.08c-4.93-4.38-5.21-4.67-9.32-8.23
							c-2.07-1.53-7.13-4.29-8.02,0.29c-0.46,4.06-0.2,6.29,0.45,9.66C338.29,185.1,341.47,188.89,343.03,191.08z M358.76,190.43
							c0.19,0.87,0.36,1.75,0.48,2.65c0.42,1.91,0.75,3.74,1.14,5.62c-1.66-2.37-2.93-4.11-3.52-4.8
							C353.18,189.37,356.95,190.94,358.76,190.43z"/>
						<path class="st15" d="M402.01,289.79c-7.14,7.72-17.44,17.23-28.65,21.61c-1.21,1.4,2.97,7.4,8.41,7.37
							c9.09-1.08,17.08-6.35,24.49-20.31c1.96-3.25,5.46-10.21,5.55-15.58c0.7-31.62-1.52-56.19-6.07-79.01
							c-0.31-2.26-0.12-4.86,0.23-5.53c0.6-0.73,2.59,0,3.65-1.81c1.55-1.62-4.12-15.25-7.35-20.5c-1.15-2.35-1.55-3.91-3.45,0.29
							c-2.01,3.4-3.34,9.34-3.19,14.87c4.32,31.12,5.66,58.32,8.49,89.43C404.36,283.66,403.95,288.01,402.01,289.79z"/>
						<path class="st15" d="M521.56,203.57c-0.29-2.22-1.24-7.34-0.87-8.04c0.58-1.53,3.54,0.19,4.6-1.62
							c1.56-1.62-7.66-13.92-10.89-19.17c-1.17-2.35-1.55-3.91-3.46,0.29c-1.99,3.37-2.7,9.47-1.89,14.87
							c4.8,33.78,8.4,66.45,9.15,96.42c-0.43,2.86-0.52,4.39-1.81,7.95c-2.85,3.78-6.01,8.51-8.95,10.8
							c-2.95,2.26-9.27,4.45-11.31,6.13c-6.53,3.91-6.53,8.42-1.26,8.58c9.07-1.11,19.84-1.88,27.22-13.48
							c1.99-3.24,4.33-12.04,4.45-17.41C527.22,257.31,526.14,226.39,521.56,203.57z"/>
						<path class="st15" d="M452.83,237.2c0.06-4.36,0.47-10.07,0.72-13.67c0.09-1.36,0.39-2.83,1.66-3.21
							c1.22-0.32,3.42,1.34,3.46-0.06c-0.24-2.76-0.78-6.83-2.27-8.77c-2.08-3.11-7.53-2.35-8.46,2.57c0,1.82,0.82,2.8,0.67,4.45
							c-0.25,0.96-1.2,1.59-3.43,0.48c0.35-0.35-1.44-2.96-1.44-2.96c-1.75-1.11-4.1,0.06-5.62,1.05c-0.83,1.59-1.44,4.26-0.49,7.03
							C440.15,228.9,448.72,237.1,452.83,237.2z"/>
						<path class="st15" d="M449.93,194.57c6.02,7.67,12.19,15.84,18.37,24.36c1.28,17.36,1.66,33.26,2.96,50.65
							c-0.2,7.41-2.42,17.29-4.52,18.21c0,0-3.17,1.94-5.29-0.19c-1.56-0.63-7.79-10.71-7.79-10.71c-3.16-3.05-5.27-2.17-7.54,0
							c-6.22,6.23-9.02,17.89-13.26,25.96c-1.12,1.78-4.19,3.31-7.6-0.15c-7.18-10.14-4.97-23.83-4.59-25.76
							c-0.02,0.12-0.05,0.24-0.1,0.46c-7.73,9.02-4.33,23.99-2.57,27.23c2.55,5.25,4.6,8.64,9.57,11.25
							c4.51,3.5,8.03,1.33,9.98-1.11c4.54-4.9,4.61-17.36,6.73-19.83c1.5-4.52,5.27-3.75,7.11-1.75c1.78,2.63,3.86,4.35,6.47,5.78
							c4.23,3.87,9.29,4.57,14.29,1.05c3.4-1.97,5.64-4.55,7.62-9.6c2.14-5.95,1.09-36.98,0.59-54.35c3.19,4.66,6.36,9.39,9.5,14.21
							c1.38,15.2,2.06,30.2,1.61,44.56c-0.34,2.86,9.61-8.52,9.53-13.92c-0.05-4.67,0-8.93-0.01-12.89
							c4.81,7.96,9.47,16.04,13.86,24.23c2.74-1.5,1.84-17.55,0.09-19.77c-4.55-7.92-10.55-16.69-15.09-23.37
							c-0.9-8.45-2.16-18.56-2.72-21.6c-0.89-4.77-1.73-11.92-3.05-17.61c-0.38-2.19-1.48-9.28-1.13-9.98
							c0.54-1.59,2.59,0.06,3.59-1.78c1.49-1.68-5.2-19.67-8.6-24.78c-1.23-2.32-3.47-1.53-6.16,2.22
							c-2.54,2.45-1.63,8.04-0.65,13.41c2.52,13.62,4.78,27.49,6.56,41.32c-3.28-5.05-7.37-11.26-11.29-17.14
							c-0.3-1.57-0.49-2.61-0.49-2.65c0-0.25-0.54-11.15-1.03-13.76c-0.09-1.04-0.32-1.37,0.74-1.24c1.13,1.02,1.29,1.08,1.99,1.4
							c1.14,0.23,2.16-1.81,1.47-3.65c-3.52-6.77-7.05-13.51-10.58-20.25c-0.86-0.89-1.96-1.82-3.31,0.25
							c-1.27,1.18-2.63,3.27-2.62,6c0.32,4.8,1.13,9.7,1.45,14.5c0.11,0.63,0.22,1.28,0.33,1.91c-0.5-0.66-0.92-1.2-1.17-1.47
							c-9.01-9.79,4.15-1.59-1.72-9.18c-4.98-5.63-6.41-7.41-10.67-10.8c-2.13-1.4-3.41-4.13-4.1,0.5
							c-0.29,4.07-0.6,8.81-0.31,12.24C446.37,188.89,448.29,192.45,449.93,194.57z"/>
						<path class="st15" d="M465.55,433c-2.65,0.38-10.07,1.17-10.07,1.17c-8.6-1.05-14.93-1.17-24.59-1.55
							c0.89-1.18,2.45-5.91,0.55-7.66c-0.52-0.41-1.26-0.67-2.3-0.57h-0.07c0,0-0.03,0-0.06,0l-0.02-0.03c0,0-0.09,0-0.11-0.03
							c-0.04-0.03-0.12-0.13-0.19-0.19c0,0-0.03-0.03-0.06-0.06c-0.48-0.74-0.77-2.54-1.08-3.03h-0.03l-0.03-0.06l-0.08-0.03h-0.02
							h-0.06l-0.01,0.03c-6.41,1.72-6.21,8.61-2.08,11.64c-67.55,0-171.2-1.21-193.43-1.21c-12.45,0-51.78-1.53-52.53-1.53
							c8.43,12.78,20.65,15.38,36.64,15.64c30.01,0,169.03-0.38,208.57-0.38c-2.81,5.18,0.25,13.51,2.47,15.03
							c0.04,0.03,0.1,0.1,0.15,0.13c0.07,0.03,0.2,0.06,0.29,0.1c0.02,0,0.06,0,0.06,0c2.64,0.64,3.8-1.33,4.69-2.76
							c4.23,0.38,28.14,0.76,30.33-0.03l0.05-0.03c1.47,2.26,2.94,4.38,5.75,4c4.92-1.08,8.81-1.62,8.95-12.01
							C477.26,449.55,476.76,431.88,465.55,433z M460.72,451.93c-0.03,0.03-0.12,0.07-0.15,0.07h-0.14c-0.05,0-0.11,0-0.11,0
							c-3.25-0.1-5.09-0.16-8.3-0.25c0-0.16-0.02-0.32-0.07-0.47c-0.76-2.35-6.25-2.19-7.54-0.35c0,0.03-0.07,0.06-0.08,0.1
							c-0.01,0.03-0.04,0.12-0.06,0.12c-0.02,0.06-0.05,0.16-0.08,0.19c-0.02,0.06-0.02,0.19-0.02,0.25
							c-0.01,0.1-0.05,0.19-0.05,0.25c-4.32,0.54-8.2-0.13-12.54-0.32c-1.27-1.62-1.12-4.57,0.37-5.3c0,0,0.02,0.03,0.03,0
							c9.87,0.51,19.11,0.12,28.97,0.61C462.53,448.22,461.75,451.37,460.72,451.93z"/>
						<path class="st15" d="M267.42,223.18c5.16,2.19,8.48-8.01,10.59-19.23c1.46-3.12,2.55-3.47,3.28-1.85
							c-0.17,14.91,1.05,18.18,4.74,22.69c8.23,6.58,15.05,0.86,15.57,0.32c0.54-0.58,6.42-6.68,6.42-6.68
							c1.41-1.55,3.33-1.65,5.33-0.29c1.96,1.84,1.69,5.05,5.87,7.25c3.54,1.49,11.08,0.35,12.83-2.8c2.36-4.19,2.91-5.59,4-7.21
							c1.7-2.32,4.55-1.27,4.55-0.54c-0.27,1.3-1.94,2.57-0.81,4.92c1.99,1.55,2.47,0.54,3.64,0.19c4.17-2.07,7.31-11.48,7.31-11.48
							c0.18-3.53-1.72-3.24-2.94-2.5c-1.59,1.01-1.7,1.33-3.31,2.38c-2.04,0.29-5.98,1.68-7.97-1.46
							c-1.99-3.78-2.03-9.06-3.53-12.84c0-0.28-2.68-6-0.21-6.39c1.26,0.23,3.92,0.99,4.33-1.33c1.33-2.29-2.79-8.71-5.6-11.92
							c-2.43-2.8-5.81-3.11-9.07-0.29c-2.28,2.2-1.95,4.61-2.41,6.93c-0.58,2.67-0.46,5.91,2.15,9.41
							c2.27,4.67,6.42,10.68,5.06,19.1c0,0-2.42,4-6.67,3.49c-1.76-0.41-4.61-1.18-6.15-12.9c-1.15-8.87,0.26-21.26-3.37-27.08
							c-1.29-3.49-2.26-6.9-5.44-0.89c-0.87,2.35-4.54,5.94-1.87,13.31c2.16,4.64,3.07,12.23,2.09,20.69
							c-1.52,2.38-1.87,3.2-3.85,5.63c-2.77,3.08-5.82,2.28-8.12,1.14c-2.16-1.53-3.86-2.29-4.86-7.09
							c0.17-7.69,0.6-20.21-0.75-22.88c-1.99-4.13-5.29-2.64-6.68-1.4c-6.75,6.39-10.07,17.16-12.11,25.74
							c-1.87,6.27-3.86,4.48-5.26,1.97c-3.42-3.31-3.63-29.18-7.74-24.95C249.86,203.88,260.23,225.24,267.42,223.18z"/>
						<path class="st15" d="M365.38,265.41c0.01,0,0.03,0,0.03-0.03l0.03-0.03c0.03-0.03,0.05-0.03,0.05-0.03v-0.07
							c0-0.1,0-0.19-0.05-0.32l-1.96-1.2l-38.53-0.19c-0.49-0.16-0.86-0.39-1.07-0.54c0-0.03-0.03-0.06-0.03-0.06
							c-0.03-0.03-0.06-0.06-0.06-0.06h-0.03c0-0.03-0.03-0.1-0.03-0.1l-0.03-0.03v-0.03l-0.04-0.03v-0.06v-0.06v-0.07v-0.03v-0.03
							v-0.03l0.04-0.03c0-0.03,0.02-0.07,0.02-0.07c0.2-0.28,0.67-0.54,1.24-0.76c9.2-1.31,25.56-4.07,26.64-20.38
							c-0.17-8.49-3.53-14.04-13.58-15.6c-7.37,0.6-12.63,8.04-11.77,16.17c-0.37,2.19,0.7,6.48-1.47,6.99
							c-14.16,1.33-29.62,10.52-30.13,17.13h-0.05h-0.02c0,0-0.06,0.03-0.06,0.06h-0.09c-0.03,0-0.06,0.03-0.06,0.03s-0.05,0-0.06,0
							h-0.08h-0.04h-0.06l-0.12-0.03c-0.92-0.28-2.09-1.84-1.92-4.06c-0.52-11.38-4.11-24.25-9.71-34.16
							c-2.01-2.07-2.88-2.89-3.43-2.99h-0.06h-0.12c0,0-0.01,0-0.03,0h-0.03h-0.03c-0.06,0.03-0.12,0.07-0.19,0.1
							c-0.03,0-0.06,0.07-0.06,0.07c-0.46,0.32-1.01,1.08-2.13,1.93c-1.93,2.29-2.26,3.88-2.16,8.42
							c0.12,0.47,3.65,10.74,6.68,17.92c2.02,7.5,3.92,16.08,2.54,24.19c-4.77,10.68-14.35,20.28-23.55,25.52
							c-4.72,1.53-8.77,1.02-9.84-0.06l-0.03-0.03c-2.7-1.87-2.77-5.24-2.62-5.78v-0.06h0.04c7.77-5.65,16.71-10.2,23.64-25.36
							c2.07-5.78,2.7-9.28,0.66-18.27c-0.81-3.31-1.82-6.07-4.02-8.42c0,0,0.05-0.03,0.05-0.06c1.32-0.63,4.75,2,5.3,0.32
							c-0.83-4.26-3.62-10.01-6.77-12.96c-2.76-2.61-5.79-2.89-8.32-0.51c-2.86,1.65-3.48,7.56-2.1,12.78
							c1.5,3.87,5.66,4.54,8.59,12.43v0.03c0.08,0.48,1.01,5.88-0.46,8.07c-1.2,3.88-16.68,16.49-17.75,17.25
							c-0.03,0-0.06,0.03-0.06,0.07c0,0-0.03,0.03-0.05,0.06h-0.02l-0.06,0.06h-0.01h-0.05c0-0.03-0.01-0.06-0.01-0.06h-0.01
							c0-0.03-0.03-0.1-0.03-0.1c-0.04-0.32,0.05-1.14,0-2.45c-0.11-2.35,0.83-7.69,0.74-8.61v-0.06h-0.01v-0.07h-0.05
							c-5.1,3.43-6.77,13.89-7.71,17.01c-12.92,9.25-27.58,16.17-36.04,25.52c-4.4,7.15,30.32-8.17,34.37-10.01
							c0.05,0,0.09,0.06,0.11,0.1c0.75,0.89,0.83,3.91,3.13,6.68c3.6,5.05,11.26,8.2,18.72,6.26c12.54-4.7,19.77-13.54,27.1-23.36
							c1.04-1.59,2.7-2.8,4.22-1.59c5.04,11.72,19.59,20.02,38.4,20.88c4.35-5.46,2.27-8.16,0.52-9.31
							c-0.55-0.38-9.34-3.94-10.7-7.47c-0.87-3.3,1.2-6.22,5.39-8.42c12.08-1.52,23.96-3.24,35.44-7.05
							c0.12-4.01,2.39-9.98,3.92-12.58C364.44,265.86,365.13,265.67,365.38,265.41z M333.61,240.37c0.01-0.13,0.08-0.25,0.14-0.35
							c0.01-0.03,0.03-0.1,0.06-0.16h0.03c0.06-0.1,0.12-0.16,0.19-0.19c0.25-0.19,0.58-0.35,0.98-0.38c0.84-0.1,1.93,0.19,3,0.82
							c1.53,0.92,2.46,2.29,2.33,3.3c0,0.03,0,0.1,0,0.13c0,0-0.02,0.1-0.03,0.1c0,0.03-0.03,0.06-0.03,0.1
							c-0.03,0.03-0.04,0.06-0.04,0.06c0,0.03-0.01,0.06-0.01,0.1c-0.06,0.06-0.15,0.16-0.21,0.25c-0.74,0.69-2.44,0.6-4.05-0.35
							c-1.52-0.96-2.49-2.32-2.39-3.34C333.59,240.46,333.61,240.41,333.61,240.37z M318.2,280.38c-4.11,1.46-8.09,2.61-8.12,8.8
							c0.55,3.09,0.45,4.7-0.03,5.44c-0.03,0.06-0.09,0.12-0.12,0.19c0,0-0.03,0-0.03,0.03l-0.05,0.03c0,0.03-0.02,0.03-0.02,0.03
							l-0.05,0.03c-0.02,0.03-0.08,0.03-0.08,0.03c-0.06,0.07-0.15,0.1-0.21,0.13c-0.03,0.03-0.12,0.03-0.12,0.03
							c-1.05,0.16-2.49-0.85-3.54-1.4c-2.53-1.94-9.7-6.48-10.73-16.37c-0.14-2.23,1.45-4.17,4.03-4.32c0.14-0.03,0.24,0,0.38,0
							h0.06c4.31,1.2,10.62,1.3,16.11,1.87C320.16,275.23,322.4,278.86,318.2,280.38z"/>
						<path class="st15" d="M175.31,184.6c4.46,2.19,12.8,1.27,12.45-6.17c0-0.63-0.17-2.89-0.25-3.46
							c-0.89-2.19-3.36-1.66-3.92,0.6c-0.17,0.76,0.31,1.93-0.32,2.32c-0.37,0.38-1.79,0.16-1.73-1.88c0-0.67-0.46-1.36-0.74-1.77
							c-0.29-0.19-0.46-0.25-0.98-0.25c-0.61,0.03-0.61,0.19-0.93,0.73c-0.15,0.54-0.35,1.08-0.35,1.71
							c-0.09,0.74-0.34,0.98-0.86,1.11c-0.58,0-0.44,0.06-0.92-0.25c-0.27-0.32-0.63-0.45-0.63-0.98c0-0.54-0.11-1.46-0.29-1.84
							c-0.23-0.32-0.61-0.47-1.07-0.6c-2.44,0-2.11,2.94-2.45,3.97C172.22,178.08,172.01,183.2,175.31,184.6z"/>
						<path class="st15" d="M305.41,241.71c4.45,2.16,15.01,0.92,12.45-6.17c0-0.67-0.18-2.89-0.24-3.49
							c-0.89-2.16-3.36-1.65-3.93,0.63c-0.18,0.74,0.32,1.91-0.34,2.32c-0.36,0.38-1.79,0.12-1.72-1.91c0-0.66-0.46-1.33-0.75-1.77
							c-0.29-0.19-0.44-0.25-0.97-0.25c-0.61,0.03-0.61,0.22-0.95,0.76c-0.15,0.54-0.34,1.08-0.34,1.68
							c-0.09,0.74-0.35,1.02-0.87,1.09c-0.57,0-0.43,0.09-0.91-0.23c-0.29-0.32-0.64-0.44-0.64-0.98c0-0.54-0.09-1.46-0.28-1.82
							c-0.25-0.34-0.63-0.5-1.07-0.6c-2.45,0-2.61,2.86-2.47,3.94C302.23,235.13,302.12,240.24,305.41,241.71z"/>
						<path class="st15" d="M381.29,218.06c4.43,2.19,12.78,1.27,12.42-6.16c0-0.67-0.15-2.86-0.22-3.47
							c-0.9-2.19-3.37-1.65-3.92,0.61c-0.19,0.73,0.31,1.94-0.34,2.32c-0.36,0.39-1.79,0.16-1.71-1.9c0-0.63-0.49-1.33-0.77-1.75
							c-0.26-0.19-0.46-0.25-0.95-0.25c-0.64,0.03-0.61,0.19-0.97,0.73c-0.14,0.57-0.35,1.11-0.35,1.72
							c-0.06,0.73-0.32,0.98-0.84,1.08c-0.58,0-0.45,0.1-0.91-0.22c-0.28-0.32-0.64-0.45-0.64-0.99c0-0.57-0.12-1.46-0.28-1.84
							c-0.26-0.32-0.64-0.47-1.08-0.61c-2.45,0.03-2.6,2.9-2.45,3.98C378.07,211.51,377.99,216.63,381.29,218.06z"/>
						<path class="st15" d="M420.68,276.94C420.75,276.63,420.74,276.64,420.68,276.94L420.68,276.94z"/>
						<path class="st15" d="M384.26,189.3c1.6,4.61-1.2,8.96,0.46,9.63c1.52,0.7,3.62-4.77,4.43-9.79c0.9-4.1-1.89-12.43-5.87-14.14
							c-2.45-0.61-5.89,0.85-4.75,4.26C377.98,180.85,383.4,186.31,384.26,189.3z"/>
						<path class="st15" d="M425.2,296.97c3.08,0,6.67-7.34,8.19-14.61c0.83-10.01-0.6-16.15-0.83-22.06
							c-0.26-5.85-6.42-53.65-7.68-58.12c-1.53-8.42,6.01-1.11,5.18-6.01c-2.61-6.2-9.08-15.22-11.11-20.56
							c-1.21-2.29-0.69-4.35-3.45-0.6c-2.51,8.58-3.42,15.6-2.43,20.97C419.58,231.25,426.27,263.41,425.2,296.97z"/>
						<path class="st15" d="M502.23,202.45c0.72,2.29-1.09,9.7,0.41,10.4c1.4,0.76,3.3-5.12,4.03-10.58
							c0.4-3.02-1.73-13.44-5.36-15.32c-2.21-0.67-5.33,0.96-4.32,4.57C496.47,193.3,501.43,199.22,502.23,202.45z"/>
						<path class="st15" d="M233.19,282.45c1.3,0.54,3.16-3.79,3.85-7.79c0.38-2.22-1.65-9.88-5.14-11.25
							c-2.11-0.47-5.03,0.1-4.11,3.37c-0.12,1.78,4.69,3.91,4.98,8.01C233.47,276.48,231.73,281.91,233.19,282.45z"/>
						<path class="st15" d="M139.75,184.31c0.68,1.75-0.67,7.41,0.74,7.92c1.3,0.6,3.1-3.91,3.8-8.04
							c0.37-2.32,0.06-10.11-5.03-11.7c-2.11-0.47-4.05,0.56-4.09,3.53C135.14,177.42,138.98,181.83,139.75,184.31z"/>
						<path class="st15" d="M240.27,209.26c-3.93,2.19-5.46,8.74-3,12.58c2.28,3.34,5.89,2.1,6.38,2.1c3.83,0.5,6.11-7.48,6.11-7.48
							s0.14-2.26-4.46,2c-1.9,0.39-2.15-0.38-2.62-1.49c-0.41-2.06-0.32-4.16,0.6-6.22C243.96,208.75,242.46,207.89,240.27,209.26z"
							/>
						<path class="st15" d="M269.85,184.72c1.44-1.08,1.93-1.84,2.42-3.68c0.61-3.12-3.16,1.46-3.65-2.01
							c-0.84-3.2,1.6-4.51,3.86-7.66c0.06-2.09,0.03-3.62-2.77-1.91c-1.98,1.37-5.9,5.6-6.02,10.46c-0.12,2.73-0.62,2.73,1.12,4.48
							C266.07,186.28,267.32,186.12,269.85,184.72z"/>
						<path class="st15" d="M296.49,186.41c2.54-7.15,2.54-10.17,2.71-13.22c-0.78-4.61-3.8-4.45-5.78,0.67
							c-0.84,1.94-1.87,12.11-1.69,12.11C291.04,188.98,294.81,190.28,296.49,186.41z"/>
						<path class="st15" d="M464.06,237.07c0,0-20.57,15.13-21.09,15.67c-2.05,1.87-1.01,8.51,0,7.75
							c1.47,0.61,22.15-13.98,21.77-15.7C465.69,244.88,466.15,236.3,464.06,237.07z"/>
						<path class="st15" d="M461.52,278.16c1.38,0.76,5.01-3.88,4.88-9.7c0.4-2.98-1.04-13.98-4.66-15.86
							c-2.21-0.63-5.2,1.31-4.15,4.96c-0.52,1.75,2.54,7.85,3.36,11.09C461.67,270.97,460.02,277.49,461.52,278.16z"/>
						<path class="st15" d="M345.02,310c0,0.16,1.75,1.72,3.79,0.48c4.31-1.68,7-3.37,13.03-4.7c1.58-0.07,1.49-4.45-1-4.61
							c-3.28,0.19-6.3,0.35-9.56,3.02c-2.03,0.47-2.33-0.8-2.78-1.91c-0.52-2.83,1.11-4.8,0.75-6.92c0.14,0.16-1.87-1.75-3.89-0.7
							c-0.09,0-4.52,3.12-5.93,5.31c-0.9,0.67-0.81,1.27-0.52,2.45c0.66,1.62,1.85,1.14,3.24,0.34c1.81-0.22,2.66,0.99,2.51,3.25
							C343.83,308.8,345.02,309.81,345.02,310z"/>
						<path class="st15" d="M493.94,308.89c-0.85-0.98-2.74-0.41-4.02-0.57c-0.61,0-2.59-0.32-1.64-2.12
							c0.8-1.11,1.07-1.82,1.62-3.21c0.58-1.37,0.08-2.29-2.08-3.05c-2.22-0.41-3.09-0.19-5.55,0c-1.31,0.29-1.75,0.92-1.99,2.58
							c0.09,2.51,1.56,2.35,3.08,3.37c0.89,1.14,1.45,2.22-0.08,4.16c-1.42,1.37-2.45,2.1-3.89,3.47c-0.68,1.24-1.11,3.05,0.98,3.62
							c3.83,1.11,12.72-4.86,12.72-4.99C494.54,311.02,494.07,308.89,493.94,308.89z"/>
					</g>
				</g>
			</g>
		</g>
	</g>
	<circle class="st16" cx="325.28" cy="315.17" r="304.94"/>
</g>
</svg>
