<?xml version="1.0" encoding="utf-8"?>
<!-- Generator: Adobe Illustrator 28.2.0, SVG Export Plug-In . SVG Version: 6.00 Build 0)  -->
<svg version="1.1" id="Layer_1" xmlns="http://www.w3.org/2000/svg" xmlns:xlink="http://www.w3.org/1999/xlink" x="0px" y="0px"
	 viewBox="0 0 9.1 11" style="enable-background:new 0 0 9.1 11;" xml:space="preserve">
<style type="text/css">
	.st0{fill:#141416;}
	.st1{fill:#FFFFFF;}
</style>
<path class="st1" d="M6.4,8V3.2c0,0,0.6,0.9,2.6,0.9c0,0,0.1,0,0.1-0.1l0-1.6c0,0,0-0.1-0.1-0.1c-1.6,0-2.4-1.3-2.4-2.4
	c0,0,0-0.1-0.1-0.1L4.8,0c0,0-0.1,0-0.1,0.1l0,7.8c0,0.5-0.3,1-0.8,1.3c-1.4,0.7-2.7-0.6-2.1-2C2,6.8,2.3,6.5,2.6,6.4
	c0.3-0.1,0.6-0.1,0.9-0.1c0,0,0.1,0,0.1,0c0-0.3,0-1.4,0-1.6c0,0,0,0,0-0.1c-0.5,0-1,0-1.5,0.2C1.2,5,0.5,5.7,0.2,6.6
	c-0.8,2.3,0.8,4.4,3,4.4C5,11,6.4,9.5,6.4,7.8"/>
</svg>
