<?xml version="1.0" encoding="utf-8"?>
<!-- Generator: Adobe Illustrator 28.1.0, SVG Export Plug-In . SVG Version: 6.00 Build 0)  -->
<svg version="1.1" id="Layer_1" xmlns="http://www.w3.org/2000/svg" xmlns:xlink="http://www.w3.org/1999/xlink" x="0px" y="0px"
	 viewBox="0 0 576.5 148" style="enable-background:new 0 0 576.5 148;" xml:space="preserve">
<style type="text/css">
	.st0{clip-path:url(#SVGID_00000065062272275269055580000012064033558904356247_);}
	.st1{fill:#FFFFFF;}
	.st2{fill:#333333;}
	.st3{fill:url(#SVGID_00000169520148384719553620000002548800729314343596_);}
	.st4{fill:url(#SVGID_00000125591256001563353090000007690935549422827929_);}
	.st5{fill:url(#SVGID_00000018218439513975429390000015272045137671870110_);}
	.st6{fill:url(#SVGID_00000158749659103454500550000006397613173352045225_);}
</style>
<g>
	<g>
		<g>
			<g>
				<g>
					<defs>
						<rect id="SVGID_1_" x="37.4" y="595.3" width="451.2" height="451.2"/>
					</defs>
					<clipPath id="SVGID_00000045585071028389805310000008259253150001484726_">
						<use xlink:href="#SVGID_1_"  style="overflow:visible;"/>
					</clipPath>
					<g style="clip-path:url(#SVGID_00000045585071028389805310000008259253150001484726_);">
						<path class="st1" d="M150.6,465.4l0.8,0.8h4.6l-5.4-5.4V465.4z M150.6,456.2l9.9,10h4.6l-14.5-14.5L150.6,456.2L150.6,456.2z
							 M150.6,447.1l19.1,19.1h4.6l-23.6-23.7L150.6,447.1L150.6,447.1z M150.6,438l28.2,28.2h4.6l-32.8-32.8L150.6,438L150.6,438z
							 M150.6,428.8l37.3,37.3h4.6l-41.9-41.9V428.8z M150.6,419.7l46.5,46.5h4.6l-51.1-51L150.6,419.7L150.6,419.7z M150.6,410.6
							l55.6,55.6h4.6L150.6,406V410.6z M150.6,401.4l64.8,64.8h4.6l-69.3-69.3L150.6,401.4L150.6,401.4z M150.6,392.3l73.9,73.9h4.6
							l-78.5-78.5L150.6,392.3L150.6,392.3z M152.9,385.4l78.5,78.5v-4.6l-73.9-73.9H152.9z M162,385.4l69.3,69.3v-4.6l-64.8-64.8
							H162z M171.1,385.4l60.2,60.2v-4.6l-55.6-55.6H171.1z M180.3,385.4l51.1,51v-4.6l-46.5-46.5L180.3,385.4L180.3,385.4z
							 M189.4,385.4l41.9,41.9v-4.6L194,385.4H189.4z M198.5,385.4l32.8,32.8v-4.6l-28.2-28.2L198.5,385.4L198.5,385.4z
							 M207.7,385.4l23.6,23.7v-4.6l-19.1-19.1H207.7z M216.8,385.4l14.5,14.5v-4.6l-10-10L216.8,385.4L216.8,385.4z M225.9,385.4
							l5.4,5.4v-4.6l-0.8-0.8H225.9z"/>
						<path class="st1" d="M392.8,386.3l0.8-0.8h4.6l-5.4,5.4V386.3z M392.8,395.4l10-10h4.6L392.8,400L392.8,395.4L392.8,395.4z
							 M392.8,404.5l19.1-19.1h4.6l-23.6,23.7V404.5z M392.8,413.7l28.2-28.2h4.6l-32.8,32.8L392.8,413.7L392.8,413.7z M392.8,422.8
							l37.4-37.3h4.6l-41.9,41.9V422.8z M392.8,431.9l46.5-46.5h4.6l-51,51L392.8,431.9L392.8,431.9z M392.8,441.1l55.6-55.6h4.6
							l-60.2,60.2V441.1z M392.8,450.2l64.8-64.8h4.6l-69.3,69.3L392.8,450.2L392.8,450.2z M392.8,459.3l73.9-73.9h4.6l-78.5,78.5
							L392.8,459.3L392.8,459.3z M395.1,466.2l78.5-78.5v4.6l-73.9,73.9H395.1z M404.2,466.2l69.3-69.3v4.6l-64.8,64.8H404.2z
							 M413.4,466.2l60.2-60.2v4.6l-55.6,55.6H413.4z M422.5,466.2l51-51v4.6l-46.5,46.5L422.5,466.2L422.5,466.2z M431.6,466.2
							l41.9-41.9v4.6l-37.4,37.3H431.6z M440.8,466.2l32.8-32.8v4.6l-28.2,28.2L440.8,466.2L440.8,466.2z M449.9,466.2l23.6-23.7
							v4.6l-19.1,19.1H449.9z M459,466.2l14.5-14.5v4.6l-10,10L459,466.2L459,466.2z M468.2,466.2l5.4-5.4v4.6l-0.8,0.8H468.2z"/>
						<rect x="29.5" y="385.4" class="st1" width="40.4" height="80.7"/>
						<path class="st1" d="M231.3,466.2h80.7V463h-80.7V466.2z M231.3,459.7h80.7v-3.2h-80.7V459.7z M231.3,453.3h80.7V450h-80.7
							V453.3z M231.3,446.8h80.7v-3.2h-80.7V446.8z M231.3,440.3h80.7v-3.2h-80.7V440.3z M231.3,433.9h80.7v-3.2h-80.7V433.9z
							 M231.3,427.4h80.7v-3.2h-80.7V427.4z M231.3,421h80.7v-3.2h-80.7V421z M231.3,414.5h80.7v-3.2h-80.7V414.5z M231.3,408h80.7
							v-3.2h-80.7V408z M231.3,401.6h80.7v-3.2h-80.7V401.6z M231.3,395.1h80.7v-3.2h-80.7V395.1z M231.3,388.7h80.7v-3.2h-80.7
							V388.7z"/>
						<path class="st1" d="M473.5,388h-80.7l80.7,80.7V388z"/>
						<path class="st1" d="M69.8,385.4c0,21.4,8.5,42,23.6,57.1s35.7,23.7,57.1,23.7v-80.7L69.8,385.4L69.8,385.4z"/>
						<rect x="312.1" y="385.4" class="st1" width="80.7" height="40.4"/>
					</g>
				</g>
			</g>
		</g>
	</g>
</g>
<g>
	<g>
		<path class="st2" d="M190.1,25c0,4.1-1.2,7.4-3.7,9.9c-2.8,2.9-6.4,4.4-10.9,4.4c-4.3,0-7.9-1.5-10.9-4.4c-3-3-4.5-6.6-4.5-11
			s1.5-8.1,4.5-11c3-3,6.6-4.4,10.9-4.4c2.1,0,4.1,0.4,6.1,1.2c1.9,0.8,3.5,1.9,4.6,3.3l-2.6,2.6c-2-2.3-4.6-3.5-8.1-3.5
			c-3.1,0-5.8,1.1-8.1,3.3c-2.3,2.2-3.4,5-3.4,8.5s1.1,6.3,3.4,8.5s5,3.3,8.1,3.3c3.3,0,6.1-1.1,8.3-3.3c1.4-1.4,2.3-3.4,2.5-6
			h-10.7v-3.5h14.3C190.1,23.5,190.1,24.2,190.1,25z"/>
		<path class="st2" d="M212.9,12.6h-13.5V22h12.1v3.5h-12.1v9.4h13.5v3.6h-17.3V9h17.3V12.6z"/>
		<path class="st2" d="M228.9,38.5h-3.8V12.6h-8.3V9h20.3v3.6h-8.3V38.5z"/>
		<path class="st2" d="M251.8,38.5V9h3.8v29.6H251.8z"/>
		<path class="st2" d="M272.5,38.5h-3.8V12.6h-8.3V9h20.3v3.6h-8.3V38.5z"/>
		<path class="st2" d="M319.2,34.7c-2.9,3-6.5,4.5-10.8,4.5s-7.9-1.5-10.8-4.5c-2.9-3-4.4-6.6-4.4-11c0-4.3,1.5-8,4.4-11
			c2.9-3,6.5-4.5,10.8-4.5c4.3,0,7.9,1.5,10.8,4.5s4.4,6.6,4.4,10.9C323.6,28.1,322.1,31.7,319.2,34.7z M300.3,32.2
			c2.2,2.2,4.9,3.3,8,3.3s5.9-1.1,8-3.3c2.2-2.2,3.3-5,3.3-8.5s-1.1-6.3-3.3-8.5s-4.9-3.3-8-3.3s-5.8,1.1-8,3.3
			c-2.2,2.2-3.3,5.1-3.3,8.5S298.2,30,300.3,32.2z"/>
		<path class="st2" d="M328.9,38.5V9h4.6l14.4,23h0.2l-0.2-5.7V9h3.8v29.6h-4l-15-24.1h-0.2l0.2,5.7v18.4L328.9,38.5L328.9,38.5z"/>
	</g>
	<path class="st2" d="M292.2,81.7c-5.8,0-11.1,2.2-15,6c-3.8,3.7-6.1,8.9-6.1,15c0,6.4,2.6,11.9,6.8,15.6c3.8,3.4,8.7,5.3,14.2,5.3
		c5.1,0,9.9-1.8,13.5-4.8c4.6-3.8,7.5-9.5,7.5-16.2c0-5-1.6-9.4-4.2-12.9C305.2,84.8,299.1,81.7,292.2,81.7z M292.2,115.3
		c-6.4,0-11.8-5.2-11.8-12.7c0-7.5,5.5-12.7,11.8-12.7c6.4,0,11.8,5.2,11.8,12.7C304.1,110.1,298.6,115.3,292.2,115.3z M246.3,81.7
		c-4.4,0-8.4,1.2-11.8,3.4c-5.6,3.6-9.3,9.9-9.3,17.5c0,6,2.4,11.3,6.2,15c3.8,3.7,9.1,6,14.9,6c4.8,0,9.2-1.5,12.8-4.2
		c5-3.7,8.2-9.7,8.2-16.8c0-4-1-7.7-2.9-10.8C260.9,85.6,254.1,81.7,246.3,81.7z M246.3,115.3c-6.4,0-11.8-5.2-11.8-12.7
		c0-7.5,5.5-12.7,11.8-12.7c6.4,0,11.8,5.2,11.8,12.7C258.2,110.1,252.7,115.3,246.3,115.3z M191.7,88.1V97h11.1H213
		c-0.6,5-2.3,8.6-4.8,11.2c-3.1,3.1-7.9,6.5-16.4,6.5c-13.1,0-23.3-10.6-23.3-23.7s10.2-23.7,23.3-23.7c7.1,0,12.2,2.8,16,6.4
		l6.3-6.3c-5.3-5.1-12.4-9-22.3-9c-6.1,0-11.9,1.7-16.8,4.6c-9.6,5.7-16.2,16.1-16.2,27.9c0,12.2,7,22.9,17.1,28.5
		c4.7,2.6,10.2,4.1,15.9,4.1c9.7,0,17-3.2,22.7-9.1c5.9-5.9,7.7-14.1,7.7-20.8c0-2.1-0.2-4-0.5-5.6h-15.4L191.7,88.1L191.7,88.1z
		 M415,95c-1.8-4.7-7.1-13.3-17.9-13.3c-4.6,0-9,1.6-12.4,4.4c-4.5,3.7-7.4,9.5-7.4,16.6c0,11.8,8.9,21,20.8,21
		c9.6,0,15.2-5.9,17.5-9.3l-7.1-4.8c-2.4,3.5-5.6,5.8-10.3,5.8c-4.7,0-8-2.1-10.2-6.4l28-11.6L415,95z M386.5,102
		c-0.2-8.1,6.3-12.2,11-12.2c3.6,0,6.8,1.8,7.8,4.5l-9.8,4.1L386.5,102z M363.7,122.3h9.2V60.7h-9.2V122.3z M348.6,86.4h-0.3
		c-2.1-2.5-6-4.7-11-4.7c-4.9,0-9.5,2-13.1,5.3c-4.2,3.8-7,9.4-7,15.8c0,7.3,3.8,13.7,9.1,17.4c3.2,2.2,7,3.5,11,3.5
		c5,0,9-2.2,11-4.8h0.3v3c0,8-4.3,12.3-11.2,12.3c-5.6,0-9.1-4-10.6-7.5l-8,3.3c2.3,5.6,8.4,12.4,18.6,12.4
		c10.8,0,19.9-6.4,19.9-21.8V83h-8.7L348.6,86.4L348.6,86.4z M338,115.3c-6.4,0-11.7-5.3-11.7-12.6c0-7.4,5.3-12.8,11.7-12.8
		c6.3,0,11.2,5.4,11.2,12.8C349.2,110,344.3,115.3,338,115.3z M458.2,60.7h-22v61.6h9.2V99h12.8c5.9,0,11.7-2.4,15.5-6.8
		c2.9-3.2,4.7-7.4,4.7-12.4c0-4.9-1.8-9.1-4.5-12.2C470,63.2,464.1,60.7,458.2,60.7z M458.4,90.4h-13.1V69.3h13.1
		c6.9,0,10.8,5.7,10.8,10.6C469.2,84.6,465.3,90.4,458.4,90.4z M515.3,81.6c-6.7,0-13.5,2.9-16.4,9.4l8.2,3.4c1.7-3.4,5-4.5,8.4-4.5
		c4.8,0,9.6,2.9,9.7,7.9v0.6c-1.7-1-5.2-2.4-9.6-2.4c-3.8,0-7.6,0.9-10.7,2.6c-4.1,2.3-7,6.1-7,11.2c0,4.5,2.1,8.1,5.3,10.5
		c2.7,2,6.2,3.1,9.9,3.1c6.2,0,9.6-2.8,11.7-6h0.3v4.8h8.9v-14.5v-9.1c0-6.5-2.9-11.3-7.4-14.1C523.4,82.6,519.5,81.6,515.3,81.6z
		 M514.2,115.3c-3,0-7.2-1.5-7.2-5.2c0-4.8,5.2-6.6,9.8-6.6c4,0,5.9,0.9,8.4,2.1C524.4,111.3,519.5,115.3,514.2,115.3z M566.3,82.9
		L562,94l-6.2,15.6h-0.3l-10.9-26.7h-9.9l7.9,18l8.5,19.3l-9.3,20.8h9.6l17.9-41.2l7.3-16.9L566.3,82.9L566.3,82.9z M483.5,122.3
		h9.2V60.7h-9.2V122.3z"/>
	
		<linearGradient id="SVGID_00000181061477693550726510000002438123915531116173_" gradientUnits="userSpaceOnUse" x1="-93.9484" y1="240.8025" x2="57.1179" y2="116.6888" gradientTransform="matrix(1 0 0 -1 0 160)">
		<stop  offset="0" style="stop-color:#32A071"/>
		<stop  offset="6.850000e-02" style="stop-color:#2DA771"/>
		<stop  offset="0.4762" style="stop-color:#15CF74"/>
		<stop  offset="0.8009" style="stop-color:#06E775"/>
		<stop  offset="1" style="stop-color:#00F076"/>
	</linearGradient>
	<path style="fill:url(#SVGID_00000181061477693550726510000002438123915531116173_);" d="M89,49.8l-73.2-43C12,4.6,7.6,5.9,5.3,9
		l62,62.4L89,49.8z"/>
	
		<linearGradient id="SVGID_00000087400062580260816350000004596753197350329246_" gradientUnits="userSpaceOnUse" x1="110.6472" y1="89.517" x2="-2.1529" y2="88.8515" gradientTransform="matrix(1 0 0 -1 0 160)">
		<stop  offset="0" style="stop-color:#00A0FF"/>
		<stop  offset="6.574450e-03" style="stop-color:#00A1FF"/>
		<stop  offset="0.2601" style="stop-color:#00BEFF"/>
		<stop  offset="0.5122" style="stop-color:#00D2FF"/>
		<stop  offset="0.7604" style="stop-color:#00DFFF"/>
		<stop  offset="1" style="stop-color:#00E3FF"/>
	</linearGradient>
	<path style="fill:url(#SVGID_00000087400062580260816350000004596753197350329246_);" d="M3.7,128.7c0,1.7,0.5,3.3,1.4,4.5
		l62.2-61.9L5.3,9c-1,1.3-1.5,2.9-1.5,4.7L3.7,128.7L3.7,128.7z"/>
	
		<linearGradient id="SVGID_00000068652042156126849740000017518007270482723475_" gradientUnits="userSpaceOnUse" x1="126.446" y1="85.7428" x2="24.6262" y2="93.7287" gradientTransform="matrix(1 0 0 -1 0 160)">
		<stop  offset="0" style="stop-color:#FFE000"/>
		<stop  offset="0.4087" style="stop-color:#FFBD00"/>
		<stop  offset="0.7754" style="stop-color:#FFA500"/>
		<stop  offset="1" style="stop-color:#FF9C00"/>
	</linearGradient>
	<path style="fill:url(#SVGID_00000068652042156126849740000017518007270482723475_);" d="M88.6,92.8l25.1-14.7
		c5.2-3.1,5.2-10.7,0-13.8L89,49.8L67.3,71.4L88.6,92.8z"/>
	
		<linearGradient id="SVGID_00000121963254157148255380000016116587815697179068_" gradientUnits="userSpaceOnUse" x1="113.183" y1="101.2974" x2="-82.8037" y2="-28.8059" gradientTransform="matrix(1 0 0 -1 0 160)">
		<stop  offset="0" style="stop-color:#FF3A44"/>
		<stop  offset="1" style="stop-color:#C31162"/>
	</linearGradient>
	<path style="fill:url(#SVGID_00000121963254157148255380000016116587815697179068_);" d="M5.2,133.2c2.2,3.2,6.8,4.6,10.6,2.3
		l72.9-42.8L67.3,71.4L5.2,133.2z"/>
</g>
</svg>
