<?xml version="1.0" encoding="utf-8"?>
<!-- Generator: Adobe Illustrator 27.9.0, SVG Export Plug-In . SVG Version: 6.00 Build 0)  -->
<svg version="1.1" id="Layer_1" xmlns="http://www.w3.org/2000/svg" xmlns:xlink="http://www.w3.org/1999/xlink" x="0px" y="0px"
	 viewBox="0 0 678.65 220.23" style="enable-background:new 0 0 678.65 220.23;" xml:space="preserve">
<style type="text/css">
	.st0{fill:#231F20;}
	.st1{fill:#4D4D4F;}
	.st2{fill:#F0CF0E;}
	.st3{fill-rule:evenodd;clip-rule:evenodd;fill:#4D4D4F;}
	.st4{fill:#2B4BA0;}
	.st5{fill:#B42F40;}
	.st6{fill:#FFFFFF;}
	.st7{clip-path:url(#SVGID_00000049919631413172576580000011155996235306494632_);}
	.st8{fill-rule:evenodd;clip-rule:evenodd;fill:#FFFFFF;}
	.st9{opacity:0.7;}
	.st10{clip-path:url(#SVGID_00000114791227701832507490000011431349820170119613_);}
	.st11{clip-path:url(#SVGID_00000038397283802693274340000007338549780056457105_);}
	.st12{clip-path:url(#SVGID_00000139282218332220621550000005253781287579806351_);}
	.st13{clip-path:url(#SVGID_00000106145312827784658220000008165471988033083821_);}
	.st14{fill:#D52B1E;}
	.st15{fill:#0039A6;}
	.st16{fill:none;stroke:#F0CF0E;stroke-width:11.6992;stroke-miterlimit:10;}
	.st17{clip-path:url(#SVGID_00000088836583613811783720000018347613746734849435_);}
	.st18{fill:#E30A17;}
	.st19{filter:url(#Adobe_OpacityMaskFilter);}
	.st20{fill:url(#SVGID_00000049901243147423327390000001305348134558064772_);}
	
		.st21{opacity:0.1;mask:url(#SVGID_00000064326940865679002780000003154532499980998825_);fill:url(#SVGID_00000097464373880063022810000015227486875781217210_);}
	.st22{filter:url(#Adobe_OpacityMaskFilter_00000067926490362564388060000000464431747459592090_);}
	.st23{fill:url(#SVGID_00000022521383584582433390000013705874528778022845_);}
	.st24{mask:url(#SVGID_00000029749544171894981370000018278151213716650660_);}
	.st25{filter:url(#Adobe_OpacityMaskFilter_00000063597748597493464930000016718466143881713558_);}
	.st26{filter:url(#Adobe_OpacityMaskFilter_00000063622663141698485340000016001242728916657547_);}
	.st27{fill:url(#SVGID_00000183224557947640356910000012779617986254019502_);}
	.st28{opacity:0.2;fill:url(#SVGID_00000003086097574280726950000017636045400298514067_);}
	.st29{clip-path:url(#SVGID_00000031895436832800578120000008760416029110806931_);}
	.st30{clip-path:url(#SVGID_00000098923701275703177300000014094942081703913380_);fill:#EDEDED;}
	.st31{clip-path:url(#SVGID_00000098923701275703177300000014094942081703913380_);fill:#49A044;}
	.st32{clip-path:url(#SVGID_00000098923701275703177300000014094942081703913380_);fill:#C7001B;}
	.st33{clip-path:url(#SVGID_00000098923701275703177300000014094942081703913380_);}
	.st34{clip-path:url(#SVGID_00000090285674357375247080000016103123589807810694_);}
	.st35{fill:#C7001B;}
	.st36{clip-path:url(#SVGID_00000090285674357375247080000016103123589807810694_);fill:#EDEDED;}
	.st37{clip-path:url(#SVGID_00000131332292035472341580000012276689164219454620_);}
	.st38{clip-path:url(#SVGID_00000150800765403027934760000006824023476241900444_);fill:#3D9635;}
	.st39{fill:#EDEDED;}
	.st40{fill:#A09F9F;}
</style>
<g>
	<g>
		<path class="st40" d="M637.6,39.3c1.01,1.03,1.52,2.42,1.52,4.17c0,1.16-0.24,2.18-0.73,3.04c-0.49,0.87-1.15,1.53-2,1.99
			c-0.85,0.46-1.8,0.69-2.86,0.69c-1.68,0-3.03-0.51-4.04-1.53c-1.01-1.02-1.52-2.42-1.52-4.19c0-1.14,0.24-2.15,0.73-3.02
			c0.48-0.87,1.15-1.53,2-2c0.85-0.47,1.79-0.7,2.83-0.7C635.23,37.75,636.59,38.27,637.6,39.3z M630.54,40.19
			c-0.73,0.77-1.09,1.87-1.09,3.29c0,1.42,0.36,2.52,1.09,3.29c0.73,0.77,1.72,1.16,2.99,1.16c1.27,0,2.27-0.39,3-1.16
			c0.74-0.77,1.1-1.87,1.1-3.29c0-1.42-0.37-2.52-1.1-3.29c-0.74-0.77-1.74-1.16-3-1.16C632.26,39.03,631.27,39.41,630.54,40.19z
			 M635.87,42.28c0,0.4-0.07,0.72-0.2,0.95c-0.13,0.23-0.36,0.45-0.69,0.64l1.17,2.26h-1.56l-0.94-1.95h-0.99v1.95h-1.38v-5.51h2.13
			C635.05,40.61,635.87,41.17,635.87,42.28z M632.67,43.06h0.88c0.59,0,0.88-0.23,0.88-0.7c0-0.43-0.35-0.65-1.04-0.65h-0.73V43.06z
			"/>
	</g>
	<g>
		<path class="st4" d="M57.58,76.59L60.09,77L60.04,92.6c0,1.64,0.35,2.82,1.05,3.54c0.7,0.72,1.79,1.08,3.26,1.08h1.03
			c0.21,0,0.34,0.06,0.41,0.18c0.07,0.12,0.1,0.23,0.1,0.33v3.03c0,0.1-0.03,0.21-0.1,0.33c-0.07,0.12-0.2,0.18-0.41,0.18h-1.9
			c-2.67,0-4.65-0.76-5.95-2.28c-1.3-1.52-1.95-3.55-1.95-6.08V80.65c-1.78-0.41-3.3-0.62-4.56-0.62c-2.6,0-4.63,0.85-6.1,2.54
			c-1.47,1.69-2.21,3.84-2.21,6.44c0,2.29,0.7,4.23,2.1,5.82c1.4,1.59,3.37,2.39,5.9,2.39h3.69l-1.8,4.05h-2.15
			c-2.53,0-4.73-0.56-6.59-1.69c-1.86-1.13-3.29-2.65-4.28-4.57c-0.99-1.91-1.49-4.02-1.49-6.31c0-2.22,0.52-4.31,1.56-6.26
			c1.04-1.95,2.56-3.51,4.57-4.69c2-1.18,4.35-1.77,7.05-1.77C52.91,75.98,55.01,76.18,57.58,76.59z M44.09,71.46v-5.18h4.82v5.18
			H44.09z M53.73,71.46v-5.18h4.82v5.18H53.73z"/>
		<path class="st4" d="M80.45,93.73c1.37,2.33,4.17,3.49,8.41,3.49c0.21,0,0.34,0.06,0.41,0.18c0.07,0.12,0.1,0.23,0.1,0.33v3.03
			c0,0.07-0.03,0.17-0.1,0.31c-0.07,0.14-0.2,0.21-0.41,0.21c-2.39,0-4.36-0.34-5.9-1.03c-1.54-0.68-2.87-1.76-4-3.23
			c-0.89,1.3-2.03,2.33-3.44,3.1c-1.4,0.77-2.97,1.15-4.72,1.15h-5.44c-0.21,0-0.34-0.06-0.41-0.18c-0.07-0.12-0.1-0.23-0.1-0.33
			v-3.03c0-0.1,0.03-0.21,0.1-0.33c0.07-0.12,0.2-0.18,0.41-0.18h4.62c1.88,0,3.42-0.64,4.62-1.92s1.8-2.9,1.8-4.85V76.29h4.46
			v14.57C80.86,91.78,80.73,92.73,80.45,93.73z M69.58,112.24v-5.18h4.82v5.18H69.58z M79.22,112.24v-5.18h4.82v5.18H79.22z"/>
		<path class="st4" d="M109.15,77.72c2.03,1.16,3.58,2.71,4.64,4.64c1.06,1.93,1.59,4.03,1.59,6.28c0,2.09-0.38,3.95-1.13,5.59
			c1.26,1.98,3.3,2.97,6.1,2.97c0.2,0,0.34,0.06,0.41,0.18c0.07,0.12,0.1,0.23,0.1,0.33v3.03c0,0.1-0.03,0.21-0.1,0.33
			c-0.07,0.12-0.21,0.18-0.41,0.18c-3.25,0-5.93-1.33-8.05-4c-2.29,2.67-5.37,4-9.23,4H88.86c-0.21,0-0.34-0.07-0.41-0.21
			c-0.07-0.14-0.1-0.24-0.1-0.31v-3.03c0-0.1,0.03-0.21,0.1-0.33c0.07-0.12,0.2-0.18,0.41-0.18h4.15V77.06
			c3.83-0.72,6.79-1.08,8.87-1.08C104.7,75.98,107.12,76.56,109.15,77.72z M97.48,80.49v16.72h4.98c2.67,0,4.72-0.73,6.16-2.18
			c1.44-1.45,2.15-3.53,2.15-6.23c0-2.6-0.77-4.71-2.31-6.33c-1.54-1.62-3.73-2.44-6.57-2.44C100.32,80.03,98.85,80.18,97.48,80.49z
			"/>
		<path class="st4" d="M135.44,93.73c1.37,2.33,4.17,3.49,8.41,3.49c0.21,0,0.34,0.06,0.41,0.18c0.07,0.12,0.1,0.23,0.1,0.33v3.03
			c0,0.07-0.03,0.17-0.1,0.31c-0.07,0.14-0.2,0.21-0.41,0.21c-2.39,0-4.36-0.34-5.9-1.03c-1.54-0.68-2.87-1.76-4-3.23
			c-0.89,1.3-2.03,2.33-3.44,3.1c-1.4,0.77-2.97,1.15-4.72,1.15h-5.44c-0.21,0-0.34-0.06-0.41-0.18c-0.07-0.12-0.1-0.23-0.1-0.33
			v-3.03c0-0.1,0.03-0.21,0.1-0.33c0.07-0.12,0.2-0.18,0.41-0.18h4.62c1.88,0,3.42-0.64,4.62-1.92s1.8-2.9,1.8-4.85V76.29h4.46
			v14.57C135.85,91.78,135.71,92.73,135.44,93.73z M124.56,112.24v-5.18h4.82v5.18H124.56z M134.21,112.24v-5.18h4.82v5.18H134.21z"
			/>
		<path class="st4" d="M155.34,93.83c1.2,2.26,3.32,3.39,6.36,3.39c0.2,0,0.34,0.06,0.41,0.18c0.07,0.12,0.1,0.23,0.1,0.33v3.03
			c0,0.1-0.03,0.21-0.1,0.33c-0.07,0.12-0.21,0.18-0.41,0.18c-3.22,0-5.88-1.33-8-4c-1.98,2.67-4.65,4-8,4h-1.85
			c-0.21,0-0.34-0.06-0.41-0.18c-0.07-0.12-0.1-0.23-0.1-0.33v-3.03c0-0.1,0.03-0.21,0.1-0.33c0.07-0.12,0.2-0.18,0.41-0.18h1.03
			c1.88,0,3.42-0.64,4.62-1.92c1.2-1.28,1.8-2.9,1.8-4.85V61.98h4.46v28.88C155.75,91.98,155.61,92.97,155.34,93.83z"/>
		<path class="st4" d="M184.4,76.39c2.03,0.96,3.63,2.22,4.8,3.8c1.16,1.57,1.74,3.25,1.74,5.03c0,2.05-0.7,4.11-2.1,6.18
			c-1.4,2.07-3.18,3.82-5.33,5.26c2.53,0.38,5.73,0.56,9.59,0.56c0.44,0,0.67,0.19,0.67,0.56v2.92c0,0.38-0.22,0.56-0.67,0.56
			c-5.2,0-9.9-0.67-14.11-2c-4.24,1.33-9.99,2-17.23,2c-0.38,0-0.56-0.19-0.56-0.56v-2.92c0-0.38,0.19-0.56,0.56-0.56
			c5.23,0,9.01-0.21,11.34-0.62c-3.01-3.01-6.19-7.3-9.54-12.87l1.23-4.87c4.62-2.6,8.93-3.9,12.93-3.9
			C180.13,74.95,182.36,75.43,184.4,76.39z M167.6,82.44c1.09,2.15,2.71,4.65,4.85,7.49c2.14,2.84,4.03,4.89,5.67,6.15
			c2.26-1.2,4.21-2.7,5.85-4.51c1.64-1.81,2.46-3.69,2.46-5.64c0-2.15-0.91-3.78-2.72-4.87c-1.81-1.09-3.95-1.64-6.41-1.64
			C174.42,79.42,171.19,80.42,167.6,82.44z"/>
		<path class="st4" d="M208.33,93.73c1.37,2.33,4.17,3.49,8.41,3.49c0.21,0,0.34,0.06,0.41,0.18c0.07,0.12,0.1,0.23,0.1,0.33v3.03
			c0,0.07-0.03,0.17-0.1,0.31c-0.07,0.14-0.2,0.21-0.41,0.21c-2.39,0-4.36-0.34-5.9-1.03c-1.54-0.68-2.87-1.76-4-3.23
			c-0.89,1.3-2.03,2.33-3.44,3.1c-1.4,0.77-2.97,1.15-4.72,1.15h-5.44c-0.21,0-0.34-0.06-0.41-0.18c-0.07-0.12-0.1-0.23-0.1-0.33
			v-3.03c0-0.1,0.03-0.21,0.1-0.33c0.07-0.12,0.2-0.18,0.41-0.18h4.62c1.88,0,3.42-0.64,4.62-1.92c1.2-1.28,1.8-2.9,1.8-4.85V76.29
			h4.46v14.57C208.74,91.78,208.6,92.73,208.33,93.73z M199.09,71.46v-5.18h4.82v5.18H199.09z M208.74,71.46v-5.18h4.82v5.18H208.74
			z"/>
		<path class="st4" d="M216.74,101.27c-0.21,0-0.34-0.07-0.41-0.21c-0.07-0.14-0.1-0.24-0.1-0.31v-3.03c0-0.1,0.03-0.21,0.1-0.33
			c0.07-0.12,0.2-0.18,0.41-0.18h6.46V61.98h4.46v39.29H216.74z"/>
		<path class="st4" d="M237.41,101.27V61.98h4.46v39.29H237.41z"/>
		<path class="st4" d="M283.67,94.37c0.86,0.5,2.05,0.74,3.59,0.74c0.21,0,0.34,0.06,0.41,0.18c0.07,0.12,0.1,0.23,0.1,0.33v5.13
			c0,0.1-0.03,0.21-0.1,0.33c-0.07,0.12-0.2,0.18-0.41,0.18c-2.91,0-5.21-0.28-6.9-0.85c-1.69-0.56-2.98-1.46-3.87-2.69
			c-3.15,2.36-6.48,3.54-10,3.54h-6.26l-2.77-6.15h7.95c3.76,0,6.79-0.68,9.08-2.05l-6.82-17.75h7.69l6.41,16.67
			C282.19,93.08,282.82,93.87,283.67,94.37z"/>
		<path class="st4" d="M303.78,93.01c0.75,0.82,1.61,1.38,2.56,1.67c0.96,0.29,2.43,0.44,4.41,0.44c0.21,0,0.34,0.06,0.41,0.18
			c0.07,0.12,0.1,0.23,0.1,0.33v5.13c0,0.1-0.03,0.21-0.1,0.33c-0.07,0.12-0.2,0.18-0.41,0.18c-2.15-0.03-3.88-0.33-5.18-0.9
			c-1.3-0.56-2.53-1.56-3.69-3c-0.89,1.23-2.01,2.19-3.36,2.87c-1.35,0.68-2.85,1.03-4.49,1.03h-6.77c-0.21,0-0.34-0.06-0.41-0.18
			c-0.07-0.12-0.1-0.23-0.1-0.33v-5.13c0-0.1,0.03-0.21,0.1-0.33c0.07-0.12,0.2-0.18,0.41-0.18h4.62c1.37,0,2.54-0.54,3.51-1.62
			c0.97-1.08,1.46-2.5,1.46-4.28v-13.9h7.18v15.03C304.04,91.2,303.95,92.08,303.78,93.01z M291.52,71.46V65h7.39v6.46H291.52z
			 M301.78,71.46V65h7.39v6.46H301.78z"/>
		<path class="st4" d="M310.19,112.24v-6.46h7.39v6.46H310.19z M310.76,101.27c-0.21,0-0.34-0.06-0.41-0.18
			c-0.07-0.12-0.1-0.23-0.1-0.33v-5.13c0-0.1,0.03-0.21,0.1-0.33c0.07-0.12,0.2-0.18,0.41-0.18h8.72V75.82h7.13v25.44H310.76z
			 M320.45,112.24v-6.46h7.39v6.46H320.45z"/>
		<path class="st4" d="M342.22,94.01c0.67,0.74,1.65,1.1,2.95,1.1h1.03c0.21,0,0.34,0.06,0.41,0.18c0.07,0.12,0.1,0.23,0.1,0.33
			v5.13c0,0.1-0.03,0.21-0.1,0.33c-0.07,0.12-0.2,0.18-0.41,0.18h-3.18c-2.91,0-5.13-0.9-6.67-2.69c-1.54-1.8-2.31-4.2-2.31-7.21
			V61.98h7.18v28.26C341.22,92.02,341.56,93.27,342.22,94.01z"/>
		<path class="st4" d="M346.2,101.27c-0.21,0-0.34-0.06-0.41-0.18c-0.07-0.12-0.1-0.23-0.1-0.33v-5.13c0-0.1,0.03-0.21,0.1-0.33
			c0.07-0.12,0.2-0.18,0.41-0.18h5.13V75.82h7.13v25.44H346.2z M351.17,71.46V65h7.39v6.46H351.17z"/>
		<path class="st4" d="M391.54,95.32c0.07,0.14,0.1,0.24,0.1,0.31v5.13c0,0.1-0.03,0.21-0.1,0.33c-0.07,0.12-0.21,0.18-0.41,0.18
			h-3.23c-0.31,3.86-1.56,6.67-3.77,8.41c-2.21,1.74-5.31,2.94-9.31,3.59l-2.87-6.41c2.12-0.27,3.8-0.66,5.05-1.15
			c1.25-0.5,2.2-1.23,2.85-2.21c0.65-0.97,0.97-2.3,0.97-3.98v-17.7c-1.2-0.24-2.29-0.36-3.28-0.36c-4.17,0-6.26,2.34-6.26,7.03
			c0,2.05,0.54,3.67,1.62,4.85c1.08,1.18,2.62,1.77,4.64,1.77h2.26l-2.77,6.15h-0.72c-2.36,0-4.49-0.53-6.39-1.59
			c-1.9-1.06-3.39-2.56-4.46-4.51c-1.08-1.95-1.62-4.21-1.62-6.77c0-2.46,0.58-4.69,1.74-6.69c1.16-2,2.8-3.57,4.9-4.69
			c2.1-1.13,4.54-1.69,7.31-1.69c2.36,0,5.76,0.34,10.21,1.03v18.77h3.13C391.34,95.11,391.47,95.18,391.54,95.32z"/>
		<path class="st4" d="M390.57,112.24v-6.46h7.39v6.46H390.57z M391.13,101.27c-0.21,0-0.34-0.06-0.41-0.18
			c-0.07-0.12-0.1-0.23-0.1-0.33v-5.13c0-0.1,0.03-0.21,0.1-0.33c0.07-0.12,0.2-0.18,0.41-0.18h8.72V75.82h7.13v25.44H391.13z
			 M400.82,112.24v-6.46h7.39v6.46H400.82z"/>
	</g>
	<g>
		<path class="st40" d="M92.25,150.91v-2.53h2.04v2.53H92.25z"/>
		<path class="st40" d="M97.66,150.91v-2.53h2.04v2.53H97.66z"/>
		<path class="st40" d="M103.08,150.91v-2.53h2.04v2.53H103.08z"/>
		<path class="st40" d="M118.21,149.25c0.38,0.38,0.98,0.57,1.8,0.57h0.54c0.11,0,0.18,0.03,0.22,0.1c0.04,0.06,0.05,0.12,0.05,0.18
			v0.98c0,0.05-0.02,0.11-0.05,0.18c-0.04,0.06-0.11,0.1-0.22,0.1h-0.6c-1.36,0-2.35-0.37-2.97-1.1c-0.62-0.73-0.93-1.69-0.93-2.87
			V130.5h1.58v16.93C117.64,148.26,117.83,148.87,118.21,149.25z"/>
		<path class="st40" d="M126.24,147.59c0.29,0.67,0.76,1.21,1.4,1.62c0.64,0.41,1.44,0.61,2.38,0.61c0.11,0,0.18,0.03,0.22,0.1
			c0.04,0.06,0.05,0.12,0.05,0.18v0.98c0,0.05-0.02,0.11-0.05,0.18c-0.04,0.06-0.11,0.1-0.22,0.1c-1.89,0-3.37-0.78-4.46-2.34
			c-0.47,0.71-1.09,1.27-1.85,1.7c-0.76,0.43-1.62,0.64-2.56,0.64h-0.6c-0.11,0-0.18-0.03-0.22-0.1c-0.04-0.06-0.05-0.12-0.05-0.18
			v-0.98c0-0.05,0.02-0.11,0.05-0.18c0.04-0.06,0.11-0.1,0.22-0.1h0.54c1.14,0,2.07-0.37,2.78-1.12c0.71-0.74,1.06-1.66,1.06-2.75
			v-7.57h1.58v7.59C126.51,146.53,126.42,147.07,126.24,147.59z M124.74,135.53v-2.37h1.8v2.37H124.74z"/>
		<path class="st40" d="M143.88,137.32c1.34,0.7,2.4,1.76,3.18,3.17c0.78,1.42,1.17,3.17,1.17,5.25v5.61h-18.21
			c-0.11,0-0.18-0.03-0.22-0.1c-0.04-0.06-0.05-0.12-0.05-0.18v-0.98c0-0.05,0.02-0.11,0.05-0.18c0.04-0.06,0.11-0.1,0.22-0.1h4.49
			c-1.51-0.89-2.26-2.35-2.26-4.38c0-0.94,0.22-1.84,0.65-2.68s1.08-1.52,1.92-2.04c0.84-0.52,1.85-0.78,3.03-0.78
			c1.16,0,2.13,0.25,2.9,0.76c0.77,0.51,1.34,1.15,1.72,1.93c0.37,0.78,0.56,1.59,0.56,2.42v4.76h3.62v-4.08
			c0-2.45-0.64-4.39-1.93-5.81c-1.29-1.42-3.18-2.14-5.66-2.14h-2.94l-0.63-1.52h3.89C141.04,136.27,142.53,136.62,143.88,137.32z
			 M134.95,142.67c-0.71,0.8-1.06,1.8-1.06,2.99c0,1.2,0.4,2.18,1.2,2.95c0.8,0.77,1.91,1.17,3.35,1.21h3.02v-4.6
			c0-1.11-0.31-2.01-0.94-2.71c-0.63-0.7-1.5-1.05-2.63-1.05C136.64,141.47,135.66,141.87,134.95,142.67z"/>
		<path class="st40" d="M176.45,149.92c0.04,0.06,0.06,0.12,0.06,0.18v0.98c0,0.05-0.02,0.11-0.06,0.18
			c-0.04,0.06-0.11,0.1-0.22,0.1h-4.08v4.84h-6.56c-1.13,0-2.15-0.2-3.06-0.6c-0.92-0.4-1.65-0.99-2.19-1.78
			c-0.55-0.79-0.82-1.73-0.82-2.82v-6.42h1.58v6.42c0,1.05,0.39,1.93,1.18,2.63c0.79,0.7,1.93,1.05,3.42,1.05h4.87v-16.28h1.58
			v11.43h4.08C176.34,149.82,176.42,149.86,176.45,149.92z M164.67,137.88v-2.37h1.8v2.37H164.67z"/>
		<path class="st40" d="M186.99,139.06c1.03,0.63,1.79,1.44,2.27,2.45s0.72,2.1,0.72,3.28c0,1.02-0.17,2.14-0.5,3.36
			c-0.34,1.22-0.74,2.29-1.21,3.2h-12.03c-0.11,0-0.18-0.03-0.22-0.1c-0.04-0.06-0.05-0.12-0.05-0.18v-0.98
			c0-0.05,0.02-0.11,0.05-0.18c0.04-0.06,0.11-0.1,0.22-0.1h2.5v-11.13c1.74-0.38,3.19-0.57,4.35-0.57
			C184.66,138.12,185.95,138.43,186.99,139.06z M180.32,139.94v9.88h6.97c0.71-1.58,1.06-3.24,1.06-4.98c0-1.4-0.42-2.61-1.25-3.65
			c-0.83-1.03-2.2-1.55-4.08-1.55C182.12,139.65,181.23,139.74,180.32,139.94z"/>
		<path class="st40" d="M204.43,128.94l-0.41,1.31c-0.54-0.15-0.96-0.22-1.25-0.22c-0.24,0-0.45,0.07-0.65,0.2s-0.3,0.36-0.3,0.67
			c0,0.33,0.13,0.59,0.38,0.79h2.61v1.22h-5.31l0.33-1.22h1.01c-0.18-0.36-0.27-0.7-0.27-1.01c0-0.6,0.18-1.11,0.53-1.54
			c0.35-0.43,0.85-0.64,1.48-0.64C203.05,128.51,203.67,128.66,204.43,128.94z M201.55,151.35v-16.77h1.58v16.77H201.55z"/>
		<path class="st40" d="M219.25,149.44c0.44,0.25,1.17,0.38,2.16,0.38c0.11,0,0.18,0.03,0.22,0.1c0.04,0.06,0.05,0.12,0.05,0.18
			v0.98c0,0.05-0.02,0.11-0.05,0.18c-0.04,0.06-0.11,0.1-0.22,0.1c-2.01,0-3.42-0.63-4.22-1.88c-1.63,1.25-3.4,1.88-5.31,1.88h-4.82
			l-0.68-1.52h5.72c1.89,0,3.41-0.47,4.57-1.42l-4.16-10.29h1.82l3.89,10.04C218.47,148.76,218.81,149.19,219.25,149.44z"/>
		<path class="st40" d="M227.1,147.59c0.29,0.67,0.76,1.21,1.4,1.62c0.64,0.41,1.44,0.61,2.38,0.61c0.11,0,0.18,0.03,0.22,0.1
			c0.04,0.06,0.05,0.12,0.05,0.18v0.98c0,0.05-0.02,0.11-0.05,0.18c-0.04,0.06-0.11,0.1-0.22,0.1c-1.89,0-3.37-0.78-4.46-2.34
			c-0.47,0.71-1.09,1.27-1.85,1.7c-0.76,0.43-1.62,0.64-2.56,0.64h-0.6c-0.11,0-0.18-0.03-0.22-0.1c-0.04-0.06-0.05-0.12-0.05-0.18
			v-0.98c0-0.05,0.02-0.11,0.05-0.18c0.04-0.06,0.11-0.1,0.22-0.1h0.54c1.14,0,2.07-0.37,2.78-1.12c0.71-0.74,1.06-1.66,1.06-2.75
			v-7.57h1.58v7.59C227.37,146.53,227.28,147.07,227.1,147.59z M225.44,157.17v-2.37h1.8v2.37H225.44z"/>
		<path class="st40" d="M230.89,151.35c-0.11,0-0.18-0.03-0.22-0.1c-0.04-0.06-0.05-0.12-0.05-0.18v-0.98
			c0-0.05,0.02-0.11,0.05-0.18c0.04-0.06,0.11-0.1,0.22-0.1h5.8v-11.43h1.58v12.96H230.89z M231.89,157.17v-2.37h1.8v2.37H231.89z
			 M236.85,157.17v-2.37h1.8v2.37H236.85z"/>
		<path class="st40" d="M258.22,139.71c1.08,1.06,1.97,2.49,2.68,4.29l1.5,3.78c0.27,0.67,0.68,1.17,1.24,1.5
			c0.55,0.33,1.29,0.53,2.22,0.6l-0.63,1.47c-1.6-0.16-2.82-0.84-3.67-2.04c-4.34,0.06-7.41,0.63-9.23,1.71
			c-0.69,0.42-1.21,0.91-1.57,1.47s-0.53,1.3-0.53,2.2c0,0.98,0.36,1.97,1.09,2.97l-0.03,0.05h-1.77c-0.24-0.4-0.45-0.89-0.64-1.47
			c-0.19-0.58-0.29-1.12-0.29-1.63c0-2.58,1.18-4.3,3.55-5.18c2.37-0.88,5.26-1.36,8.67-1.43l-1.63-3.97
			c-0.62-1.52-1.36-2.63-2.24-3.31c-0.88-0.68-2.04-1.02-3.47-1.02c-1.07,0-2.19,0.32-3.35,0.95l-0.65-1.36
			c0.94-0.44,1.71-0.74,2.3-0.91c0.59-0.17,1.35-0.26,2.27-0.26C255.75,138.12,257.14,138.65,258.22,139.71z"/>
		<path class="st40" d="M271.55,149.25c0.38,0.38,0.98,0.57,1.8,0.57h0.54c0.11,0,0.18,0.03,0.22,0.1c0.04,0.06,0.05,0.12,0.05,0.18
			v0.98c0,0.05-0.02,0.11-0.05,0.18c-0.04,0.06-0.11,0.1-0.22,0.1h-0.6c-1.36,0-2.35-0.37-2.97-1.1c-0.62-0.73-0.93-1.69-0.93-2.87
			V130.5h1.58v16.93C270.98,148.26,271.17,148.87,271.55,149.25z"/>
		<path class="st40" d="M284.6,139.71c1.08,1.06,1.97,2.49,2.68,4.29l1.5,3.78c0.27,0.71,0.68,1.23,1.24,1.55
			c0.55,0.33,1.29,0.49,2.22,0.49c0.11,0,0.18,0.03,0.22,0.1c0.04,0.06,0.06,0.12,0.06,0.18v0.98c0,0.05-0.02,0.11-0.06,0.18
			c-0.04,0.06-0.11,0.1-0.22,0.1c-1.87,0-3.28-0.64-4.25-1.91c-1.18,0.62-2.5,1.09-3.96,1.42s-2.87,0.49-4.23,0.49h-5.91
			c-0.11,0-0.18-0.03-0.22-0.1c-0.04-0.06-0.05-0.12-0.05-0.18v-0.98c0-0.05,0.02-0.11,0.05-0.18c0.04-0.06,0.11-0.1,0.22-0.1h5.91
			c2.58,0,5.11-0.48,7.59-1.44c-0.07-0.16-0.12-0.26-0.14-0.3l-1.69-4.06c-0.62-1.52-1.36-2.63-2.25-3.31
			c-0.88-0.68-2.04-1.02-3.47-1.02c-1.07,0-2.19,0.32-3.35,0.95l-0.65-1.36c0.94-0.44,1.71-0.74,2.3-0.91
			c0.59-0.17,1.35-0.26,2.27-0.26C282.12,138.12,283.52,138.65,284.6,139.71z M280.09,157.17v-2.37h1.8v2.37H280.09z"/>
		<path class="st40" d="M297.92,147.59c0.29,0.67,0.76,1.21,1.4,1.62c0.64,0.41,1.44,0.61,2.38,0.61c0.11,0,0.18,0.03,0.22,0.1
			c0.04,0.06,0.05,0.12,0.05,0.18v0.98c0,0.05-0.02,0.11-0.05,0.18c-0.04,0.06-0.11,0.1-0.22,0.1c-1.89,0-3.37-0.78-4.46-2.34
			c-0.47,0.71-1.09,1.27-1.85,1.7c-0.76,0.43-1.62,0.64-2.56,0.64h-0.6c-0.11,0-0.18-0.03-0.22-0.1c-0.04-0.06-0.05-0.12-0.05-0.18
			v-0.98c0-0.05,0.02-0.11,0.05-0.18c0.04-0.06,0.11-0.1,0.22-0.1h0.54c1.14,0,2.07-0.37,2.78-1.12c0.71-0.74,1.06-1.66,1.06-2.75
			v-7.57h1.58v7.59C298.19,146.53,298.1,147.07,297.92,147.59z M296.42,135.53v-2.37h1.8v2.37H296.42z"/>
		<path class="st40" d="M307.39,147.59c0.29,0.67,0.76,1.21,1.4,1.62c0.64,0.41,1.44,0.61,2.38,0.61c0.11,0,0.18,0.03,0.22,0.1
			c0.04,0.06,0.05,0.12,0.05,0.18v0.98c0,0.05-0.02,0.11-0.05,0.18c-0.04,0.06-0.11,0.1-0.22,0.1c-1.89,0-3.37-0.78-4.46-2.34
			c-0.47,0.71-1.09,1.27-1.85,1.7c-0.76,0.43-1.62,0.64-2.56,0.64h-0.6c-0.11,0-0.18-0.03-0.22-0.1c-0.04-0.06-0.05-0.12-0.05-0.18
			v-0.98c0-0.05,0.02-0.11,0.05-0.18c0.04-0.06,0.11-0.1,0.22-0.1h0.54c1.14,0,2.07-0.37,2.78-1.12c0.71-0.74,1.06-1.66,1.06-2.75
			V130.5h1.58v15.49C307.66,146.53,307.57,147.07,307.39,147.59z"/>
		<path class="st40" d="M311.17,151.35c-0.11,0-0.18-0.03-0.22-0.1c-0.04-0.06-0.05-0.12-0.05-0.18v-0.98
			c0-0.05,0.02-0.11,0.05-0.18c0.04-0.06,0.11-0.1,0.22-0.1h3.84V130.5h1.58v20.85H311.17z"/>
		<path class="st40" d="M349.41,149.25c0.38,0.38,0.98,0.57,1.8,0.57h0.54c0.11,0,0.18,0.03,0.22,0.1c0.04,0.06,0.06,0.12,0.06,0.18
			v0.98c0,0.05-0.02,0.11-0.06,0.18c-0.04,0.06-0.11,0.1-0.22,0.1h-0.6c-1.63,0-2.76-0.56-3.37-1.69c-1.56,1.13-3.25,1.69-5.06,1.69
			h-8.08c-1.13,0-2.15-0.2-3.06-0.6s-1.65-0.99-2.19-1.78c-0.55-0.79-0.82-1.73-0.82-2.82v-3.95h1.58v3.95
			c0,1.05,0.39,1.93,1.18,2.63c0.79,0.7,1.93,1.05,3.42,1.05h8.19c1.81,0,3.29-0.44,4.44-1.31c-0.07-0.31-0.11-0.69-0.11-1.14
			v-17.42h1.58v17.47C348.84,148.26,349.03,148.87,349.41,149.25z M341.22,136.6l-0.46,1.31c-0.47-0.15-0.86-0.22-1.17-0.22
			c-0.4,0-0.73,0.13-0.99,0.39s-0.39,0.63-0.39,1.1c0,0.6,0.25,1.08,0.76,1.44h3.57v1.36h-7.4l0.33-1.36h1.93
			c-0.4-0.47-0.6-0.99-0.6-1.55c0-0.78,0.25-1.44,0.75-1.97c0.5-0.54,1.18-0.8,2.05-0.8C340.01,136.3,340.55,136.4,341.22,136.6z"/>
		<path class="st40" d="M365.42,138.75v5.91c0,1.2-0.2,2.25-0.6,3.16c0.33,0.6,0.8,1.08,1.42,1.46c0.62,0.37,1.37,0.56,2.26,0.56
			c0.11,0,0.18,0.03,0.22,0.1c0.04,0.06,0.05,0.12,0.05,0.18v0.98c0,0.05-0.02,0.11-0.05,0.18c-0.04,0.06-0.11,0.1-0.22,0.1
			c-1.85,0-3.32-0.74-4.41-2.23c-1.13,1.49-2.82,2.23-5.09,2.23h-7.24c-0.11,0-0.18-0.03-0.22-0.1c-0.04-0.06-0.05-0.12-0.05-0.18
			v-0.98c0-0.05,0.02-0.11,0.05-0.18c0.04-0.06,0.11-0.1,0.22-0.1h4.95c-0.85-0.53-1.5-1.23-1.93-2.11s-0.65-1.85-0.65-2.93
			c0-1.13,0.26-2.2,0.78-3.21c0.52-1.02,1.28-1.85,2.3-2.49c1.02-0.64,2.24-0.97,3.67-0.97
			C361.98,138.12,363.49,138.33,365.42,138.75z M358.03,140.41c-0.75,0.51-1.32,1.17-1.7,2c-0.38,0.83-0.57,1.69-0.57,2.6
			c0,0.8,0.17,1.56,0.52,2.29c0.34,0.73,0.86,1.32,1.54,1.78c0.68,0.46,1.5,0.71,2.46,0.75c1.16-0.29,2.05-0.87,2.65-1.73
			c0.61-0.86,0.91-1.95,0.91-3.28v-4.76c-1.16-0.27-2.2-0.41-3.1-0.41C359.68,139.65,358.78,139.9,358.03,140.41z M357.36,135.53
			v-2.37h1.8v2.37H357.36z M362.31,135.53v-2.37h1.8v2.37H362.31z"/>
		<path class="st40" d="M368.49,151.35c-0.11,0-0.18-0.03-0.22-0.1c-0.04-0.06-0.05-0.12-0.05-0.18v-0.98
			c0-0.05,0.02-0.11,0.05-0.18c0.04-0.06,0.11-0.1,0.22-0.1h5.8v-11.43h1.58v12.96H368.49z M369.5,157.17v-2.37h1.8v2.37H369.5z
			 M374.45,157.17v-2.37h1.8v2.37H374.45z"/>
		<path class="st40" d="M387.03,149.93c0.04,0.07,0.06,0.13,0.06,0.16v0.98c0,0.05-0.02,0.11-0.06,0.18
			c-0.04,0.06-0.11,0.1-0.22,0.1c-1.38,0-2.5-0.52-3.35-1.55v1.91c0,1.65-0.39,2.97-1.16,3.95c-0.77,0.98-1.97,1.67-3.61,2.07
			l-0.65-1.44c1.29-0.16,2.25-0.61,2.88-1.33c0.64-0.73,0.95-1.77,0.95-3.13v-13.42h1.58v8.87c0.67,1.71,1.79,2.56,3.35,2.56
			C386.92,149.82,386.99,149.86,387.03,149.93z"/>
		<path class="st40" d="M397.34,139.14c1.47-0.68,3-1.02,4.6-1.02c1.56,0,2.86,0.31,3.89,0.94s1.79,1.44,2.27,2.45
			c0.48,1.01,0.72,2.1,0.72,3.28c0,1.02-0.17,2.14-0.5,3.36c-0.34,1.22-0.74,2.29-1.21,3.2h-20.3c-0.11,0-0.18-0.03-0.22-0.1
			c-0.04-0.06-0.05-0.12-0.05-0.18v-0.98c0-0.05,0.02-0.11,0.05-0.18c0.04-0.06,0.11-0.1,0.22-0.1h3.7V130.5h1.58v11.7
			C394.12,140.84,395.87,139.82,397.34,139.14z M397.41,140.64c-1.5,0.66-3.27,1.74-5.32,3.22v5.96h14.04
			c0.71-1.58,1.06-3.24,1.06-4.98c0-1.4-0.42-2.61-1.25-3.65c-0.83-1.03-2.2-1.55-4.08-1.55
			C400.39,139.65,398.91,139.98,397.41,140.64z"/>
	</g>
	<g>
		<path class="st4" d="M541.03,34.79v151.67c-6.66-0.27-13.09-1.4-19.19-3.28v-63.03h-33.68c1.93,11.78,7.47,22.34,15.44,30.51
			l-12.77,13.96c-13.93-13.76-22.56-32.87-22.56-54c0-21.54,8.97-40.98,23.38-54.8l11.83,15.36c-7.77,8.01-13.2,18.3-15.21,29.77
			h33.57V38.07C527.95,36.19,534.38,35.06,541.03,34.79z"/>
		<path class="st4" d="M620.08,110.63c0,14.8-4.24,28.62-11.57,40.29c-3.66,5.84-8.1,11.14-13.16,15.76l-9.42-16.75l-2.65-4.71
			l-4.49,11.12l-10.61,26.31c-0.22,0.07-0.45,0.15-0.68,0.22c-0.69,0.22-1.38,0.44-2.08,0.64c-5.54,1.61-11.33,2.61-17.31,2.91
			l0.02-18.68l0.15-113.77l0.03-19.15c6.63,0.36,13.04,1.56,19.11,3.52l0.01,20.34l0.04,74.4l3.75-9.31l4.47-11.08v0l2.92-7.23
			l18.96,26.02c2.48-6.39,3.84-13.35,3.84-20.62c0-15.83-6.45-30.15-16.87-40.48l10.44-16.13
			C610.4,68.14,620.08,88.25,620.08,110.63z"/>
	</g>
	<path class="st40" d="M630.95,74.04c-4.77-11.37-11.61-21.58-20.34-30.36C601.88,34.9,591.7,28,580.36,23.16
		c-11.74-5.01-24.22-7.56-37.09-7.6c-12.87-0.04-25.36,2.45-37.13,7.39c-11.37,4.77-21.58,11.61-30.36,20.34
		c-4.72,4.69-8.89,9.8-12.5,15.29l9.79,4.64c15.31-22.38,41.07-37.07,70.18-36.99c46.69,0.13,84.56,38.22,84.43,84.91
		c-0.13,46.69-38.22,84.56-84.91,84.43c-29.13-0.08-54.83-14.94-70-37.45l-9.8,4.61c3.58,5.52,7.73,10.67,12.44,15.4
		c8.73,8.78,18.91,15.68,30.25,20.52c11.74,5.01,24.22,7.56,37.09,7.6c12.87,0.04,25.36-2.45,37.13-7.39
		c11.37-4.77,21.58-11.61,30.36-20.34c8.78-8.73,15.68-18.91,20.52-30.25c5.01-11.74,7.56-24.22,7.6-37.09
		C638.37,98.31,635.89,85.81,630.95,74.04z"/>
	<g>
		<path class="st4" d="M467.17,148.54c0.44-1.16,0.41-2.31-0.1-3.43c-0.51-1.14-1.35-1.92-2.51-2.35c-0.54-0.2-1.07-0.3-1.6-0.3
			c-0.62,0-1.23,0.14-1.83,0.41l-3.52,1.58c-0.25,0.11-0.42,0.29-0.52,0.54c-0.09,0.25-0.09,0.49,0.02,0.74
			c0.11,0.25,0.29,0.42,0.54,0.52s0.5,0.09,0.75-0.03l3.51-1.58c0.63-0.29,1.28-0.31,1.94-0.06c0.66,0.25,1.13,0.69,1.42,1.32
			c0.29,0.64,0.31,1.3,0.06,1.95c-0.25,0.66-0.69,1.13-1.33,1.41l-3.5,1.58c-0.25,0.11-0.42,0.3-0.51,0.55
			c-0.09,0.25-0.08,0.5,0.02,0.74c0.11,0.24,0.28,0.41,0.53,0.52c0.24,0.1,0.49,0.1,0.75-0.02l3.52-1.59
			C465.94,150.53,466.73,149.7,467.17,148.54z"/>
		<path class="st4" d="M461.52,133.82c0.28-0.06,0.48-0.21,0.61-0.45c0.13-0.23,0.17-0.47,0.11-0.72c-0.06-0.27-0.21-0.47-0.43-0.61
			c-0.23-0.14-0.47-0.18-0.74-0.12l-3.61,0.84c-0.69,0.16-1.33,0.05-1.93-0.32c-0.59-0.37-0.97-0.9-1.13-1.58
			c-0.16-0.69-0.06-1.33,0.31-1.92c0.37-0.59,0.9-0.97,1.59-1.13l3.62-0.84c0.27-0.06,0.47-0.21,0.61-0.43
			c0.14-0.23,0.18-0.47,0.12-0.73c-0.06-0.27-0.21-0.47-0.43-0.61c-0.16-0.1-0.32-0.15-0.5-0.15c-0.08,0-0.16,0.01-0.24,0.03
			l-3.63,0.84c-1.21,0.28-2.15,0.95-2.8,2c-0.66,1.05-0.84,2.18-0.57,3.38c0.28,1.2,0.95,2.13,2,2.79c1.05,0.66,2.19,0.84,3.4,0.56
			L461.52,133.82z"/>
		<path class="st4" d="M459.15,116.53c0.2-0.24,0.29-0.44,0.28-0.62c-0.01-0.18-0.13-0.37-0.36-0.58c-0.21-0.19-0.42-0.29-0.63-0.29
			c-0.02,0-0.03,0-0.05,0l-7.3,0.5c-0.23,0.02-0.44,0.14-0.63,0.38c-0.2,0.24-0.29,0.44-0.28,0.62c0.01,0.18,0.13,0.37,0.36,0.58
			c0.23,0.21,0.45,0.3,0.68,0.29l7.3-0.5C458.74,116.89,458.95,116.77,459.15,116.53z"/>
		<path class="st4" d="M450.9,106.34c0.26,0.03,0.5-0.04,0.72-0.21c0.21-0.17,0.33-0.39,0.36-0.66l0.25-2.55l6.32,0.63
			c0.27,0.03,0.51-0.04,0.72-0.21c0.21-0.17,0.32-0.39,0.35-0.66c0.03-0.26-0.05-0.5-0.21-0.7c-0.17-0.21-0.39-0.32-0.66-0.35
			l-6.32-0.63l0.25-2.52c0.03-0.27-0.05-0.51-0.22-0.72c-0.18-0.21-0.4-0.32-0.66-0.35c-0.04,0-0.08-0.01-0.11-0.01
			c-0.23,0-0.43,0.07-0.61,0.22c-0.21,0.17-0.33,0.39-0.35,0.66l-0.7,7c-0.03,0.27,0.04,0.51,0.22,0.72
			C450.4,106.19,450.62,106.31,450.9,106.34z"/>
		<path class="st4" d="M457.4,89.35c1.16,0.36,2.31,0.26,3.43-0.29c1.12-0.55,1.85-1.39,2.2-2.51c0.03-0.1,0.08-0.25,0.13-0.44
			c0.06-0.19,0.1-0.34,0.13-0.44c0.07-0.23,0.04-0.46-0.09-0.66c-0.13-0.21-0.31-0.35-0.54-0.42c-0.23-0.07-0.46-0.05-0.68,0.06
			c-0.22,0.11-0.37,0.28-0.44,0.5c-0.03,0.1-0.07,0.24-0.13,0.43c-0.06,0.19-0.1,0.33-0.13,0.43c-0.15,0.5-0.46,0.91-0.93,1.24
			c-0.46,0.33-0.98,0.51-1.54,0.53l1.02-3.33c0.07-0.23,0.05-0.44-0.07-0.66c-0.12-0.21-0.3-0.36-0.54-0.43
			c-0.23-0.07-0.46-0.05-0.68,0.06c-0.22,0.11-0.37,0.28-0.44,0.5l-1.02,3.33c-0.45-0.33-0.77-0.77-0.97-1.3
			c-0.2-0.53-0.22-1.05-0.07-1.55l0.27-0.88c0.07-0.23,0.04-0.45-0.08-0.66c-0.12-0.21-0.3-0.36-0.53-0.43
			c-0.09-0.03-0.18-0.04-0.28-0.04c-0.14,0-0.27,0.03-0.41,0.1c-0.22,0.11-0.37,0.28-0.44,0.5l-0.27,0.88
			c-0.03,0.13,0.01,0.3,0.13,0.5l-0.19-0.31c-0.28,1.09-0.1,2.16,0.51,3.2C455.39,88.3,456.27,89,457.4,89.35z"/>
		<path class="st4" d="M459.03,73.84l6.51,3.33c0.24,0.12,0.49,0.15,0.74,0.07c0.25-0.08,0.43-0.23,0.55-0.46l0.62-1.21
			c0.54-1.06,0.59-2.18,0.13-3.37c-0.44-1.16-1.2-2.02-2.3-2.58c-0.7-0.36-1.41-0.53-2.15-0.53c-0.43,0-0.86,0.06-1.31,0.18
			c-1.21,0.33-2.08,1.02-2.62,2.08l-0.42,0.82C458.36,72.98,458.44,73.54,459.03,73.84z M460.94,72.25c0.3-0.58,0.79-0.97,1.48-1.15
			c0.69-0.18,1.35-0.11,1.99,0.22c0.64,0.33,1.08,0.82,1.34,1.48c0.26,0.66,0.24,1.29-0.06,1.87l-0.19,0.38l-4.75-2.43L460.94,72.25
			z"/>
	</g>
</g>
</svg>
