<svg xmlns="http://www.w3.org/2000/svg" width="22" height="22" viewBox="0 0 22 22">
  <path id="search_02" data-name="search 02" d="M19.444,18.359a.767.767,0,0,0-1.085,1.085Zm2.5,4.667a.767.767,0,1,0,1.085-1.085Zm.287-11.287A10.488,10.488,0,0,0,11.738,1.25V2.785a8.953,8.953,0,0,1,8.953,8.953ZM11.738,1.25A10.488,10.488,0,0,0,1.25,11.738H2.785a8.953,8.953,0,0,1,8.953-8.953ZM1.25,11.738A10.488,10.488,0,0,0,11.738,22.227V20.692a8.953,8.953,0,0,1-8.953-8.953ZM11.738,22.227A10.488,10.488,0,0,0,22.227,11.738H20.692a8.953,8.953,0,0,1-8.953,8.953Zm6.62-2.783,3.581,3.581,1.085-1.085-3.581-3.581Z" transform="translate(-1.25 -1.25)" fill="#969696"/>
</svg>
