<svg xmlns="http://www.w3.org/2000/svg" width="28" height="28" viewBox="0 0 28 28">
  <g id="Group_330" data-name="Group 330" transform="translate(-1276 -448)">
    <rect id="Rectangle_444" data-name="Rectangle 444" width="28" height="28" transform="translate(1276 448)" fill="none"/>
    <path id="internet" d="M2.25,15.25a13,13,0,1,1,13,13A13,13,0,0,1,2.25,15.25Zm2.045-1a11.009,11.009,0,0,1,7.914-9.574,12.25,12.25,0,0,0-.736,1.773,27.85,27.85,0,0,0-1.21,7.8Zm0,2a11.009,11.009,0,0,0,7.914,9.574,12.244,12.244,0,0,1-.736-1.773,27.849,27.849,0,0,1-1.21-7.8Zm7.969,0a25.832,25.832,0,0,0,1.106,7.169,7.685,7.685,0,0,0,1.108,2.269c.389.493.657.562.772.562s.383-.069.772-.562a7.685,7.685,0,0,0,1.108-2.269,25.832,25.832,0,0,0,1.106-7.169Zm7.973,0a27.846,27.846,0,0,1-1.21,7.8,12.236,12.236,0,0,1-.736,1.773,11.009,11.009,0,0,0,7.914-9.574Zm5.969-2H20.237a27.847,27.847,0,0,0-1.21-7.8,12.242,12.242,0,0,0-.736-1.773A11.009,11.009,0,0,1,26.205,14.25Zm-7.969,0H12.264A25.832,25.832,0,0,1,13.37,7.081a7.685,7.685,0,0,1,1.108-2.269c.389-.493.657-.562.772-.562s.383.069.772.562A7.685,7.685,0,0,1,17.13,7.081,25.831,25.831,0,0,1,18.236,14.25Z" transform="translate(1274.75 446.75)" fill="#fff" fill-rule="evenodd"/>
  </g>
</svg>
