<?xml version="1.0" encoding="utf-8"?>
<!-- Generator: Adobe Illustrator 27.9.0, SVG Export Plug-In . SVG Version: 6.00 Build 0)  -->
<svg version="1.1" id="Layer_1" xmlns="http://www.w3.org/2000/svg" xmlns:xlink="http://www.w3.org/1999/xlink" x="0px" y="0px"
	 viewBox="0 0 650.56 630.34" style="enable-background:new 0 0 650.56 630.34;" xml:space="preserve">
<style type="text/css">
	.st0{fill:#231F20;}
	.st1{fill:#4D4D4F;}
	.st2{fill:#F0CF0E;}
	.st3{fill-rule:evenodd;clip-rule:evenodd;fill:#4D4D4F;}
	.st4{fill:#2B4BA0;}
	.st5{fill:#B42F40;}
	.st6{fill:#FFFFFF;}
	.st7{clip-path:url(#SVGID_00000058583120708866193840000003774058234639537833_);}
	.st8{fill-rule:evenodd;clip-rule:evenodd;fill:#FFFFFF;}
	.st9{opacity:0.7;}
	.st10{clip-path:url(#SVGID_00000138550660778216442990000002700082826420765835_);}
	.st11{clip-path:url(#SVGID_00000007413778827469858590000013327882461244507022_);}
	.st12{clip-path:url(#SVGID_00000150806733747378126560000006606878498184815768_);}
</style>
<g>
	<g>
		<g>
			<g>
				<g>
					<defs>
						
							<rect id="SVGID_00000034066593718600280520000001586512023193060243_" x="584.56" y="796.66" transform="matrix(-1 -1.224647e-16 1.224647e-16 -1 1652.499 2076.7012)" width="483.38" height="483.38"/>
					</defs>
					<clipPath id="SVGID_00000029044502261589539130000008429445059846450111_">
						<use xlink:href="#SVGID_00000034066593718600280520000001586512023193060243_"  style="overflow:visible;"/>
					</clipPath>
					<g style="clip-path:url(#SVGID_00000029044502261589539130000008429445059846450111_);">
						<rect x="576.01" y="571.88" class="st6" width="43.25" height="86.5"/>
						<path class="st6" d="M619.26,571.88c0,22.94,9.11,44.94,25.34,61.16c16.22,16.22,38.22,25.34,61.16,25.34v-86.5H619.26z
							 M619.26,571.88"/>
					</g>
				</g>
			</g>
		</g>
	</g>
</g>
<g>
	<g>
		<path class="st6" d="M594.04,584.59H425.72L45.37,45.75h168.32L594.04,584.59z M444.39,548.57h80.13l-329.5-466.8h-80.13
			L444.39,548.57z"/>
	</g>
	<polygon class="st6" points="293.63,366.22 266.47,342.56 55.75,584.37 103.53,584.37 	"/>
	<polygon class="st6" points="524.57,46.37 337.99,260.48 365.15,284.15 572.35,46.37 	"/>
</g>
</svg>
