<?xml version="1.0" encoding="utf-8"?>
<!-- Generator: Adobe Illustrator 27.9.0, SVG Export Plug-In . SVG Version: 6.00 Build 0)  -->
<svg version="1.1" id="Layer_1" xmlns="http://www.w3.org/2000/svg" xmlns:xlink="http://www.w3.org/1999/xlink" x="0px" y="0px"
	 viewBox="0 0 678.65 220.23" style="enable-background:new 0 0 678.65 220.23;" xml:space="preserve">
<style type="text/css">
	.st0{fill:#231F20;}
	.st1{fill:#4D4D4F;}
	.st2{fill:#F0CF0E;}
	.st3{fill-rule:evenodd;clip-rule:evenodd;fill:#4D4D4F;}
	.st4{fill:#2B4BA0;}
	.st5{fill:#B42F40;}
	.st6{fill:#FFFFFF;}
	.st7{clip-path:url(#SVGID_00000003815502480021578220000014577218786855014552_);}
	.st8{fill-rule:evenodd;clip-rule:evenodd;fill:#FFFFFF;}
	.st9{opacity:0.7;}
	.st10{clip-path:url(#SVGID_00000014622363591938883760000010255231020089326772_);}
	.st11{clip-path:url(#SVGID_00000045611522292607132210000002805762214862659734_);}
	.st12{clip-path:url(#SVGID_00000163791866595858431150000003810289021742333074_);}
	.st13{clip-path:url(#SVGID_00000144333623589896897400000008212650983371639198_);}
	.st14{fill:#D52B1E;}
	.st15{fill:#0039A6;}
	.st16{fill:none;stroke:#F0CF0E;stroke-width:11.6992;stroke-miterlimit:10;}
	.st17{clip-path:url(#SVGID_00000021826404098015755490000004853497335528277924_);}
	.st18{fill:#E30A17;}
	.st19{filter:url(#Adobe_OpacityMaskFilter);}
	.st20{fill:url(#SVGID_00000151507519854359443130000011090043699547418301_);}
	
		.st21{opacity:0.1;mask:url(#SVGID_00000013166533051742227560000014804985167751188614_);fill:url(#SVGID_00000084504305336165540880000008527096739500500654_);}
	.st22{filter:url(#Adobe_OpacityMaskFilter_00000047022806983383648430000002768866733507950480_);}
	.st23{fill:url(#SVGID_00000154416196086402473610000009238223736484994745_);}
	.st24{mask:url(#SVGID_00000003105503681335287710000008406241827745820837_);}
	.st25{filter:url(#Adobe_OpacityMaskFilter_00000009573601635306286480000007608144680871406737_);}
	.st26{filter:url(#Adobe_OpacityMaskFilter_00000148619811898208173990000003198472263676935319_);}
	.st27{fill:url(#SVGID_00000083071395638131039120000005731340948038347438_);}
	.st28{opacity:0.2;fill:url(#SVGID_00000166654821432228735310000006678796513216445370_);}
	.st29{clip-path:url(#SVGID_00000019654518097032405650000010973082532219228345_);}
	.st30{clip-path:url(#SVGID_00000052089468264949063440000007184845100328530351_);fill:#EDEDED;}
	.st31{clip-path:url(#SVGID_00000052089468264949063440000007184845100328530351_);fill:#49A044;}
	.st32{clip-path:url(#SVGID_00000052089468264949063440000007184845100328530351_);fill:#C7001B;}
	.st33{clip-path:url(#SVGID_00000052089468264949063440000007184845100328530351_);}
	.st34{clip-path:url(#SVGID_00000048461149382762127540000002856003516965874840_);}
	.st35{fill:#C7001B;}
	.st36{clip-path:url(#SVGID_00000048461149382762127540000002856003516965874840_);fill:#EDEDED;}
	.st37{clip-path:url(#SVGID_00000139269286384168565500000002511809315329502876_);}
	.st38{clip-path:url(#SVGID_00000147190472572926289310000000066868032630860438_);fill:#3D9635;}
	.st39{fill:#EDEDED;}
	.st40{fill:#A09F9F;}
</style>
<g>
	<g>
		<path class="st6" d="M638.53,35.41c1.01,1.03,1.52,2.42,1.52,4.18c0,1.16-0.24,2.18-0.73,3.04c-0.49,0.87-1.15,1.53-2,1.99
			c-0.85,0.46-1.8,0.69-2.86,0.69c-1.68,0-3.03-0.51-4.05-1.54c-1.01-1.02-1.52-2.42-1.52-4.19c0-1.14,0.24-2.15,0.73-3.02
			c0.49-0.87,1.15-1.54,2-2c0.85-0.47,1.8-0.7,2.84-0.7C636.16,33.86,637.52,34.38,638.53,35.41z M631.47,36.29
			c-0.73,0.77-1.09,1.87-1.09,3.29c0,1.42,0.36,2.52,1.09,3.29c0.73,0.77,1.73,1.16,2.99,1.16s2.27-0.39,3.01-1.16
			c0.74-0.77,1.11-1.87,1.11-3.29c0-1.42-0.37-2.52-1.11-3.29c-0.74-0.77-1.74-1.16-3.01-1.16S632.2,35.52,631.47,36.29z
			 M636.8,38.39c0,0.4-0.07,0.72-0.2,0.95c-0.13,0.23-0.36,0.45-0.69,0.64l1.17,2.26h-1.56l-0.94-1.95h-0.99v1.95h-1.38v-5.52h2.13
			C635.99,36.72,636.8,37.28,636.8,38.39z M633.6,39.17h0.88c0.59,0,0.89-0.23,0.89-0.7c0-0.43-0.35-0.65-1.04-0.65h-0.73V39.17z"/>
	</g>
	<g>
		<path class="st6" d="M58.1,72.73l2.52,0.41l-0.05,15.6c0,1.64,0.35,2.82,1.05,3.54c0.7,0.72,1.79,1.08,3.26,1.08h1.03
			c0.21,0,0.34,0.06,0.41,0.18c0.07,0.12,0.1,0.23,0.1,0.33v3.03c0,0.1-0.03,0.21-0.1,0.33c-0.07,0.12-0.2,0.18-0.41,0.18H64
			c-2.67,0-4.65-0.76-5.95-2.28c-1.3-1.52-1.95-3.55-1.95-6.08V76.78c-1.78-0.41-3.3-0.62-4.57-0.62c-2.6,0-4.64,0.85-6.11,2.54
			c-1.47,1.69-2.21,3.84-2.21,6.44c0,2.29,0.7,4.23,2.1,5.83c1.4,1.59,3.37,2.39,5.9,2.39h3.7l-1.8,4.05h-2.16
			c-2.53,0-4.73-0.56-6.59-1.69c-1.87-1.13-3.29-2.65-4.29-4.57c-0.99-1.92-1.49-4.02-1.49-6.31c0-2.22,0.52-4.31,1.57-6.26
			c1.04-1.95,2.57-3.52,4.57-4.7c2-1.18,4.35-1.77,7.06-1.77C53.43,72.11,55.53,72.32,58.1,72.73z M44.6,67.59v-5.18h4.82v5.18H44.6
			z M54.25,67.59v-5.18h4.83v5.18H54.25z"/>
		<path class="st6" d="M80.99,89.87c1.37,2.33,4.17,3.49,8.42,3.49c0.21,0,0.34,0.06,0.41,0.18c0.07,0.12,0.1,0.23,0.1,0.33v3.03
			c0,0.07-0.03,0.17-0.1,0.31c-0.07,0.14-0.2,0.21-0.41,0.21c-2.4,0-4.36-0.34-5.9-1.03c-1.54-0.68-2.87-1.76-4-3.23
			c-0.89,1.3-2.04,2.34-3.44,3.11c-1.4,0.77-2.98,1.15-4.72,1.15H65.9c-0.21,0-0.34-0.06-0.41-0.18c-0.07-0.12-0.1-0.23-0.1-0.33
			v-3.03c0-0.1,0.03-0.21,0.1-0.33c0.07-0.12,0.2-0.18,0.41-0.18h4.62c1.88,0,3.42-0.64,4.62-1.92c1.2-1.28,1.8-2.9,1.8-4.85V72.42
			h4.47V87C81.4,87.92,81.27,88.88,80.99,89.87z M70.11,108.4v-5.18h4.83v5.18H70.11z M79.76,108.4v-5.18h4.82v5.18H79.76z"/>
		<path class="st6" d="M109.71,73.86c2.04,1.16,3.58,2.71,4.65,4.65c1.06,1.93,1.59,4.03,1.59,6.29c0,2.09-0.38,3.95-1.13,5.59
			c1.27,1.99,3.3,2.98,6.11,2.98c0.2,0,0.34,0.06,0.41,0.18c0.07,0.12,0.1,0.23,0.1,0.33v3.03c0,0.1-0.03,0.21-0.1,0.33
			c-0.07,0.12-0.21,0.18-0.41,0.18c-3.25,0-5.94-1.33-8.06-4c-2.29,2.67-5.37,4-9.24,4H89.41c-0.21,0-0.34-0.07-0.41-0.21
			c-0.07-0.14-0.1-0.24-0.1-0.31v-3.03c0-0.1,0.03-0.21,0.1-0.33c0.07-0.12,0.2-0.18,0.41-0.18h4.16V73.19
			c3.83-0.72,6.79-1.08,8.88-1.08C105.25,72.11,107.68,72.69,109.71,73.86z M98.03,76.63v16.73h4.98c2.67,0,4.72-0.73,6.16-2.18
			c1.44-1.45,2.16-3.53,2.16-6.24c0-2.6-0.77-4.71-2.31-6.34c-1.54-1.62-3.73-2.44-6.57-2.44C100.87,76.17,99.4,76.32,98.03,76.63z"
			/>
		<path class="st6" d="M136.02,89.87c1.37,2.33,4.17,3.49,8.42,3.49c0.21,0,0.34,0.06,0.41,0.18c0.07,0.12,0.1,0.23,0.1,0.33v3.03
			c0,0.07-0.03,0.17-0.1,0.31c-0.07,0.14-0.2,0.21-0.41,0.21c-2.4,0-4.36-0.34-5.9-1.03c-1.54-0.68-2.87-1.76-4-3.23
			c-0.89,1.3-2.04,2.34-3.44,3.11c-1.4,0.77-2.98,1.15-4.72,1.15h-5.44c-0.21,0-0.34-0.06-0.41-0.18c-0.07-0.12-0.1-0.23-0.1-0.33
			v-3.03c0-0.1,0.03-0.21,0.1-0.33c0.07-0.12,0.2-0.18,0.41-0.18h4.62c1.88,0,3.42-0.64,4.62-1.92c1.2-1.28,1.8-2.9,1.8-4.85V72.42
			h4.47V87C136.43,87.92,136.29,88.88,136.02,89.87z M125.14,108.4v-5.18h4.83v5.18H125.14z M134.79,108.4v-5.18h4.82v5.18H134.79z"
			/>
		<path class="st6" d="M155.93,89.97c1.2,2.26,3.32,3.39,6.37,3.39c0.2,0,0.34,0.06,0.41,0.18c0.07,0.12,0.1,0.23,0.1,0.33v3.03
			c0,0.1-0.03,0.21-0.1,0.33c-0.07,0.12-0.21,0.18-0.41,0.18c-3.22,0-5.89-1.33-8.01-4c-1.99,2.67-4.65,4-8.01,4h-1.85
			c-0.21,0-0.34-0.06-0.41-0.18c-0.07-0.12-0.1-0.23-0.1-0.33v-3.03c0-0.1,0.03-0.21,0.1-0.33c0.07-0.12,0.2-0.18,0.41-0.18h1.03
			c1.88,0,3.42-0.64,4.62-1.92c1.2-1.28,1.8-2.9,1.8-4.85V58.1h4.47V87C156.34,88.13,156.21,89.12,155.93,89.97z"/>
		<path class="st6" d="M185.01,72.52c2.04,0.96,3.64,2.22,4.8,3.8c1.16,1.57,1.75,3.25,1.75,5.03c0,2.05-0.7,4.12-2.1,6.19
			c-1.4,2.07-3.18,3.82-5.34,5.26c2.53,0.38,5.73,0.56,9.6,0.56c0.44,0,0.67,0.19,0.67,0.56v2.93c0,0.38-0.22,0.56-0.67,0.56
			c-5.2,0-9.91-0.67-14.12-2c-4.24,1.33-9.99,2-17.25,2c-0.38,0-0.56-0.19-0.56-0.56v-2.93c0-0.38,0.19-0.56,0.56-0.56
			c5.24,0,9.02-0.21,11.34-0.62c-3.01-3.01-6.19-7.31-9.55-12.88l1.23-4.88c4.62-2.6,8.93-3.9,12.94-3.9
			C180.74,71.09,182.98,71.56,185.01,72.52z M168.2,78.58c1.09,2.16,2.71,4.65,4.85,7.49c2.14,2.84,4.03,4.89,5.67,6.16
			c2.26-1.2,4.21-2.7,5.85-4.52c1.64-1.81,2.46-3.7,2.46-5.65c0-2.16-0.91-3.78-2.72-4.88c-1.81-1.09-3.95-1.64-6.42-1.64
			C175.03,75.55,171.79,76.56,168.2,78.58z"/>
		<path class="st6" d="M208.96,89.87c1.37,2.33,4.17,3.49,8.42,3.49c0.21,0,0.34,0.06,0.41,0.18c0.07,0.12,0.1,0.23,0.1,0.33v3.03
			c0,0.07-0.03,0.17-0.1,0.31c-0.07,0.14-0.2,0.21-0.41,0.21c-2.4,0-4.36-0.34-5.9-1.03c-1.54-0.68-2.87-1.76-4-3.23
			c-0.89,1.3-2.04,2.34-3.44,3.11c-1.4,0.77-2.98,1.15-4.72,1.15h-5.44c-0.21,0-0.34-0.06-0.41-0.18c-0.07-0.12-0.1-0.23-0.1-0.33
			v-3.03c0-0.1,0.03-0.21,0.1-0.33c0.07-0.12,0.2-0.18,0.41-0.18h4.62c1.88,0,3.42-0.64,4.62-1.92c1.2-1.28,1.8-2.9,1.8-4.85V72.42
			h4.47V87C209.37,87.92,209.23,88.88,208.96,89.87z M199.72,67.59v-5.18h4.82v5.18H199.72z M209.37,67.59v-5.18h4.82v5.18H209.37z"
			/>
		<path class="st6" d="M217.37,97.42c-0.21,0-0.34-0.07-0.41-0.21c-0.07-0.14-0.1-0.24-0.1-0.31v-3.03c0-0.1,0.03-0.21,0.1-0.33
			c0.07-0.12,0.2-0.18,0.41-0.18h6.47V58.1h4.47v39.32H217.37z"/>
		<path class="st6" d="M238.06,97.42V58.1h4.47v39.32H238.06z"/>
		<path class="st6" d="M284.36,90.51c0.86,0.5,2.05,0.74,3.59,0.74c0.21,0,0.34,0.06,0.41,0.18c0.07,0.12,0.1,0.23,0.1,0.33v5.13
			c0,0.1-0.03,0.21-0.1,0.33c-0.07,0.12-0.2,0.18-0.41,0.18c-2.91,0-5.21-0.28-6.9-0.85c-1.69-0.56-2.99-1.46-3.87-2.69
			c-3.15,2.36-6.49,3.54-10.01,3.54h-6.26l-2.77-6.16h7.96c3.76,0,6.79-0.68,9.08-2.05l-6.83-17.76h7.7l6.42,16.68
			C282.87,89.22,283.5,90.02,284.36,90.51z"/>
		<path class="st6" d="M304.48,89.15c0.75,0.82,1.61,1.38,2.57,1.67c0.96,0.29,2.43,0.44,4.41,0.44c0.21,0,0.34,0.06,0.41,0.18
			c0.07,0.12,0.1,0.23,0.1,0.33v5.13c0,0.1-0.03,0.21-0.1,0.33c-0.07,0.12-0.2,0.18-0.41,0.18c-2.16-0.03-3.88-0.33-5.18-0.9
			c-1.3-0.56-2.53-1.57-3.7-3c-0.89,1.23-2.01,2.19-3.36,2.87c-1.35,0.68-2.85,1.03-4.49,1.03h-6.78c-0.21,0-0.34-0.06-0.41-0.18
			c-0.07-0.12-0.1-0.23-0.1-0.33v-5.13c0-0.1,0.03-0.21,0.1-0.33c0.07-0.12,0.2-0.18,0.41-0.18h4.62c1.37,0,2.54-0.54,3.52-1.62
			s1.46-2.51,1.46-4.29V71.44h7.19v15.04C304.73,87.34,304.65,88.23,304.48,89.15z M292.21,67.59v-6.47h7.39v6.47H292.21z
			 M302.48,67.59v-6.47h7.39v6.47H302.48z"/>
		<path class="st6" d="M310.89,108.4v-6.47h7.39v6.47H310.89z M311.46,97.42c-0.21,0-0.34-0.06-0.41-0.18
			c-0.07-0.12-0.1-0.23-0.1-0.33v-5.13c0-0.1,0.03-0.21,0.1-0.33c0.07-0.12,0.2-0.18,0.41-0.18h8.73v-19.3h7.13v25.46H311.46z
			 M321.16,108.4v-6.47h7.39v6.47H321.16z"/>
		<path class="st6" d="M342.95,90.15c0.67,0.74,1.65,1.1,2.95,1.1h1.03c0.21,0,0.34,0.06,0.41,0.18c0.07,0.12,0.1,0.23,0.1,0.33
			v5.13c0,0.1-0.03,0.21-0.1,0.33c-0.07,0.12-0.2,0.18-0.41,0.18h-3.18c-2.91,0-5.13-0.9-6.67-2.69c-1.54-1.8-2.31-4.2-2.31-7.21
			V58.1h7.19v28.28C341.95,88.16,342.28,89.42,342.95,90.15z"/>
		<path class="st6" d="M346.93,97.42c-0.21,0-0.34-0.06-0.41-0.18c-0.07-0.12-0.1-0.23-0.1-0.33v-5.13c0-0.1,0.03-0.21,0.1-0.33
			c0.07-0.12,0.2-0.18,0.41-0.18h5.13v-19.3h7.13v25.46H346.93z M351.9,67.59v-6.47h7.39v6.47H351.9z"/>
		<path class="st6" d="M392.3,91.46c0.07,0.14,0.1,0.24,0.1,0.31v5.13c0,0.1-0.03,0.21-0.1,0.33c-0.07,0.12-0.21,0.18-0.41,0.18
			h-3.23c-0.31,3.87-1.57,6.67-3.77,8.42c-2.21,1.75-5.31,2.94-9.32,3.59l-2.87-6.42c2.12-0.27,3.81-0.66,5.06-1.15
			c1.25-0.5,2.2-1.23,2.85-2.21c0.65-0.98,0.98-2.3,0.98-3.98V77.96c-1.2-0.24-2.29-0.36-3.29-0.36c-4.18,0-6.26,2.34-6.26,7.03
			c0,2.05,0.54,3.67,1.62,4.85c1.08,1.18,2.63,1.77,4.65,1.77h2.26l-2.77,6.16h-0.72c-2.36,0-4.49-0.53-6.39-1.59
			c-1.9-1.06-3.39-2.57-4.47-4.52c-1.08-1.95-1.62-4.21-1.62-6.78c0-2.46,0.58-4.7,1.74-6.7s2.8-3.57,4.9-4.7
			c2.1-1.13,4.54-1.69,7.31-1.69c2.36,0,5.77,0.34,10.21,1.03v18.79h3.13C392.09,91.26,392.23,91.33,392.3,91.46z"/>
		<path class="st6" d="M391.32,108.4v-6.47h7.39v6.47H391.32z M391.89,97.42c-0.21,0-0.34-0.06-0.41-0.18
			c-0.07-0.12-0.1-0.23-0.1-0.33v-5.13c0-0.1,0.03-0.21,0.1-0.33c0.07-0.12,0.2-0.18,0.41-0.18h8.73v-19.3h7.13v25.46H391.89z
			 M401.59,108.4v-6.47h7.39v6.47H401.59z"/>
	</g>
	<g>
		<path class="st6" d="M92.79,147.1v-2.53h2.04v2.53H92.79z"/>
		<path class="st6" d="M98.21,147.1v-2.53h2.04v2.53H98.21z"/>
		<path class="st6" d="M103.63,147.1v-2.53h2.04v2.53H103.63z"/>
		<path class="st6" d="M118.78,145.44c0.38,0.38,0.98,0.57,1.8,0.57h0.54c0.11,0,0.18,0.03,0.22,0.1c0.04,0.06,0.05,0.12,0.05,0.18
			v0.98c0,0.05-0.02,0.11-0.05,0.18c-0.04,0.06-0.11,0.1-0.22,0.1h-0.6c-1.36,0-2.35-0.37-2.97-1.1c-0.62-0.74-0.93-1.69-0.93-2.87
			v-16.89h1.58v16.94C118.2,144.45,118.4,145.06,118.78,145.44z"/>
		<path class="st6" d="M126.81,143.78c0.29,0.67,0.76,1.21,1.4,1.62c0.64,0.41,1.44,0.61,2.38,0.61c0.11,0,0.18,0.03,0.22,0.1
			c0.04,0.06,0.05,0.12,0.05,0.18v0.98c0,0.05-0.02,0.11-0.05,0.18c-0.04,0.06-0.11,0.1-0.22,0.1c-1.89,0-3.38-0.78-4.47-2.34
			c-0.47,0.71-1.09,1.28-1.85,1.7c-0.76,0.43-1.62,0.64-2.56,0.64h-0.6c-0.11,0-0.18-0.03-0.22-0.1c-0.04-0.06-0.05-0.12-0.05-0.18
			v-0.98c0-0.05,0.02-0.11,0.05-0.18c0.04-0.06,0.11-0.1,0.22-0.1h0.54c1.14,0,2.07-0.37,2.78-1.12c0.71-0.74,1.06-1.66,1.06-2.75
			v-7.57h1.58v7.6C127.08,142.71,126.99,143.25,126.81,143.78z M125.31,131.71v-2.37h1.8v2.37H125.31z"/>
		<path class="st6" d="M144.46,133.49c1.34,0.7,2.41,1.76,3.19,3.17c0.78,1.42,1.17,3.17,1.17,5.26v5.61H130.6
			c-0.11,0-0.18-0.03-0.22-0.1c-0.04-0.06-0.05-0.12-0.05-0.18v-0.98c0-0.05,0.02-0.11,0.05-0.18c0.04-0.06,0.11-0.1,0.22-0.1h4.49
			c-1.51-0.89-2.26-2.35-2.26-4.39c0-0.94,0.22-1.84,0.65-2.68c0.44-0.84,1.08-1.53,1.92-2.04c0.84-0.52,1.86-0.78,3.04-0.78
			c1.16,0,2.13,0.25,2.9,0.76c0.77,0.51,1.34,1.15,1.72,1.93c0.37,0.78,0.56,1.59,0.56,2.42v4.77h3.62v-4.09
			c0-2.45-0.64-4.39-1.93-5.81c-1.29-1.43-3.18-2.14-5.66-2.14h-2.94l-0.63-1.53h3.89C141.62,132.45,143.12,132.8,144.46,133.49z
			 M135.53,138.85c-0.71,0.8-1.06,1.8-1.06,3c0,1.2,0.4,2.18,1.2,2.96c0.8,0.77,1.92,1.18,3.35,1.21h3.02v-4.6
			c0-1.11-0.31-2.01-0.94-2.71c-0.63-0.7-1.5-1.05-2.63-1.05C137.22,137.65,136.24,138.05,135.53,138.85z"/>
		<path class="st6" d="M177.06,146.1c0.04,0.06,0.06,0.12,0.06,0.18v0.98c0,0.05-0.02,0.11-0.06,0.18c-0.04,0.06-0.11,0.1-0.22,0.1
			h-4.09v4.85h-6.56c-1.13,0-2.15-0.2-3.06-0.6c-0.92-0.4-1.65-0.99-2.19-1.78c-0.55-0.79-0.82-1.73-0.82-2.82v-6.43h1.58v6.43
			c0,1.05,0.4,1.93,1.19,2.63c0.79,0.7,1.93,1.05,3.42,1.05h4.88v-16.29h1.58v11.44h4.09C176.95,146.01,177.02,146.04,177.06,146.1z
			 M165.27,134.05v-2.37h1.8v2.37H165.27z"/>
		<path class="st6" d="M187.6,135.24c1.03,0.63,1.79,1.44,2.27,2.45c0.48,1.01,0.72,2.1,0.72,3.28c0,1.02-0.17,2.14-0.5,3.36
			c-0.34,1.23-0.74,2.29-1.21,3.2h-12.04c-0.11,0-0.18-0.03-0.22-0.1c-0.04-0.06-0.05-0.12-0.05-0.18v-0.98
			c0-0.05,0.02-0.11,0.05-0.18c0.04-0.06,0.11-0.1,0.22-0.1h2.51v-11.14c1.74-0.38,3.2-0.57,4.36-0.57
			C185.27,134.3,186.57,134.61,187.6,135.24z M180.93,136.12v9.89h6.97c0.71-1.58,1.06-3.24,1.06-4.98c0-1.4-0.42-2.61-1.25-3.65
			s-2.2-1.55-4.08-1.55C182.73,135.82,181.84,135.92,180.93,136.12z"/>
		<path class="st6" d="M205.06,125.11l-0.41,1.32c-0.54-0.15-0.96-0.22-1.25-0.22c-0.24,0-0.45,0.07-0.65,0.2
			c-0.2,0.14-0.3,0.36-0.3,0.67c0,0.33,0.13,0.59,0.38,0.79h2.61v1.23h-5.31l0.33-1.23h1.01c-0.18-0.36-0.27-0.7-0.27-1.01
			c0-0.6,0.18-1.11,0.53-1.54c0.35-0.43,0.85-0.64,1.48-0.64C203.68,124.68,204.3,124.83,205.06,125.11z M202.17,147.53v-16.78h1.58
			v16.78H202.17z"/>
		<path class="st6" d="M219.89,145.63c0.44,0.25,1.17,0.38,2.17,0.38c0.11,0,0.18,0.03,0.22,0.1c0.04,0.06,0.05,0.12,0.05,0.18v0.98
			c0,0.05-0.02,0.11-0.05,0.18c-0.04,0.06-0.11,0.1-0.22,0.1c-2.02,0-3.42-0.63-4.22-1.88c-1.63,1.25-3.4,1.88-5.31,1.88h-4.82
			l-0.68-1.53h5.72c1.89,0,3.41-0.47,4.58-1.42l-4.17-10.29h1.83l3.89,10.05C219.1,144.95,219.44,145.37,219.89,145.63z"/>
		<path class="st6" d="M227.75,143.78c0.29,0.67,0.76,1.21,1.4,1.62c0.64,0.41,1.44,0.61,2.38,0.61c0.11,0,0.18,0.03,0.22,0.1
			c0.04,0.06,0.05,0.12,0.05,0.18v0.98c0,0.05-0.02,0.11-0.05,0.18c-0.04,0.06-0.11,0.1-0.22,0.1c-1.89,0-3.38-0.78-4.47-2.34
			c-0.47,0.71-1.09,1.28-1.85,1.7c-0.76,0.43-1.62,0.64-2.56,0.64h-0.6c-0.11,0-0.18-0.03-0.22-0.1c-0.04-0.06-0.05-0.12-0.05-0.18
			v-0.98c0-0.05,0.02-0.11,0.05-0.18c0.04-0.06,0.11-0.1,0.22-0.1h0.54c1.14,0,2.07-0.37,2.78-1.12c0.71-0.74,1.06-1.66,1.06-2.75
			v-7.57h1.58v7.6C228.02,142.71,227.93,143.25,227.75,143.78z M226.08,153.36v-2.37h1.8v2.37H226.08z"/>
		<path class="st6" d="M231.53,147.53c-0.11,0-0.18-0.03-0.22-0.1c-0.04-0.06-0.05-0.12-0.05-0.18v-0.98c0-0.05,0.02-0.11,0.05-0.18
			c0.04-0.06,0.11-0.1,0.22-0.1h5.8v-11.44h1.58v12.96H231.53z M232.54,153.36v-2.37h1.8v2.37H232.54z M237.5,153.36v-2.37h1.8v2.37
			H237.5z"/>
		<path class="st6" d="M258.89,135.89c1.08,1.06,1.97,2.49,2.68,4.29l1.5,3.79c0.27,0.67,0.68,1.17,1.24,1.5
			c0.55,0.33,1.29,0.53,2.22,0.6l-0.63,1.47c-1.6-0.16-2.82-0.84-3.68-2.04c-4.34,0.06-7.42,0.63-9.23,1.72
			c-0.69,0.42-1.21,0.91-1.57,1.47c-0.35,0.56-0.53,1.3-0.53,2.21c0,0.98,0.36,1.97,1.09,2.97l-0.03,0.05h-1.77
			c-0.24-0.4-0.45-0.89-0.64-1.47c-0.19-0.58-0.29-1.13-0.29-1.63c0-2.58,1.19-4.31,3.55-5.19c2.37-0.88,5.26-1.36,8.68-1.43
			l-1.63-3.98c-0.62-1.53-1.37-2.63-2.25-3.31c-0.88-0.68-2.04-1.02-3.47-1.02c-1.07,0-2.19,0.32-3.35,0.95l-0.65-1.36
			c0.94-0.44,1.71-0.74,2.3-0.91c0.59-0.17,1.35-0.26,2.27-0.26C256.42,134.3,257.81,134.83,258.89,135.89z"/>
		<path class="st6" d="M272.22,145.44c0.38,0.38,0.98,0.57,1.8,0.57h0.54c0.11,0,0.18,0.03,0.22,0.1c0.04,0.06,0.05,0.12,0.05,0.18
			v0.98c0,0.05-0.02,0.11-0.05,0.18c-0.04,0.06-0.11,0.1-0.22,0.1h-0.6c-1.36,0-2.35-0.37-2.97-1.1c-0.62-0.74-0.93-1.69-0.93-2.87
			v-16.89h1.58v16.94C271.65,144.45,271.84,145.06,272.22,145.44z"/>
		<path class="st6" d="M285.28,135.89c1.08,1.06,1.97,2.49,2.68,4.29l1.5,3.79c0.27,0.71,0.68,1.23,1.24,1.55s1.29,0.49,2.22,0.49
			c0.11,0,0.18,0.03,0.22,0.1c0.04,0.06,0.06,0.12,0.06,0.18v0.98c0,0.05-0.02,0.11-0.06,0.18c-0.04,0.06-0.11,0.1-0.22,0.1
			c-1.87,0-3.29-0.64-4.25-1.91c-1.18,0.62-2.5,1.09-3.96,1.42s-2.87,0.49-4.24,0.49h-5.91c-0.11,0-0.18-0.03-0.22-0.1
			c-0.04-0.06-0.05-0.12-0.05-0.18v-0.98c0-0.05,0.02-0.11,0.05-0.18c0.04-0.06,0.11-0.1,0.22-0.1h5.91c2.58,0,5.11-0.48,7.6-1.44
			c-0.07-0.16-0.12-0.26-0.14-0.3l-1.69-4.06c-0.62-1.53-1.37-2.63-2.25-3.31c-0.88-0.68-2.04-1.02-3.47-1.02
			c-1.07,0-2.19,0.32-3.35,0.95l-0.65-1.36c0.94-0.44,1.71-0.74,2.3-0.91c0.59-0.17,1.35-0.26,2.27-0.26
			C282.81,134.3,284.2,134.83,285.28,135.89z M280.77,153.36v-2.37h1.8v2.37H280.77z"/>
		<path class="st6" d="M298.61,143.78c0.29,0.67,0.76,1.21,1.4,1.62c0.64,0.41,1.44,0.61,2.38,0.61c0.11,0,0.18,0.03,0.22,0.1
			c0.04,0.06,0.05,0.12,0.05,0.18v0.98c0,0.05-0.02,0.11-0.05,0.18c-0.04,0.06-0.11,0.1-0.22,0.1c-1.89,0-3.38-0.78-4.47-2.34
			c-0.47,0.71-1.09,1.28-1.85,1.7c-0.76,0.43-1.62,0.64-2.56,0.64h-0.6c-0.11,0-0.18-0.03-0.22-0.1c-0.04-0.06-0.05-0.12-0.05-0.18
			v-0.98c0-0.05,0.02-0.11,0.05-0.18c0.04-0.06,0.11-0.1,0.22-0.1h0.54c1.14,0,2.07-0.37,2.78-1.12c0.71-0.74,1.06-1.66,1.06-2.75
			v-7.57h1.58v7.6C298.89,142.71,298.79,143.25,298.61,143.78z M297.12,131.71v-2.37h1.8v2.37H297.12z"/>
		<path class="st6" d="M308.09,143.78c0.29,0.67,0.76,1.21,1.4,1.62c0.64,0.41,1.44,0.61,2.38,0.61c0.11,0,0.18,0.03,0.22,0.1
			c0.04,0.06,0.05,0.12,0.05,0.18v0.98c0,0.05-0.02,0.11-0.05,0.18c-0.04,0.06-0.11,0.1-0.22,0.1c-1.89,0-3.38-0.78-4.47-2.34
			c-0.47,0.71-1.09,1.28-1.85,1.7c-0.76,0.43-1.62,0.64-2.56,0.64h-0.6c-0.11,0-0.18-0.03-0.22-0.1c-0.04-0.06-0.05-0.12-0.05-0.18
			v-0.98c0-0.05,0.02-0.11,0.05-0.18c0.04-0.06,0.11-0.1,0.22-0.1h0.54c1.14,0,2.07-0.37,2.78-1.12c0.71-0.74,1.06-1.66,1.06-2.75
			v-15.47h1.58v15.5C308.36,142.71,308.27,143.25,308.09,143.78z"/>
		<path class="st6" d="M311.88,147.53c-0.11,0-0.18-0.03-0.22-0.1c-0.04-0.06-0.05-0.12-0.05-0.18v-0.98c0-0.05,0.02-0.11,0.05-0.18
			c0.04-0.06,0.11-0.1,0.22-0.1h3.84v-19.34h1.58v20.86H311.88z"/>
		<path class="st6" d="M350.14,145.44c0.38,0.38,0.98,0.57,1.8,0.57h0.54c0.11,0,0.18,0.03,0.22,0.1c0.04,0.06,0.06,0.12,0.06,0.18
			v0.98c0,0.05-0.02,0.11-0.06,0.18c-0.04,0.06-0.11,0.1-0.22,0.1h-0.6c-1.63,0-2.76-0.56-3.38-1.69c-1.56,1.13-3.25,1.69-5.07,1.69
			h-8.09c-1.13,0-2.15-0.2-3.06-0.6c-0.92-0.4-1.65-0.99-2.19-1.78c-0.55-0.79-0.82-1.73-0.82-2.82v-3.95h1.58v3.95
			c0,1.05,0.4,1.93,1.19,2.63c0.79,0.7,1.93,1.05,3.42,1.05h8.2c1.82,0,3.3-0.44,4.44-1.31c-0.07-0.31-0.11-0.69-0.11-1.14v-17.43
			h1.58v17.49C349.57,144.45,349.76,145.06,350.14,145.44z M341.95,132.77l-0.46,1.31c-0.47-0.15-0.86-0.22-1.17-0.22
			c-0.4,0-0.73,0.13-0.99,0.4c-0.26,0.26-0.4,0.63-0.4,1.1c0,0.6,0.25,1.08,0.76,1.44h3.57v1.36h-7.41l0.33-1.36h1.93
			c-0.4-0.47-0.6-0.99-0.6-1.55c0-0.78,0.25-1.44,0.75-1.97c0.5-0.54,1.18-0.8,2.06-0.8C340.73,132.47,341.27,132.57,341.95,132.77z
			"/>
		<path class="st6" d="M366.16,134.92v5.91c0,1.2-0.2,2.25-0.6,3.16c0.33,0.6,0.8,1.09,1.42,1.46c0.62,0.37,1.37,0.56,2.26,0.56
			c0.11,0,0.18,0.03,0.22,0.1c0.04,0.06,0.05,0.12,0.05,0.18v0.98c0,0.05-0.02,0.11-0.05,0.18c-0.04,0.06-0.11,0.1-0.22,0.1
			c-1.85,0-3.32-0.74-4.41-2.23c-1.13,1.49-2.82,2.23-5.09,2.23h-7.24c-0.11,0-0.18-0.03-0.22-0.1c-0.04-0.06-0.05-0.12-0.05-0.18
			v-0.98c0-0.05,0.02-0.11,0.05-0.18c0.04-0.06,0.11-0.1,0.22-0.1h4.96c-0.85-0.53-1.5-1.23-1.93-2.11
			c-0.44-0.88-0.65-1.86-0.65-2.93c0-1.13,0.26-2.2,0.78-3.21c0.52-1.02,1.28-1.85,2.3-2.49c1.02-0.64,2.24-0.97,3.68-0.97
			C362.72,134.3,364.23,134.51,366.16,134.92z M358.76,136.59c-0.75,0.51-1.32,1.18-1.7,2c-0.38,0.83-0.57,1.69-0.57,2.6
			c0,0.8,0.17,1.56,0.52,2.29c0.35,0.73,0.86,1.32,1.54,1.78c0.68,0.46,1.5,0.71,2.46,0.75c1.16-0.29,2.05-0.87,2.66-1.73
			c0.61-0.86,0.91-1.96,0.91-3.28v-4.77c-1.16-0.27-2.2-0.41-3.1-0.41C360.42,135.82,359.52,136.08,358.76,136.59z M358.1,131.71
			v-2.37h1.8v2.37H358.1z M363.05,131.71v-2.37h1.8v2.37H363.05z"/>
		<path class="st6" d="M369.23,147.53c-0.11,0-0.18-0.03-0.22-0.1c-0.04-0.06-0.05-0.12-0.05-0.18v-0.98c0-0.05,0.02-0.11,0.05-0.18
			c0.04-0.06,0.11-0.1,0.22-0.1h5.8v-11.44h1.58v12.96H369.23z M370.24,153.36v-2.37h1.8v2.37H370.24z M375.2,153.36v-2.37h1.8v2.37
			H375.2z"/>
		<path class="st6" d="M387.78,146.12c0.04,0.07,0.06,0.13,0.06,0.16v0.98c0,0.05-0.02,0.11-0.06,0.18c-0.04,0.06-0.11,0.1-0.22,0.1
			c-1.38,0-2.5-0.52-3.35-1.55v1.91c0,1.65-0.39,2.97-1.16,3.95c-0.77,0.98-1.97,1.67-3.61,2.07l-0.65-1.44
			c1.29-0.16,2.25-0.61,2.89-1.33c0.64-0.73,0.95-1.77,0.95-3.13v-13.43h1.58v8.88c0.67,1.71,1.79,2.56,3.35,2.56
			C387.67,146.01,387.75,146.05,387.78,146.12z"/>
		<path class="st6" d="M398.1,135.32c1.47-0.68,3-1.02,4.6-1.02c1.56,0,2.86,0.31,3.9,0.94c1.04,0.63,1.79,1.44,2.27,2.45
			c0.48,1.01,0.72,2.1,0.72,3.28c0,1.02-0.17,2.14-0.5,3.36c-0.34,1.23-0.74,2.29-1.21,3.2h-20.32c-0.11,0-0.18-0.03-0.22-0.1
			c-0.04-0.06-0.05-0.12-0.05-0.18v-0.98c0-0.05,0.02-0.11,0.05-0.18c0.04-0.06,0.11-0.1,0.22-0.1h3.7v-19.34h1.58v11.71
			C394.88,137.02,396.63,136,398.1,135.32z M398.17,136.82c-1.5,0.66-3.27,1.74-5.32,3.23v5.97h14.05c0.71-1.58,1.06-3.24,1.06-4.98
			c0-1.4-0.42-2.61-1.25-3.65s-2.2-1.55-4.09-1.55C401.15,135.82,399.67,136.16,398.17,136.82z"/>
	</g>
	<g>
		<path class="st6" d="M541.9,30.9v151.78c-6.66-0.27-13.1-1.4-19.21-3.28v-63.08h-33.7c1.93,11.79,7.47,22.35,15.46,30.53
			l-12.78,13.97c-13.94-13.77-22.58-32.89-22.58-54.04c0-21.55,8.98-41.01,23.4-54.83l11.83,15.37
			c-7.77,8.02-13.21,18.31-15.22,29.79h33.59V34.17C528.8,32.3,535.24,31.17,541.9,30.9z"/>
		<path class="st6" d="M621,106.78c0,14.81-4.24,28.64-11.58,40.32c-3.67,5.84-8.1,11.15-13.17,15.77l-9.42-16.76l-2.65-4.72
			l-4.49,11.13l-10.62,26.33c-0.22,0.07-0.45,0.15-0.68,0.22c-0.69,0.22-1.38,0.44-2.08,0.64c-5.54,1.61-11.34,2.61-17.33,2.92
			l0.02-18.69l0.15-113.85l0.03-19.16c6.64,0.36,13.05,1.56,19.13,3.52l0.01,20.35l0.04,74.45l3.76-9.31l4.47-11.09v0l2.92-7.24
			l18.98,26.03c2.48-6.4,3.85-13.36,3.85-20.64c0-15.84-6.46-30.17-16.88-40.51l10.45-16.14C611.31,64.27,621,84.4,621,106.78z"/>
	</g>
	<path class="st6" d="M631.88,70.17c-4.77-11.38-11.62-21.6-20.36-30.38c-8.74-8.79-18.92-15.69-30.27-20.53
		c-11.75-5.01-24.24-7.57-37.12-7.61c-12.88-0.04-25.38,2.45-37.16,7.39c-11.38,4.77-21.6,11.62-30.38,20.36
		c-4.72,4.7-8.9,9.81-12.51,15.3l9.8,4.65c15.32-22.4,41.1-37.1,70.23-37.02c46.72,0.13,84.62,38.25,84.48,84.97
		c-0.13,46.72-38.25,84.62-84.97,84.48c-29.15-0.08-54.87-14.95-70.05-37.48l-9.81,4.61c3.58,5.52,7.74,10.67,12.45,15.41
		c8.74,8.79,18.92,15.69,30.27,20.53c11.75,5.01,24.24,7.57,37.12,7.61c12.88,0.04,25.38-2.45,37.16-7.39
		c11.38-4.77,21.6-11.62,30.38-20.36c8.79-8.74,15.69-18.92,20.53-30.27c5.01-11.75,7.57-24.24,7.61-37.12
		C639.31,94.46,636.82,81.96,631.88,70.17z"/>
	<g>
		<path class="st6" d="M467.98,144.72c0.44-1.16,0.41-2.31-0.1-3.44c-0.51-1.14-1.35-1.92-2.51-2.35c-0.54-0.2-1.07-0.3-1.6-0.3
			c-0.62,0-1.23,0.14-1.84,0.41l-3.52,1.59c-0.25,0.11-0.42,0.29-0.52,0.54c-0.09,0.25-0.09,0.49,0.02,0.74
			c0.11,0.25,0.29,0.42,0.54,0.52c0.25,0.09,0.5,0.09,0.75-0.03l3.51-1.58c0.63-0.29,1.28-0.31,1.94-0.06
			c0.66,0.25,1.13,0.69,1.42,1.33c0.29,0.65,0.31,1.3,0.06,1.95c-0.25,0.66-0.7,1.13-1.33,1.42l-3.5,1.58
			c-0.25,0.11-0.42,0.3-0.51,0.55c-0.09,0.25-0.08,0.5,0.02,0.74c0.11,0.24,0.28,0.41,0.53,0.52c0.24,0.1,0.49,0.1,0.75-0.02
			l3.52-1.59C466.75,146.72,467.54,145.89,467.98,144.72z"/>
		<path class="st6" d="M462.32,130c0.28-0.06,0.48-0.21,0.61-0.45c0.13-0.23,0.17-0.47,0.11-0.72c-0.06-0.27-0.21-0.47-0.43-0.61
			c-0.23-0.14-0.47-0.18-0.74-0.12l-3.61,0.84c-0.69,0.16-1.33,0.05-1.93-0.32c-0.59-0.37-0.97-0.9-1.13-1.58
			c-0.16-0.69-0.06-1.33,0.31-1.93c0.37-0.59,0.9-0.97,1.59-1.13l3.62-0.84c0.27-0.06,0.47-0.21,0.61-0.43
			c0.14-0.23,0.18-0.47,0.12-0.73c-0.06-0.27-0.21-0.47-0.43-0.61c-0.16-0.1-0.32-0.15-0.5-0.15c-0.08,0-0.16,0.01-0.24,0.03
			l-3.63,0.84c-1.21,0.28-2.15,0.95-2.81,2c-0.66,1.05-0.85,2.18-0.57,3.39c0.28,1.2,0.95,2.14,2,2.79
			c1.05,0.66,2.19,0.84,3.41,0.56L462.32,130z"/>
		<path class="st6" d="M459.95,112.69c0.2-0.24,0.29-0.44,0.28-0.62c-0.01-0.18-0.13-0.37-0.36-0.58c-0.21-0.19-0.42-0.29-0.63-0.29
			c-0.02,0-0.03,0-0.05,0l-7.3,0.5c-0.23,0.02-0.44,0.14-0.63,0.38c-0.2,0.24-0.29,0.44-0.28,0.62c0.01,0.18,0.13,0.37,0.36,0.58
			c0.23,0.21,0.45,0.3,0.68,0.29l7.3-0.5C459.55,113.05,459.76,112.93,459.95,112.69z"/>
		<path class="st6" d="M451.7,102.49c0.27,0.03,0.5-0.04,0.72-0.21c0.21-0.17,0.33-0.39,0.36-0.66l0.25-2.55l6.33,0.63
			c0.27,0.03,0.51-0.04,0.72-0.21c0.21-0.17,0.32-0.39,0.35-0.66c0.03-0.26-0.05-0.5-0.21-0.7c-0.17-0.21-0.39-0.32-0.66-0.35
			l-6.33-0.63l0.25-2.52c0.03-0.27-0.05-0.51-0.22-0.72c-0.18-0.21-0.4-0.32-0.66-0.35c-0.04,0-0.08-0.01-0.11-0.01
			c-0.23,0-0.43,0.07-0.61,0.22c-0.21,0.17-0.33,0.39-0.35,0.66l-0.7,7c-0.03,0.27,0.04,0.51,0.22,0.72
			C451.2,102.35,451.42,102.46,451.7,102.49z"/>
		<path class="st6" d="M458.21,85.49c1.16,0.36,2.31,0.26,3.43-0.29c1.12-0.55,1.86-1.39,2.2-2.51c0.03-0.1,0.08-0.25,0.14-0.44
			c0.06-0.19,0.1-0.34,0.14-0.44c0.07-0.23,0.04-0.46-0.09-0.67c-0.13-0.21-0.31-0.35-0.54-0.42c-0.23-0.07-0.46-0.05-0.68,0.06
			c-0.22,0.11-0.37,0.28-0.44,0.5c-0.03,0.1-0.07,0.24-0.13,0.43c-0.06,0.19-0.1,0.33-0.13,0.43c-0.15,0.5-0.46,0.91-0.93,1.24
			c-0.46,0.33-0.98,0.51-1.54,0.53l1.02-3.33c0.07-0.23,0.05-0.45-0.07-0.66c-0.12-0.21-0.3-0.36-0.54-0.43
			c-0.23-0.07-0.46-0.05-0.68,0.06c-0.22,0.11-0.37,0.28-0.44,0.5l-1.02,3.33c-0.45-0.33-0.77-0.77-0.97-1.3
			c-0.2-0.53-0.22-1.05-0.07-1.55l0.27-0.88c0.07-0.23,0.04-0.45-0.08-0.66c-0.12-0.21-0.3-0.36-0.53-0.43
			c-0.09-0.03-0.18-0.04-0.28-0.04c-0.14,0-0.27,0.03-0.41,0.1c-0.22,0.11-0.37,0.28-0.44,0.5l-0.27,0.88
			c-0.03,0.13,0.01,0.3,0.13,0.5l-0.19-0.31c-0.28,1.09-0.1,2.16,0.51,3.2C456.19,84.44,457.07,85.14,458.21,85.49z"/>
		<path class="st6" d="M459.84,69.97l6.52,3.33c0.24,0.12,0.49,0.15,0.74,0.07c0.25-0.08,0.43-0.23,0.55-0.46l0.62-1.21
			c0.54-1.06,0.59-2.18,0.13-3.37c-0.44-1.16-1.21-2.02-2.31-2.58c-0.7-0.36-1.41-0.53-2.15-0.53c-0.43,0-0.86,0.06-1.31,0.18
			c-1.21,0.33-2.08,1.02-2.62,2.08l-0.42,0.82C459.16,69.11,459.25,69.67,459.84,69.97z M461.75,68.38c0.3-0.59,0.79-0.97,1.48-1.15
			c0.69-0.18,1.35-0.11,1.99,0.22c0.64,0.33,1.08,0.82,1.34,1.49c0.26,0.66,0.24,1.29-0.06,1.87l-0.19,0.38l-4.75-2.43L461.75,68.38
			z"/>
	</g>
</g>
</svg>
