<?xml version="1.0" encoding="utf-8"?>
<!-- Generator: Adobe Illustrator 27.9.0, SVG Export Plug-In . SVG Version: 6.00 Build 0)  -->
<svg version="1.1" id="Layer_1" xmlns="http://www.w3.org/2000/svg" xmlns:xlink="http://www.w3.org/1999/xlink" x="0px" y="0px"
	 viewBox="0 0 650.56 630.34" style="enable-background:new 0 0 650.56 630.34;" xml:space="preserve">
<style type="text/css">
	.st0{fill:#231F20;}
</style>
<g>
	<path class="st0" d="M610.73,570.18L610.73,570.18L344.5,315.01l5.19-6.67c24.33-31.26,37.19-68.68,37.19-108.19
		c0-97.35-79.2-176.55-176.55-176.55c-97.35,0-176.56,79.2-176.56,176.55c0,97.35,79.2,176.56,176.56,176.56
		c35.64,0,70.02-10.64,99.43-30.76l6.5-4.45l267.22,256.15c3.65,3.62,8.49,5.61,13.63,5.61c5.2,0,10.08-2.03,13.74-5.72
		c3.64-3.67,5.64-8.53,5.61-13.7C616.43,578.67,614.4,573.82,610.73,570.18z M210.32,338c-76.01,0-137.85-61.84-137.85-137.85
		S134.31,62.3,210.32,62.3c76.01,0,137.85,61.84,137.85,137.85S286.34,338,210.32,338z"/>
</g>
</svg>
