<?xml version="1.0" encoding="utf-8"?>
<!-- Generator: Adobe Illustrator 28.2.0, SVG Export Plug-In . SVG Version: 6.00 Build 0)  -->
<svg version="1.1" id="Layer_1" xmlns="http://www.w3.org/2000/svg" xmlns:xlink="http://www.w3.org/1999/xlink" x="0px" y="0px"
	 viewBox="0 0 11.9 11.6" style="enable-background:new 0 0 11.9 11.6;" xml:space="preserve">
<style type="text/css">
	.st0{fill:#141416;}
	.st1{fill:#FFFFFF;}
</style>
<path class="st1" d="M11.7,9.2c-0.3,0.2-0.7,0.4-1.2,0.5c-0.1,0-0.2,0.1-0.2,0.2l-0.1,0.2c-0.1,0.2-0.3,0.4-0.5,0.4
	c-2.3,0.1-2,1-3.8,1s-1.4-0.9-3.8-1c-0.2,0-0.5-0.2-0.5-0.4L1.6,9.9c0-0.1-0.1-0.2-0.2-0.2C0.9,9.6,0.5,9.4,0.2,9.2
	C-0.1,9,0,8.6,0.2,8.5c2.2-1.1,2.2-2.3,2.2-2.3l-1-0.8C1.1,5.2,1,4.8,1.2,4.4C1.3,4.2,1.6,4,1.9,4c0.1,0,0.1,0,0.2,0l0.7,0.2
	C2.6,4,2.6,3.7,2.6,3.3c0-1.8,1.5-3.3,3.3-3.3s3.3,1.5,3.3,3.3c0,0.3,0,0.6-0.1,0.9l0.7-0.2c0.3-0.1,0.7,0.1,0.9,0.4
	c0.1,0.1,0.1,0.3,0.1,0.4c0,0.2-0.1,0.5-0.3,0.6l-1,0.8c0,0,0,1.2,2.2,2.3C11.9,8.6,12,9,11.7,9.2z"/>
</svg>
