<svg xmlns="http://www.w3.org/2000/svg" width="18" height="20" viewBox="0 0 18 20">
  <g id="Group_328" data-name="Group 328" transform="translate(-2218 138)">
    <path id="Path_724" data-name="Path 724" d="M7,15.5H17A2.5,2.5,0,0,1,19.5,18v4H21V18a4,4,0,0,0-4-4H7a4,4,0,0,0-4,4v4H4.5V18A2.5,2.5,0,0,1,7,15.5Z" transform="translate(2215 -140)" fill="#fff"/>
    <path id="Path_725" data-name="Path 725" d="M12,10.5A3.5,3.5,0,1,0,8.5,7,3.5,3.5,0,0,0,12,10.5ZM12,12A5,5,0,1,0,7,7,5,5,0,0,0,12,12Z" transform="translate(2215 -140)" fill="#fff" fill-rule="evenodd"/>
  </g>
</svg>
