<?xml version="1.0" encoding="utf-8"?>
<!-- Generator: Adobe Illustrator 27.9.0, SVG Export Plug-In . SVG Version: 6.00 Build 0)  -->
<svg version="1.1" id="Layer_1" xmlns="http://www.w3.org/2000/svg" xmlns:xlink="http://www.w3.org/1999/xlink" x="0px" y="0px"
	 viewBox="0 0 650.56 630.34" style="enable-background:new 0 0 650.56 630.34;" xml:space="preserve">
<style type="text/css">
	.st0{fill:#231F20;}
	.st1{fill:#4D4D4F;}
	.st2{fill:#F0CF0E;}
	.st3{fill-rule:evenodd;clip-rule:evenodd;fill:#4D4D4F;}
	.st4{fill:#2B4BA0;}
	.st5{fill:#B42F40;}
	.st6{fill:#FFFFFF;}
	.st7{clip-path:url(#SVGID_00000183929477223053325240000001159837115185644718_);}
	.st8{fill-rule:evenodd;clip-rule:evenodd;fill:#FFFFFF;}
	.st9{opacity:0.7;}
	.st10{clip-path:url(#SVGID_00000139980252782409120780000004527661146896534407_);}
	.st11{clip-path:url(#SVGID_00000167387272219534250470000010182422835929420701_);}
	.st12{clip-path:url(#SVGID_00000129201082880440091430000014370073517806864297_);}
	.st13{clip-path:url(#SVGID_00000054984079114442466690000005994151750539766160_);}
	.st14{clip-path:url(#SVGID_00000164487117317371706340000015643059907617374086_);fill:#EDEDED;}
	.st15{clip-path:url(#SVGID_00000164487117317371706340000015643059907617374086_);fill:#49A044;}
	.st16{clip-path:url(#SVGID_00000164487117317371706340000015643059907617374086_);fill:#C7001B;}
	.st17{clip-path:url(#SVGID_00000164487117317371706340000015643059907617374086_);}
	.st18{clip-path:url(#SVGID_00000158015682868469468730000007356500351474672306_);}
	.st19{fill:#C7001B;}
	.st20{clip-path:url(#SVGID_00000158015682868469468730000007356500351474672306_);fill:#EDEDED;}
	.st21{fill:none;stroke:#F0CF0E;stroke-width:11.6992;stroke-miterlimit:10;}
	.st22{clip-path:url(#SVGID_00000090254408767963276240000012743060432889857419_);}
	.st23{clip-path:url(#SVGID_00000136410878627753784790000016672419462053904803_);fill:#3D9635;}
	.st24{fill:#EDEDED;}
</style>
<g>
	<g>
		<g>
			<g>
				<defs>
					
						<rect id="SVGID_1_" x="90.44" y="831.27" transform="matrix(-1 -1.224647e-16 1.224647e-16 -1 632.0965 2113.7488)" width="451.22" height="451.22"/>
				</defs>
				<clipPath id="SVGID_00000062873066079903950080000017073054162873119361_">
					<use xlink:href="#SVGID_1_"  style="overflow:visible;"/>
				</clipPath>
				<g style="clip-path:url(#SVGID_00000062873066079903950080000017073054162873119361_);">
					<path class="st6" d="M203.58,701.38l0.81,0.81h4.57l-5.38-5.38V701.38z M203.58,692.24l9.95,9.95h4.57l-14.51-14.51V692.24z
						 M203.58,683.11l19.08,19.08h4.57l-23.65-23.65V683.11z M203.58,673.97l28.22,28.22h4.57l-32.78-32.78V673.97z M203.58,664.84
						l37.35,37.35h4.57l-41.92-41.92V664.84z M203.58,655.7l46.49,46.49h4.57l-51.05-51.05V655.7z M203.58,646.56l55.62,55.62h4.57
						L203.58,642V646.56z M203.58,637.43l64.76,64.76h4.57l-69.32-69.32V637.43z M203.58,628.29l73.89,73.89h4.57l-78.46-78.46
						V628.29z M205.86,621.44l78.46,78.46v-4.57l-73.89-73.89H205.86z M214.99,621.44l69.33,69.33v-4.57l-64.76-64.76H214.99z
						 M224.13,621.44l60.19,60.19v-4.57l-55.62-55.62H224.13z M233.27,621.44l51.05,51.05v-4.57l-46.49-46.49H233.27z M242.4,621.44
						l41.92,41.92v-4.57l-37.35-37.35H242.4z M251.54,621.44l32.78,32.78v-4.57l-28.22-28.22H251.54z M260.67,621.44l23.65,23.65
						v-4.57l-19.08-19.08H260.67z M269.81,621.44l14.51,14.51v-4.57l-9.95-9.95H269.81z M278.94,621.44l5.38,5.38v-4.57l-0.81-0.81
						H278.94z M278.94,621.44"/>
					<path class="st6" d="M445.81,622.26l0.81-0.81h4.57l-5.38,5.38V622.26z M445.81,631.39l9.95-9.95h4.57l-14.51,14.51V631.39z
						 M445.81,640.53l19.08-19.08h4.57l-23.65,23.65V640.53z M445.81,649.66l28.22-28.22h4.57l-32.78,32.78V649.66z M445.81,658.8
						l37.35-37.35h4.57l-41.92,41.92V658.8z M445.81,667.93l46.49-46.49h4.57l-51.05,51.05V667.93z M445.81,677.07l55.62-55.62H506
						l-60.19,60.19V677.07z M445.81,686.2l64.76-64.76h4.57l-69.32,69.32V686.2z M445.81,695.34l73.89-73.89h4.57l-78.46,78.46
						V695.34z M448.09,702.19l78.46-78.46v4.57l-73.89,73.89H448.09z M457.23,702.19l69.33-69.33v4.57l-64.76,64.76H457.23z
						 M466.36,702.19L526.55,642v4.57l-55.62,55.62H466.36z M475.5,702.19l51.05-51.05v4.57l-46.49,46.49H475.5z M484.63,702.19
						l41.92-41.92v4.57l-37.35,37.35H484.63z M493.77,702.19l32.78-32.78v4.57l-28.22,28.22H493.77z M502.9,702.19l23.65-23.65v4.57
						l-19.08,19.08H502.9z M512.04,702.19l14.51-14.51v4.57l-9.95,9.95H512.04z M521.17,702.19l5.38-5.38v4.57l-0.81,0.81H521.17z
						 M521.17,702.19"/>
					<rect x="82.46" y="621.44" class="st6" width="40.37" height="80.74"/>
					<path class="st6" d="M284.32,702.19h80.74v-3.23h-80.74V702.19z M284.32,695.73h80.74v-3.23h-80.74V695.73z M284.32,689.27
						h80.74v-3.23h-80.74V689.27z M284.32,682.81h80.74v-3.23h-80.74V682.81z M284.32,676.35h80.74v-3.23h-80.74V676.35z
						 M284.32,669.89h80.74v-3.23h-80.74V669.89z M284.32,663.43h80.74v-3.23h-80.74V663.43z M284.32,656.97h80.74v-3.23h-80.74
						V656.97z M284.32,650.51h80.74v-3.23h-80.74V650.51z M284.32,644.05h80.74v-3.23h-80.74V644.05z M284.32,637.59h80.74v-3.23
						h-80.74V637.59z M284.32,631.13h80.74v-3.23h-80.74V631.13z M284.32,624.67h80.74v-3.23h-80.74V624.67z M284.32,624.67"/>
					<path class="st6" d="M526.55,624.05h-80.74l80.74,80.74V624.05z M526.55,624.05"/>
					<path class="st6" d="M122.83,621.44c0,21.41,8.51,41.95,23.65,57.09c15.14,15.14,35.68,23.65,57.09,23.65v-80.74H122.83z
						 M122.83,621.44"/>
					<rect x="365.06" y="621.44" class="st6" width="80.74" height="40.37"/>
				</g>
			</g>
		</g>
	</g>
</g>
<g>
	<g id="Mask__x26__Flag">
		<g>
			<defs>
				<path id="SVGID_00000049938667037179415640000016813761878311760040_" d="M634.61,316.25c0,170.58-138.28,308.86-308.87,308.86
					c-170.57,0-308.85-138.28-308.85-308.86c0-170.58,138.28-308.86,308.85-308.86C496.33,7.39,634.61,145.67,634.61,316.25z"/>
			</defs>
			<clipPath id="SVGID_00000000937014574042220380000017653823159415187349_">
				<use xlink:href="#SVGID_00000049938667037179415640000016813761878311760040_"  style="overflow:visible;"/>
			</clipPath>
			<g style="clip-path:url(#SVGID_00000000937014574042220380000017653823159415187349_);">
				<g>
					<defs>
						
							<rect id="SVGID_00000017499614917028327770000007302268695356919692_" x="-108.37" y="-10.28" width="923.9" height="653.05"/>
					</defs>
					<clipPath id="SVGID_00000119798273084309186270000008246868051578242478_">
						<use xlink:href="#SVGID_00000017499614917028327770000007302268695356919692_"  style="overflow:visible;"/>
					</clipPath>
					
						<rect x="-88.94" y="-10.28" style="clip-path:url(#SVGID_00000119798273084309186270000008246868051578242478_);fill:#EDEDED;" width="904.47" height="653.05"/>
					
						<rect x="-88.94" y="-10.28" style="clip-path:url(#SVGID_00000119798273084309186270000008246868051578242478_);fill:#49A044;" width="904.47" height="218.19"/>
					
						<rect x="-88.94" y="424.62" style="clip-path:url(#SVGID_00000119798273084309186270000008246868051578242478_);fill:#C7001B;" width="904.47" height="218.16"/>
					<g style="clip-path:url(#SVGID_00000119798273084309186270000008246868051578242478_);">
						<defs>
							
								<rect id="SVGID_00000012449934731707467110000017313144995532766087_" x="-130.73" y="-10.28" width="979.56" height="653.05"/>
						</defs>
						<clipPath id="SVGID_00000145736856385426712590000003778665429796783249_">
							<use xlink:href="#SVGID_00000012449934731707467110000017313144995532766087_"  style="overflow:visible;"/>
						</clipPath>
						<g style="clip-path:url(#SVGID_00000145736856385426712590000003778665429796783249_);">
							<path class="st19" d="M313.87,247.35c4.28,1.12,8.79-0.19,11.89-3.39c4.73,4.93,12.53,5.04,17.4,0.23
								c3.14-3.13,4.43-7.73,3.33-12.08c-4.13,6.81-12.92,8.92-19.63,4.7c-0.36-0.22-0.76-0.46-1.1-0.75
								c-6.29,4.83-15.23,3.55-19.99-2.84c-0.24-0.32-0.52-0.72-0.75-1.11C303.32,238.83,307.29,245.64,313.87,247.35z"/>
							<path class="st19" d="M340.42,382.7c15.34-8.53,27.98-22.32,35-40.09c12.76-32.44,3.14-69.6-23.75-91.41
								c27.27,37.79,19.53,90.73-17.18,118.85l1.62-114.9l-10.37-8.55l-10.35,8.55l1.63,114.91
								c-36.72-28.12-44.48-81.07-17.2-118.86c-26.87,21.81-36.51,58.97-23.73,91.41c7,17.78,19.64,31.57,34.99,40.09
								c-11.83,4.13-24.52,5.58-37.16,4.07c14.31,5.82,29.3,7.01,43.4,4.3l0.01,0.96l8.41,9.87l8.44-9.87l0.01-0.95
								c14.1,2.7,29.09,1.51,43.39-4.31C364.95,388.28,352.26,386.82,340.42,382.7z"/>
							<path class="st19" d="M402.6,281.73c-8.69-16.32-23.59-28.3-41.22-33.17c37.62,27.81,45.95,81.31,18.57,119.52
								c-1.36,1.91-2.82,3.75-4.31,5.53C408.07,355.81,420.13,314.67,402.6,281.73z"/>
							<path class="st19" d="M271.56,368.08c-27.38-38.2-19.05-91.71,18.57-119.52c-17.63,4.87-32.53,16.85-41.21,33.17
								c-17.54,32.94-5.47,74.07,26.95,91.88C274.36,371.83,272.9,369.99,271.56,368.08z"/>
						</g>
						<path style="clip-path:url(#SVGID_00000145736856385426712590000003778665429796783249_);fill:#EDEDED;" d="M-39.47,197.52
							H-35v-10.39h13.35v10.39H0.6v-15.58h-13.33v5.19h8.9v5.2h-13.36v-10.39h-22.28V197.52z M-30.56,197.52h4.46v-5.2h-4.46V197.52
							z M-39.47,176.75h57.89v-5.2h-57.89V176.75z M18.42,197.52H5.06v-15.58h17.81v-10.39h4.46v20.78h4.45v-20.78h4.45v20.78h4.46
							v-20.78h4.43v25.97H22.87v-10.39H9.53v5.2h8.89V197.52z"/>
						<path style="clip-path:url(#SVGID_00000145736856385426712590000003778665429796783249_);fill:#EDEDED;" d="M49.6,197.52h4.46
							v-10.39h13.35v10.39h22.26v-15.58H76.32v5.19h8.92v5.2H71.86v-10.39H49.6V197.52z M58.49,197.52h4.46v-5.2h-4.46V197.52z
							 M49.6,176.75h57.89v-5.2H49.6V176.75z M107.49,197.52H94.13v-15.58h17.8v-10.39h4.46v20.78h4.45v-20.78h4.45v20.78h4.46
							v-20.78h4.45v25.97h-22.27v-10.39H98.56v5.2h8.93V197.52z"/>
						<path style="clip-path:url(#SVGID_00000145736856385426712590000003778665429796783249_);fill:#EDEDED;" d="M138.66,197.52
							h4.43v-10.39h13.36v10.39h22.28v-15.58h-13.38v5.19h8.93v5.2h-13.36v-10.39h-22.26V197.52z M147.56,197.52h4.46v-5.2h-4.46
							V197.52z M138.66,176.75h57.86v-5.2h-57.86V176.75z M196.52,197.52h-13.35v-15.58h17.81v-10.39h4.46v20.78h4.43v-20.78h4.46
							v20.78h4.45v-20.78h4.45v25.97h-22.26v-10.39h-13.36v5.2h8.89V197.52z"/>
						<path style="clip-path:url(#SVGID_00000145736856385426712590000003778665429796783249_);fill:#EDEDED;" d="M227.71,197.52
							h4.45v-10.39h13.36v10.39h22.26v-15.58h-13.36v5.19h8.9v5.2h-13.33v-10.39h-22.28V197.52z M236.63,197.52h4.43v-5.2h-4.43
							V197.52z M227.71,176.75h57.88v-5.2h-57.88V176.75z M285.59,197.52h-13.36v-15.58h17.83v-10.39h4.43v20.78h4.46v-20.78h4.46
							v20.78h4.43v-20.78h4.46v25.97h-22.26v-10.39h-13.38v5.2h8.92V197.52z"/>
						<path style="clip-path:url(#SVGID_00000145736856385426712590000003778665429796783249_);fill:#EDEDED;" d="M316.74,197.52
							h4.47v-10.39h13.36v10.39h22.28v-15.58h-13.36v5.19h8.89v5.2h-13.36v-10.39h-22.27V197.52z M325.67,197.52h4.45v-5.2h-4.45
							V197.52z M316.74,176.75h57.89v-5.2h-57.89V176.75z M374.64,197.52h-13.36v-15.58h17.82v-10.39h4.44v20.78h4.44v-20.78h4.45
							v20.78h4.47v-20.78h4.45v25.97H379.1v-10.39h-13.36v5.2h8.9V197.52z"/>
						<path style="clip-path:url(#SVGID_00000145736856385426712590000003778665429796783249_);fill:#EDEDED;" d="M405.82,197.52
							h4.45v-10.39h13.38v10.39h22.24v-15.58h-13.34v5.19h8.9v5.2h-13.38v-10.39h-22.24V197.52z M414.71,197.52h4.45v-5.2h-4.45
							V197.52z M405.82,176.75h57.89v-5.2h-57.89V176.75z M463.71,197.52h-13.37v-15.58h17.8v-10.39h4.47v20.78h4.45v-20.78h4.45
							v20.78h4.45v-20.78h4.44v25.97h-22.27v-10.39h-13.32v5.2h8.89V197.52z"/>
						<path style="clip-path:url(#SVGID_00000145736856385426712590000003778665429796783249_);fill:#EDEDED;" d="M494.88,197.52
							h4.45v-10.39h13.34v10.39h22.27v-15.58h-13.35v5.19h8.89v5.2h-13.37v-10.39h-22.24V197.52z M503.78,197.52h4.45v-5.2h-4.45
							V197.52z M494.88,176.75h57.89v-5.2h-57.89V176.75z M552.77,197.52H539.4v-15.58h17.79v-10.39h4.48v20.78h4.42v-20.78h4.48
							v20.78h4.45v-20.78h4.44v25.97h-22.27v-10.39h-13.34v5.2h8.93V197.52z"/>
						<path style="clip-path:url(#SVGID_00000145736856385426712590000003778665429796783249_);fill:#EDEDED;" d="M583.92,197.52
							h4.45v-10.39h13.38v10.39h22.24v-15.58h-13.34v5.19h8.93v5.2h-13.38v-10.39h-22.27V197.52z M592.84,197.52h4.44v-5.2h-4.44
							V197.52z M583.92,176.75h57.89v-5.2h-57.89V176.75z M641.81,197.52h-13.35v-15.58h17.8v-10.39h4.45v20.78h4.44v-20.78h4.48
							v20.78h4.42v-20.78h4.48v25.97h-22.27v-10.39h-13.38v5.2h8.93V197.52z"/>
						<path style="clip-path:url(#SVGID_00000145736856385426712590000003778665429796783249_);fill:#EDEDED;" d="M-39.47,213.11
							h40.1v-10.39h-40.1V213.11z M5.06,213.11h40.07v-10.39H5.06V213.11z"/>
						<path style="clip-path:url(#SVGID_00000145736856385426712590000003778665429796783249_);fill:#EDEDED;" d="M49.6,213.11
							h40.07v-10.39H49.6V213.11z M94.13,213.11h40.07v-10.39H94.13V213.11z"/>
						<path style="clip-path:url(#SVGID_00000145736856385426712590000003778665429796783249_);fill:#EDEDED;" d="M138.66,213.11
							h40.07v-10.39h-40.07V213.11z M183.18,213.11h40.07v-10.39h-40.07V213.11z"/>
						<path style="clip-path:url(#SVGID_00000145736856385426712590000003778665429796783249_);fill:#EDEDED;" d="M227.71,213.11
							h40.07v-10.39h-40.07V213.11z M272.23,213.11h40.08v-10.39h-40.08V213.11z"/>
						<path style="clip-path:url(#SVGID_00000145736856385426712590000003778665429796783249_);fill:#EDEDED;" d="M316.74,213.11
							h40.1v-10.39h-40.1V213.11z M361.28,213.11h40.09v-10.39h-40.09V213.11z"/>
						<path style="clip-path:url(#SVGID_00000145736856385426712590000003778665429796783249_);fill:#EDEDED;" d="M405.82,213.11
							h40.07v-10.39h-40.07V213.11z M450.33,213.11h40.06v-10.39h-40.06V213.11z"/>
						<path style="clip-path:url(#SVGID_00000145736856385426712590000003778665429796783249_);fill:#EDEDED;" d="M494.88,213.11
							h40.07v-10.39h-40.07V213.11z M539.4,213.11h40.07v-10.39H539.4V213.11z"/>
						<path style="clip-path:url(#SVGID_00000145736856385426712590000003778665429796783249_);fill:#EDEDED;" d="M583.92,213.11
							h40.06v-10.39h-40.06V213.11z M628.46,213.11h40.07v-10.39h-40.07V213.11z"/>
						<path style="clip-path:url(#SVGID_00000145736856385426712590000003778665429796783249_);fill:#EDEDED;" d="M-39.47,460.98
							H-35V450.6h13.35v10.38H0.6V445.4h-13.33v5.2h8.9v5.2h-13.36V445.4h-22.28V460.98z M-30.56,460.98h4.46v-5.19h-4.46V460.98z
							 M-39.47,440.2h57.89v-5.2h-57.89V440.2z M18.42,460.98H5.06V445.4h17.81v-10.39h4.46v20.78h4.45v-20.78h4.45v20.78h4.46
							v-20.78h4.43v25.97H22.87V450.6H9.53v5.2h8.89V460.98z"/>
						<path style="clip-path:url(#SVGID_00000145736856385426712590000003778665429796783249_);fill:#EDEDED;" d="M49.6,460.98h4.46
							V450.6h13.35v10.38h22.26V445.4H76.32v5.2h8.92v5.2H71.86V445.4H49.6V460.98z M58.49,460.98h4.46v-5.19h-4.46V460.98z
							 M49.6,440.2h57.89v-5.2H49.6V440.2z M107.49,460.98H94.13V445.4h17.8v-10.39h4.46v20.78h4.45v-20.78h4.45v20.78h4.46v-20.78
							h4.45v25.97h-22.27V450.6H98.56v5.2h8.93V460.98z"/>
						<path style="clip-path:url(#SVGID_00000145736856385426712590000003778665429796783249_);fill:#EDEDED;" d="M138.66,460.98
							h4.43V450.6h13.36v10.38h22.28V445.4h-13.38v5.2h8.93v5.2h-13.36V445.4h-22.26V460.98z M147.56,460.98h4.46v-5.19h-4.46
							V460.98z M138.66,440.2h57.86v-5.2h-57.86V440.2z M196.52,460.98h-13.35V445.4h17.81v-10.39h4.46v20.78h4.43v-20.78h4.46
							v20.78h4.45v-20.78h4.45v25.97h-22.26V450.6h-13.36v5.2h8.89V460.98z"/>
						<path style="clip-path:url(#SVGID_00000145736856385426712590000003778665429796783249_);fill:#EDEDED;" d="M227.71,460.98
							h4.45V450.6h13.36v10.38h22.26V445.4h-13.36v5.2h8.9v5.2h-13.33V445.4h-22.28V460.98z M236.63,460.98h4.43v-5.19h-4.43V460.98
							z M227.71,440.2h57.88v-5.2h-57.88V440.2z M285.59,460.98h-13.36V445.4h17.83v-10.39h4.43v20.78h4.46v-20.78h4.46v20.78h4.43
							v-20.78h4.46v25.97h-22.26V450.6h-13.38v5.2h8.92V460.98z"/>
						<path style="clip-path:url(#SVGID_00000145736856385426712590000003778665429796783249_);fill:#EDEDED;" d="M316.74,460.98
							h4.47V450.6h13.36v10.38h22.28V445.4h-13.36v5.2h8.89v5.2h-13.36V445.4h-22.27V460.98z M325.67,460.98h4.45v-5.19h-4.45
							V460.98z M316.74,440.2h57.89v-5.2h-57.89V440.2z M374.64,460.98h-13.36V445.4h17.82v-10.39h4.44v20.78h4.44v-20.78h4.45
							v20.78h4.47v-20.78h4.45v25.97H379.1V450.6h-13.36v5.2h8.9V460.98z"/>
						<path style="clip-path:url(#SVGID_00000145736856385426712590000003778665429796783249_);fill:#EDEDED;" d="M405.82,460.98
							h4.45V450.6h13.38v10.38h22.24V445.4h-13.34v5.2h8.9v5.2h-13.38V445.4h-22.24V460.98z M414.71,460.98h4.45v-5.19h-4.45V460.98
							z M405.82,440.2h57.89v-5.2h-57.89V440.2z M463.71,460.98h-13.37V445.4h17.8v-10.39h4.47v20.78h4.45v-20.78h4.45v20.78h4.45
							v-20.78h4.44v25.97h-22.27V450.6h-13.32v5.2h8.89V460.98z"/>
						<path style="clip-path:url(#SVGID_00000145736856385426712590000003778665429796783249_);fill:#EDEDED;" d="M494.88,460.98
							h4.45V450.6h13.34v10.38h22.27V445.4h-13.35v5.2h8.89v5.2h-13.37V445.4h-22.24V460.98z M503.78,460.98h4.45v-5.19h-4.45
							V460.98z M494.88,440.2h57.89v-5.2h-57.89V440.2z M552.77,460.98H539.4V445.4h17.79v-10.39h4.48v20.78h4.42v-20.78h4.48v20.78
							h4.45v-20.78h4.44v25.97h-22.27V450.6h-13.34v5.2h8.93V460.98z"/>
						<path style="clip-path:url(#SVGID_00000145736856385426712590000003778665429796783249_);fill:#EDEDED;" d="M583.92,460.98
							h4.45V450.6h13.38v10.38h22.24V445.4h-13.34v5.2h8.93v5.2h-13.38V445.4h-22.27V460.98z M592.84,460.98h4.44v-5.19h-4.44
							V460.98z M583.92,440.2h57.89v-5.2h-57.89V440.2z M641.81,460.98h-13.35V445.4h17.8v-10.39h4.45v20.78h4.44v-20.78h4.48v20.78
							h4.42v-20.78h4.48v25.97h-22.27V450.6h-13.38v5.2h8.93V460.98z"/>
						<path style="clip-path:url(#SVGID_00000145736856385426712590000003778665429796783249_);fill:#EDEDED;" d="M-39.47,429.81
							h40.1v-10.38h-40.1V429.81z M5.06,429.81h40.07v-10.38H5.06V429.81z"/>
						<path style="clip-path:url(#SVGID_00000145736856385426712590000003778665429796783249_);fill:#EDEDED;" d="M49.6,429.81
							h40.07v-10.38H49.6V429.81z M94.13,429.81h40.07v-10.38H94.13V429.81z"/>
						<path style="clip-path:url(#SVGID_00000145736856385426712590000003778665429796783249_);fill:#EDEDED;" d="M138.66,429.81
							h40.07v-10.38h-40.07V429.81z M183.18,429.81h40.07v-10.38h-40.07V429.81z"/>
						<path style="clip-path:url(#SVGID_00000145736856385426712590000003778665429796783249_);fill:#EDEDED;" d="M227.71,429.81
							h40.07v-10.38h-40.07V429.81z M272.23,429.81h40.08v-10.38h-40.08V429.81z"/>
						<path style="clip-path:url(#SVGID_00000145736856385426712590000003778665429796783249_);fill:#EDEDED;" d="M316.74,429.81
							h40.1v-10.38h-40.1V429.81z M361.28,429.81h40.09v-10.38h-40.09V429.81z"/>
						<path style="clip-path:url(#SVGID_00000145736856385426712590000003778665429796783249_);fill:#EDEDED;" d="M405.82,429.81
							h40.07v-10.38h-40.07V429.81z M450.33,429.81h40.06v-10.38h-40.06V429.81z"/>
						<path style="clip-path:url(#SVGID_00000145736856385426712590000003778665429796783249_);fill:#EDEDED;" d="M494.88,429.81
							h40.07v-10.38h-40.07V429.81z M539.4,429.81h40.07v-10.38H539.4V429.81z"/>
						<path style="clip-path:url(#SVGID_00000145736856385426712590000003778665429796783249_);fill:#EDEDED;" d="M583.92,429.81
							h40.06v-10.38h-40.06V429.81z M628.46,429.81h40.07v-10.38h-40.07V429.81z"/>
					</g>
				</g>
			</g>
		</g>
	</g>
	<circle class="st21" cx="325.28" cy="315.17" r="304.94"/>
</g>
</svg>
