<?xml version="1.0" encoding="utf-8"?>
<!-- Generator: Adobe Illustrator 27.9.0, SVG Export Plug-In . SVG Version: 6.00 Build 0)  -->
<svg version="1.1" id="Layer_1" xmlns="http://www.w3.org/2000/svg" xmlns:xlink="http://www.w3.org/1999/xlink" x="0px" y="0px"
	 viewBox="0 0 650.56 630.34" style="enable-background:new 0 0 650.56 630.34;" xml:space="preserve">
<style type="text/css">
	.st0{fill:#231F20;}
	.st1{fill:#4D4D4F;}
	.st2{fill:#F0CF0E;}
	.st3{fill-rule:evenodd;clip-rule:evenodd;fill:#4D4D4F;}
	.st4{fill:#2B4BA0;}
	.st5{fill:#B42F40;}
	.st6{fill:#FFFFFF;}
	.st7{clip-path:url(#SVGID_00000105397193838200014010000016747763103141139369_);}
	.st8{fill-rule:evenodd;clip-rule:evenodd;fill:#FFFFFF;}
	.st9{opacity:0.7;}
	.st10{clip-path:url(#SVGID_00000005237200254947635850000014307455036045638045_);}
	.st11{clip-path:url(#SVGID_00000025410437978551772740000015113017083934297513_);}
	.st12{clip-path:url(#SVGID_00000065063658008674296750000004754543164860258191_);}
	.st13{clip-path:url(#SVGID_00000088118618116795516730000001600558412975653251_);}
	.st14{fill:#D52B1E;}
	.st15{fill:#0039A6;}
	.st16{fill:none;stroke:#F0CF0E;stroke-width:11.6992;stroke-miterlimit:10;}
	.st17{clip-path:url(#SVGID_00000138549031111372554860000010470117213148244665_);}
	.st18{fill:#E30A17;}
	.st19{filter:url(#Adobe_OpacityMaskFilter);}
	.st20{fill:url(#SVGID_00000169552911528033580300000018008701555019569085_);}
	
		.st21{opacity:0.1;mask:url(#SVGID_00000035521511690897247740000009218268256674829732_);fill:url(#SVGID_00000031916240718399000390000003459559889159858622_);}
	.st22{filter:url(#Adobe_OpacityMaskFilter_00000094605275404640322070000000353129271028802187_);}
	.st23{fill:url(#SVGID_00000098213435696440369940000005224706931191276171_);}
	.st24{mask:url(#SVGID_00000181792723110909405940000003775637630212763801_);}
	.st25{filter:url(#Adobe_OpacityMaskFilter_00000104668814557994229600000005045488954295474086_);}
	.st26{filter:url(#Adobe_OpacityMaskFilter_00000155863948379339102760000000463019899237582255_);}
	.st27{fill:url(#SVGID_00000062156862308877833100000000332181490085483934_);}
	.st28{opacity:0.2;fill:url(#SVGID_00000159448640532223561800000014469367295941096343_);}
	.st29{clip-path:url(#SVGID_00000143588050184726711560000009491422158069022083_);}
	.st30{clip-path:url(#SVGID_00000147180032085209867450000014330007082168248723_);fill:#EDEDED;}
	.st31{clip-path:url(#SVGID_00000147180032085209867450000014330007082168248723_);fill:#49A044;}
	.st32{clip-path:url(#SVGID_00000147180032085209867450000014330007082168248723_);fill:#C7001B;}
	.st33{clip-path:url(#SVGID_00000147180032085209867450000014330007082168248723_);}
	.st34{clip-path:url(#SVGID_00000035531579673547787860000014223206566862952616_);}
	.st35{fill:#C7001B;}
	.st36{clip-path:url(#SVGID_00000035531579673547787860000014223206566862952616_);fill:#EDEDED;}
	.st37{clip-path:url(#SVGID_00000150084187386923747630000015265992359675116437_);}
	.st38{clip-path:url(#SVGID_00000007402973340879803100000017605218561441919420_);fill:#3D9635;}
	.st39{fill:#EDEDED;}
</style>
<g>
	<g>
		<g>
			<g>
				<defs>
					
						<rect id="SVGID_1_" x="90.44" y="831.27" transform="matrix(-1 -1.224647e-16 1.224647e-16 -1 632.0965 2113.7488)" width="451.22" height="451.22"/>
				</defs>
				<clipPath id="SVGID_00000031208415197779364830000008182033252774411905_">
					<use xlink:href="#SVGID_1_"  style="overflow:visible;"/>
				</clipPath>
				<g style="clip-path:url(#SVGID_00000031208415197779364830000008182033252774411905_);">
					<path class="st6" d="M203.58,701.38l0.81,0.81h4.57l-5.38-5.38V701.38z M203.58,692.24l9.95,9.95h4.57l-14.51-14.51V692.24z
						 M203.58,683.11l19.08,19.08h4.57l-23.65-23.65V683.11z M203.58,673.97l28.22,28.22h4.57l-32.78-32.78V673.97z M203.58,664.84
						l37.35,37.35h4.57l-41.92-41.92V664.84z M203.58,655.7l46.49,46.49h4.57l-51.05-51.05V655.7z M203.58,646.56l55.62,55.62h4.57
						L203.58,642V646.56z M203.58,637.43l64.76,64.76h4.57l-69.32-69.32V637.43z M203.58,628.29l73.89,73.89h4.57l-78.46-78.46
						V628.29z M205.86,621.44l78.46,78.46v-4.57l-73.89-73.89H205.86z M214.99,621.44l69.33,69.33v-4.57l-64.76-64.76H214.99z
						 M224.13,621.44l60.19,60.19v-4.57l-55.62-55.62H224.13z M233.27,621.44l51.05,51.05v-4.57l-46.49-46.49H233.27z M242.4,621.44
						l41.92,41.92v-4.57l-37.35-37.35H242.4z M251.54,621.44l32.78,32.78v-4.57l-28.22-28.22H251.54z M260.67,621.44l23.65,23.65
						v-4.57l-19.08-19.08H260.67z M269.81,621.44l14.51,14.51v-4.57l-9.95-9.95H269.81z M278.94,621.44l5.38,5.38v-4.57l-0.81-0.81
						H278.94z M278.94,621.44"/>
					<path class="st6" d="M445.81,622.26l0.81-0.81h4.57l-5.38,5.38V622.26z M445.81,631.39l9.95-9.95h4.57l-14.51,14.51V631.39z
						 M445.81,640.53l19.08-19.08h4.57l-23.65,23.65V640.53z M445.81,649.66l28.22-28.22h4.57l-32.78,32.78V649.66z M445.81,658.8
						l37.35-37.35h4.57l-41.92,41.92V658.8z M445.81,667.93l46.49-46.49h4.57l-51.05,51.05V667.93z M445.81,677.07l55.62-55.62H506
						l-60.19,60.19V677.07z M445.81,686.2l64.76-64.76h4.57l-69.32,69.32V686.2z M445.81,695.34l73.89-73.89h4.57l-78.46,78.46
						V695.34z M448.09,702.19l78.46-78.46v4.57l-73.89,73.89H448.09z M457.23,702.19l69.33-69.33v4.57l-64.76,64.76H457.23z
						 M466.36,702.19L526.55,642v4.57l-55.62,55.62H466.36z M475.5,702.19l51.05-51.05v4.57l-46.49,46.49H475.5z M484.63,702.19
						l41.92-41.92v4.57l-37.35,37.35H484.63z M493.77,702.19l32.78-32.78v4.57l-28.22,28.22H493.77z M502.9,702.19l23.65-23.65v4.57
						l-19.08,19.08H502.9z M512.04,702.19l14.51-14.51v4.57l-9.95,9.95H512.04z M521.17,702.19l5.38-5.38v4.57l-0.81,0.81H521.17z
						 M521.17,702.19"/>
					<rect x="82.46" y="621.44" class="st6" width="40.37" height="80.74"/>
					<path class="st6" d="M284.32,702.19h80.74v-3.23h-80.74V702.19z M284.32,695.73h80.74v-3.23h-80.74V695.73z M284.32,689.27
						h80.74v-3.23h-80.74V689.27z M284.32,682.81h80.74v-3.23h-80.74V682.81z M284.32,676.35h80.74v-3.23h-80.74V676.35z
						 M284.32,669.89h80.74v-3.23h-80.74V669.89z M284.32,663.43h80.74v-3.23h-80.74V663.43z M284.32,656.97h80.74v-3.23h-80.74
						V656.97z M284.32,650.51h80.74v-3.23h-80.74V650.51z M284.32,644.05h80.74v-3.23h-80.74V644.05z M284.32,637.59h80.74v-3.23
						h-80.74V637.59z M284.32,631.13h80.74v-3.23h-80.74V631.13z M284.32,624.67h80.74v-3.23h-80.74V624.67z M284.32,624.67"/>
					<path class="st6" d="M526.55,624.05h-80.74l80.74,80.74V624.05z M526.55,624.05"/>
					<path class="st6" d="M122.83,621.44c0,21.41,8.51,41.95,23.65,57.09c15.14,15.14,35.68,23.65,57.09,23.65v-80.74H122.83z
						 M122.83,621.44"/>
					<rect x="365.06" y="621.44" class="st6" width="80.74" height="40.37"/>
				</g>
			</g>
		</g>
	</g>
</g>
<g>
	<g>
		<g>
			<defs>
				
					<ellipse id="SVGID_00000097464320138311443320000004721457966835095205_" transform="matrix(0.7071 -0.7071 0.7071 0.7071 -125.527 321.467)" cx="325.28" cy="312.26" rx="303.05" ry="303.05"/>
			</defs>
			<clipPath id="SVGID_00000057115468614995430880000013233653751260890809_">
				<use xlink:href="#SVGID_00000097464320138311443320000004721457966835095205_"  style="overflow:visible;"/>
			</clipPath>
			<g style="clip-path:url(#SVGID_00000057115468614995430880000013233653751260890809_);">
				<rect x="-129.29" y="9.21" class="st6" width="909.14" height="202.03"/>
				<rect x="-129.29" y="413.27" class="st14" width="909.14" height="202.03"/>
				<rect x="-129.29" y="211.24" class="st15" width="909.14" height="202.03"/>
			</g>
		</g>
	</g>
	<circle class="st16" cx="325.28" cy="315.17" r="304.94"/>
</g>
</svg>
